<svg width="80" height="80" viewBox="0 0 80 80" fill="none" xmlns="http://www.w3.org/2000/svg">
<path d="M55.1302 30.6199C53.5806 30.0553 51.9427 29.772 50.2935 29.7833C44.9602 29.7833 41.1935 32.4699 41.1668 36.3266C41.1335 39.1599 43.8435 40.7566 45.8935 41.7033C47.9968 42.6766 48.7002 43.29 48.6935 44.16C48.6802 45.4833 47.0135 46.0833 45.4635 46.0833C43.3335 46.0833 42.1702 45.7866 40.3802 45.0433L39.7168 44.7333L38.9602 49.1733C40.2568 49.7133 42.5935 50.1766 45.0068 50.2166C50.6768 50.2166 54.3835 47.5466 54.4268 43.4433C54.4735 41.18 53.0068 39.4699 49.9202 38.0566C48.0435 37.1399 46.8802 36.5266 46.8802 35.5966C46.8802 34.7733 47.8768 33.8933 49.9602 33.8933C51.3467 33.8597 52.7246 34.1199 54.0035 34.6566L54.5035 34.8799L55.2602 30.5899L55.1302 30.6199ZM68.9702 30.1433H64.8035C63.5068 30.1433 62.5302 30.5 61.9635 31.7866L53.9502 49.94H59.6202L60.7535 46.9633L67.6735 46.9699C67.8368 47.6666 68.3368 49.94 68.3368 49.94H73.3368L68.9702 30.1433ZM33.4968 29.9766H38.9002L35.5202 49.7833H30.1235L33.4968 29.97V29.9766ZM19.7802 40.8933L20.3402 43.6433L25.6202 30.1433H31.3435L22.8402 49.9133H17.1302L12.4635 33.1733C12.3879 32.8973 12.2104 32.6602 11.9668 32.51C10.2848 31.6411 8.50264 30.9817 6.66016 30.5466L6.73349 30.1299H15.4302C16.6102 30.1766 17.5602 30.5466 17.8768 31.8066L19.7768 40.9033V40.8933H19.7802ZM62.3035 42.9133L64.4568 37.3733C64.4302 37.4333 64.9002 36.2299 65.1735 35.4866L65.5435 37.1966L66.7935 42.91H62.3002V42.9133H62.3035Z" fill="#0FB575"/>
</svg>
