<svg width="80" height="80" viewBox="0 0 80 80" fill="none" xmlns="http://www.w3.org/2000/svg">
<path d="M65.1801 31.6267C65.5834 33.5034 65.5334 35.7801 65.0468 38.4634C63.1068 48.3901 56.7901 53.3501 46.1034 53.3501H44.6301C44.0856 53.3468 43.5589 53.5437 43.1501 53.9034C42.7265 54.2703 42.4447 54.7738 42.3534 55.3267L42.2168 55.9567L40.3734 67.5534L40.3034 68.0567C40.2083 68.6135 39.9161 69.1176 39.4801 69.4767C39.0687 69.8388 38.538 70.0358 37.9901 70.0301H29.5801C29.3696 70.0411 29.1595 70.0015 28.9675 69.9145C28.7755 69.8275 28.6072 69.6956 28.4768 69.5301C28.3442 69.3609 28.249 69.1657 28.1973 68.9572C28.1456 68.7486 28.1386 68.5315 28.1768 68.3201C28.3801 67.0767 28.6701 65.1934 29.0668 62.6901C29.4568 60.1901 29.7534 58.3101 29.9568 57.0601C30.1601 55.8101 30.4568 53.9334 30.8634 51.4434C31.2668 48.9501 31.5701 47.0767 31.7668 45.8267C31.8768 45.0001 32.3634 44.5901 33.2101 44.5901H37.5968C40.5734 44.6334 43.2034 44.4001 45.5134 43.8867C49.4201 43.0134 52.6268 41.4067 55.1334 39.0567C57.4168 36.9334 59.1434 34.1834 60.3334 30.8134C60.8734 29.2467 61.2568 27.7567 61.5068 26.3534C61.5268 26.2167 61.5534 26.1334 61.5901 26.1067C61.6168 26.0701 61.6634 26.0601 61.7068 26.0701C61.7792 26.1024 61.8484 26.1414 61.9134 26.1867C63.6601 27.5134 64.7601 29.3234 65.1801 31.6267ZM59.4201 22.1734C59.4201 24.5634 58.9068 27.2001 57.8701 30.0867C56.0801 35.2934 52.7134 38.8134 47.7468 40.6467C45.2201 41.5434 42.4068 42.0067 39.2968 42.0634C39.2968 42.0834 38.2934 42.0867 36.2834 42.0867L33.2734 42.0634C31.0334 42.0634 29.7168 43.1301 29.3168 45.2767C29.2734 45.4534 28.3234 51.3767 26.4668 63.0401C26.4401 63.2601 26.3068 63.3801 26.0634 63.3801H16.1801C15.9472 63.385 15.7161 63.3382 15.5034 63.2431C15.2907 63.148 15.1017 63.0069 14.9501 62.8301C14.7927 62.656 14.6766 62.4488 14.6102 62.2238C14.5439 61.9987 14.529 61.7616 14.5668 61.5301L22.3401 12.2134C22.4396 11.5823 22.7669 11.0096 23.2601 10.6034C23.7409 10.1896 24.3557 9.96449 24.9901 9.97007H45.0368C45.7968 9.97007 46.8868 10.1167 48.3001 10.4067C49.7268 10.6867 50.9701 11.0534 52.0434 11.4767C54.4368 12.3901 56.2634 13.7701 57.5268 15.6001C58.7901 17.4401 59.4201 19.6234 59.4201 22.1734Z" fill="#0FB575"/>
</svg>
