<svg width="80" height="80" viewBox="0 0 80 80" fill="none" xmlns="http://www.w3.org/2000/svg">
<path d="M27.7 34.2666C26.0504 34.2666 24.4379 34.7562 23.0668 35.6734C21.6956 36.5905 20.6276 37.894 19.9978 39.4187C19.3681 40.9433 19.205 42.6206 19.5293 44.238C19.8535 45.8554 20.6505 47.3402 21.8193 48.5043C22.9881 49.6684 24.476 50.4594 26.0947 50.7772C27.7134 51.095 29.39 50.9252 30.9122 50.2893C32.4343 49.6535 33.7335 48.5802 34.6451 47.2054C35.5568 45.8306 36.0399 44.2162 36.0333 42.5666C36.0245 40.3622 35.1426 38.2512 33.5808 36.6956C32.0189 35.14 29.9043 34.2666 27.7 34.2666ZM27.7 46.9333C27.0967 46.9861 26.4891 46.9129 25.9156 46.7183C25.3422 46.5237 24.8155 46.212 24.369 45.8029C23.9225 45.3938 23.5659 44.8963 23.322 44.3421C23.0781 43.7878 22.9521 43.1888 22.9521 42.5833C22.9521 41.9777 23.0781 41.3788 23.322 40.8245C23.5659 40.2702 23.9225 39.7727 24.369 39.3636C24.8155 38.9545 25.3422 38.6428 25.9156 38.4482C26.4891 38.2536 27.0967 38.1804 27.7 38.2333C28.3032 38.1804 28.9109 38.2536 29.4843 38.4482C30.0578 38.6428 30.5845 38.9545 31.031 39.3636C31.4775 39.7727 31.834 40.2702 32.0779 40.8245C32.3218 41.3788 32.4478 41.9777 32.4478 42.5833C32.4478 43.1888 32.3218 43.7878 32.0779 44.3421C31.834 44.8963 31.4775 45.3938 31.031 45.8029C30.5845 46.212 30.0578 46.5237 29.4843 46.7183C28.9109 46.9129 28.3032 46.9861 27.7 46.9333ZM52.3 34.2666C50.6504 34.2666 49.0379 34.7562 47.6668 35.6734C46.2956 36.5905 45.2276 37.894 44.5978 39.4187C43.9681 40.9433 43.805 42.6206 44.1293 44.238C44.4535 45.8554 45.2505 47.3402 46.4193 48.5043C47.5881 49.6684 49.076 50.4594 50.6947 50.7772C52.3134 51.095 53.99 50.9252 55.5122 50.2893C57.0343 49.6535 58.3335 48.5802 59.2451 47.2054C60.1568 45.8306 60.6399 44.2162 60.6333 42.5666C60.6245 40.3622 59.7426 38.2512 58.1808 36.6956C56.6189 35.14 54.5043 34.2666 52.3 34.2666ZM56.6666 42.5666C56.6732 43.4316 56.4228 44.2791 55.947 45.0016C55.4712 45.7241 54.7915 46.2889 53.9942 46.6246C53.1969 46.9602 52.3179 47.0514 51.4687 46.8867C50.6195 46.722 49.8383 46.3088 49.2242 45.6994C48.6102 45.0901 48.191 44.3121 48.0198 43.4642C47.8486 42.6162 47.9331 41.7365 48.2626 40.9367C48.5921 40.1368 49.1517 39.4529 49.8705 38.9716C50.5893 38.4903 51.4349 38.2333 52.3 38.2333C53.4523 38.2332 54.558 38.6887 55.3759 39.5004C56.1939 40.3121 56.6578 41.4143 56.6666 42.5666Z" fill="#0FB575"/>
<path d="M39.9999 6.66675C33.4071 6.66675 26.9625 8.62171 21.4808 12.2844C15.9992 15.9471 11.7268 21.1531 9.20387 27.244C6.68095 33.3348 6.02084 40.0371 7.30701 46.5031C8.59318 52.9691 11.7679 58.9086 16.4296 63.5703C21.0914 68.2321 27.0308 71.4068 33.4968 72.6929C39.9629 73.9791 46.6651 73.319 52.756 70.7961C58.8468 68.2732 64.0528 64.0007 67.7155 58.5191C71.3782 53.0375 73.3332 46.5928 73.3332 40.0001C73.3332 35.6227 72.471 31.2882 70.7958 27.244C69.1207 23.1998 66.6654 19.5251 63.5701 16.4299C60.4748 13.3346 56.8002 10.8793 52.756 9.2041C48.7118 7.52894 44.3772 6.66675 39.9999 6.66675ZM64.5998 42.5667C64.6032 44.9618 63.9073 47.3058 62.5974 49.3109C61.2875 51.3161 59.4207 52.8952 57.2261 53.8545C55.0315 54.8137 52.6046 55.1114 50.2432 54.7109C47.8819 54.3104 45.6888 53.2293 43.9332 51.6001L39.9999 55.9001L36.0665 51.6001C34.8759 52.6944 33.4813 53.5435 31.9625 54.0989C30.4437 54.6544 28.8304 54.9052 27.2146 54.8371C25.5989 54.769 24.0124 54.3833 22.5457 53.7021C21.079 53.0208 19.7609 52.0574 18.6665 50.8668C17.5722 49.6761 16.7231 48.2816 16.1676 46.7627C15.6122 45.2439 15.3614 43.6306 15.4295 42.0149C15.4976 40.3991 15.8833 38.8126 16.5645 37.3459C17.2458 35.8792 18.2092 34.5611 19.3999 33.4667L15.3999 29.1334H24.3332C28.9523 25.9718 34.4191 24.2801 40.0165 24.2801C45.614 24.2801 51.0808 25.9718 55.6998 29.1334H64.5998L60.5998 33.5001C61.8557 34.6539 62.8594 36.0549 63.5477 37.6152C64.2361 39.1755 64.5943 40.8614 64.5998 42.5667Z" fill="#0FB575"/>
<path d="M49.2333 30.1667C46.3081 28.9455 43.1698 28.3167 39.9999 28.3167C36.8301 28.3167 33.6918 28.9455 30.7666 30.1667C33.3517 31.0292 35.6162 32.6521 37.2637 34.823C38.9111 36.9938 39.8648 39.6115 39.9999 42.3333C40.144 39.614 41.1012 37.0006 42.7474 34.8314C44.3936 32.6622 46.653 31.0372 49.2333 30.1667Z" fill="#0FB575"/>
</svg>
