<svg width="80" height="80" viewBox="0 0 80 80" fill="none" xmlns="http://www.w3.org/2000/svg">
<path d="M38.1802 56.7367C38.3402 56.8734 38.5135 57.0101 38.6835 57.1434C35.3049 59.3862 31.3388 60.5807 27.2835 60.5768C24.5804 60.5789 21.9034 60.0483 19.4056 59.015C16.9077 57.9818 14.6381 56.4663 12.7264 54.5553C10.8147 52.6442 9.29849 50.375 8.26446 47.8775C7.23044 45.38 6.69888 42.7032 6.7002 40.0001C6.69985 36.2771 7.70923 32.6238 9.62085 29.4292C11.5325 26.2345 14.2748 23.6181 17.5557 21.8586C20.8366 20.0991 24.5333 19.2624 28.2521 19.4376C31.9709 19.6128 35.5725 20.7933 38.6735 22.8534C38.5069 22.9967 38.3402 23.1267 38.2135 23.2734C35.8108 25.3481 33.883 27.9159 32.5612 30.8022C31.2394 33.6885 30.5547 36.8255 30.5535 40.0001C30.5535 46.4167 33.3302 52.5167 38.1802 56.7367ZM52.7169 19.4201C48.6651 19.4122 44.7022 20.6071 41.3302 22.8534C41.4935 22.9967 41.6602 23.1267 41.7869 23.2734C46.6602 27.4834 49.4502 33.5867 49.4502 40.0001C49.4502 46.4134 46.6669 52.5101 41.8235 56.7367C41.6602 56.8734 41.4869 57.0101 41.3202 57.1434C44.696 59.387 48.6602 60.5816 52.7135 60.5768C55.438 60.6116 58.1422 60.1052 60.6693 59.0868C63.1965 58.0684 65.4963 56.5583 67.4353 54.6442C69.3743 52.73 70.9139 50.4499 71.9648 47.9361C73.0156 45.4222 73.5569 42.7247 73.5571 40.0001C73.5573 37.2755 73.0165 34.5779 71.966 32.0639C70.9156 29.5499 69.3763 27.2695 67.4377 25.355C65.499 23.4406 63.1994 21.9301 60.6724 20.9113C58.1454 19.8925 55.4413 19.3856 52.7169 19.4201ZM40.0002 23.8334C37.5496 25.7549 35.5687 28.2094 34.208 31.0105C32.8473 33.8117 32.1424 36.8859 32.1469 40.0001C32.1404 43.116 32.8443 46.1924 34.2052 48.9955C35.566 51.7985 37.5479 54.2545 40.0002 56.1768C42.4519 54.2537 44.4334 51.7976 45.7947 48.9948C47.156 46.192 47.8612 43.116 47.8569 40.0001C47.8614 36.8856 47.1562 33.811 45.7949 31.0097C44.4335 28.2085 42.4518 25.7543 40.0002 23.8334Z" fill="#0FB575"/>
</svg>
