<svg width="80" height="80" viewBox="0 0 80 80" fill="none" xmlns="http://www.w3.org/2000/svg">
<path d="M23.4031 40.3699V26.6799H26.7398V35.0966C28.3831 33.1433 30.6398 32.5766 32.8665 32.5766C36.5931 32.5766 40.7365 35.0899 40.7365 40.5199C40.7365 41.1699 40.6898 41.7899 40.5665 42.3833C41.2331 39.7266 44.1098 38.7499 48.6265 38.6399C50.0465 38.5866 51.6731 38.5866 52.9665 38.5866V38.2166C52.9665 35.7566 51.4198 34.7533 48.7131 34.7533C46.7065 34.7533 45.2465 35.5866 45.0798 37.0066H41.5331C41.9098 33.4199 45.7098 32.4999 49.0065 32.4999C51.9698 32.4999 54.5598 33.2499 55.7298 35.3399L54.5131 32.9999H58.4365L64.1565 44.4766L69.8765 32.9933H73.3331L62.9831 53.3199H59.2365L62.2165 47.6433L55.7331 35.4566C56.0931 36.1666 56.2898 37.0066 56.2898 38.0466V44.8966C56.2898 45.8599 56.3198 46.8099 56.4031 47.6899H53.2998C53.2161 46.983 53.1738 46.2718 53.1731 45.5599C51.4965 47.6033 49.4965 48.2366 46.7165 48.2366C42.5965 48.2366 40.3931 46.0633 40.3931 43.5166C40.3931 43.0999 40.4365 42.7299 40.4965 42.3899C39.6598 45.8599 36.7131 48.1899 32.7965 48.1899C30.3731 48.1899 28.0831 47.3166 26.6731 45.6066C26.6731 46.2766 26.6298 46.9799 26.5631 47.6433H23.2765C23.3365 46.5633 23.3898 45.2666 23.3898 44.1866V41.2633H9.9498C10.1298 44.3099 12.2265 46.0999 15.1065 46.0999C17.1031 46.0999 18.8765 45.2666 19.4698 43.5166H22.9198C22.2531 47.1099 18.4398 48.3133 15.1565 48.3133C9.19314 48.3733 6.5498 45.0699 6.5498 40.6433C6.5498 35.7666 9.2798 32.5499 15.2231 32.5499C19.9198 32.5499 23.3731 35.0099 23.4031 40.3566V40.3699ZM48.8265 40.8799C45.7765 40.9699 43.8965 41.5233 43.8965 43.5233C43.8965 44.8199 44.8998 46.2199 47.5298 46.2199C51.0365 46.2199 52.9131 44.3066 52.9131 41.1733V40.8099C51.6598 40.8099 50.1598 40.8299 48.7831 40.8766H48.8198L48.8265 40.8799ZM31.9631 46.0933C35.0531 46.0933 37.1831 43.8533 37.1831 40.4733C37.1831 37.0933 35.0431 34.8533 31.9165 34.8533C28.8231 34.8533 26.6565 37.0933 26.6565 40.4733C26.6565 43.8533 28.7865 46.0933 31.8731 46.0933H31.9631ZM19.8598 39.0999C19.7365 35.9699 17.4798 34.7966 15.0598 34.7966C12.4331 34.7966 10.3465 36.1133 10.0065 39.0999H19.8598Z" fill="#0FB575"/>
</svg>
