<svg width="80" height="80" viewBox="0 0 80 80" fill="none" xmlns="http://www.w3.org/2000/svg">
<path d="M65.5501 56.0367C64.6271 58.1883 63.4868 60.2401 62.1468 62.16C60.3568 64.7167 58.8868 66.4833 57.7601 67.4667C56.0101 69.0733 54.1301 69.9 52.1201 69.9467C50.6801 69.9467 48.9401 69.5367 46.9135 68.7033C44.8801 67.8733 43.0135 67.4667 41.3035 67.4667C39.5135 67.4667 37.5935 67.8733 35.5368 68.7033C33.4835 69.5367 31.8235 69.9733 30.5535 70.0133C28.6301 70.0967 26.7068 69.25 24.7901 67.4667C23.5668 66.4 22.0368 64.5667 20.2001 61.9733C18.2335 59.21 16.6168 55.9933 15.3501 52.3367C13.9935 48.38 13.3135 44.5533 13.3135 40.8467C13.3135 36.6033 14.2301 32.94 16.0668 29.8733C17.456 27.4649 19.442 25.4548 21.8335 24.0367C24.1917 22.6222 26.8838 21.8606 29.6335 21.83C31.1668 21.83 33.1768 22.3033 35.6668 23.2367C38.1568 24.17 39.7568 24.6433 40.4535 24.6433C40.9801 24.6433 42.7501 24.0867 45.7635 22.9833C48.6068 21.96 51.0068 21.5367 52.9735 21.7033C58.3068 22.1333 62.3101 24.2333 64.9735 28.02C60.2068 30.91 57.8501 34.9533 57.8968 40.1433C57.9368 44.1867 59.4068 47.55 62.2868 50.22C63.5601 51.4384 65.0457 52.4134 66.6701 53.0967C66.3168 54.12 65.9435 55.0967 65.5501 56.0367ZM53.3268 7.93333C53.3268 11.1 52.1668 14.06 49.8635 16.7967C47.0768 20.05 43.7101 21.9333 40.0601 21.6367C40.0124 21.2385 39.989 20.8377 39.9901 20.4367C39.9901 17.3933 41.3101 14.14 43.6668 11.4767C44.8401 10.13 46.3335 9.00666 48.1435 8.11333C49.9501 7.23333 51.6568 6.74666 53.2635 6.66333C53.3068 7.09 53.3268 7.51333 53.3268 7.93333Z" fill="#0FB575"/>
</svg>
