<svg width="80" height="80" viewBox="0 0 80 80" fill="none" xmlns="http://www.w3.org/2000/svg">
<path d="M40.0032 55.6966C36.6265 51.46 34.6398 47.7433 33.9765 44.5633C33.3198 42 33.5765 39.9466 34.7032 38.4033C35.8932 36.63 37.6698 35.7666 39.9998 35.7666C42.3298 35.7666 44.1032 36.63 45.2965 38.42C46.4132 39.9466 46.6932 42.0033 46.0132 44.58C45.2865 47.8266 43.3032 51.5366 39.9865 55.7166L40.0032 55.6966ZM63.9898 58.5466C63.5232 61.66 61.4065 64.24 58.4898 65.4966C52.8665 67.9433 47.2932 64.04 42.5265 58.7433C50.4098 48.8733 51.8698 41.1833 48.4832 36.2166C46.4965 33.3666 43.6532 31.98 40.0032 31.98C32.6498 31.98 28.6065 38.2033 30.1965 45.4266C31.1165 49.3366 33.5732 53.78 37.4832 58.7466C35.0332 61.4566 32.7098 63.3833 30.6598 64.5733C29.0665 65.4333 27.5465 65.9666 26.0932 66.0933C19.3998 67.09 14.1532 60.6033 16.5365 53.9066C16.8698 53.0433 17.5265 51.46 18.6498 49.0033L18.7132 48.8733C22.3698 40.9333 26.8132 31.9133 31.9165 21.9066L32.0465 21.5733L33.4965 18.7866C34.6232 16.7333 35.0865 15.8133 36.8765 14.6833C37.7365 14.16 38.7965 13.9 39.9898 13.9C42.3732 13.9 44.2265 15.2933 45.0265 16.41C45.4198 17.01 45.8898 17.8066 46.4798 18.7966L47.8765 21.5133L48.0765 21.91C53.1765 31.9133 57.6198 40.9166 61.2598 48.8733L61.3265 48.9366L62.6632 51.9866L63.4532 53.8966C64.0632 55.4266 64.1898 56.9466 63.9865 58.54L63.9898 58.5466ZM67.0332 52.5766C66.5698 51.1166 65.7732 49.4 64.7832 47.3466V47.2733C60.5211 38.1669 56.1027 29.1344 51.5298 20.18L51.2498 19.7766C48.2865 13.6966 46.1632 10.0466 39.9998 10.0466C33.9098 10.0466 31.3198 14.28 28.6765 19.7866L28.4732 20.1833C24.3032 28.27 19.9265 37.2766 15.2232 47.2833V47.4133L13.8298 50.46C13.3032 51.72 13.0398 52.3766 12.9665 52.58C9.59317 61.8533 16.5465 70 24.9632 70C25.0332 70 25.2932 70 25.6232 69.93H26.5498C30.9265 69.4 35.4298 66.62 39.9998 61.6466C44.5698 66.6133 49.0832 69.4 53.4432 69.93H54.3732C54.7065 70 54.9732 70 55.0398 70C63.4565 70.0066 70.4065 61.8533 67.0332 52.5766Z" fill="#0FB575"/>
</svg>
