<svg width="80" height="80" viewBox="0 0 80 80" fill="none" xmlns="http://www.w3.org/2000/svg">
<path d="M61.1465 29.0334C58.7898 29.0334 56.8832 30.9401 56.8832 33.2934V48.3934C56.8832 49.5242 57.3323 50.6086 58.1319 51.4081C58.9314 52.2076 60.0158 52.6568 61.1465 52.6568C62.2772 52.6568 63.3616 52.2076 64.1611 51.4081C64.9607 50.6086 65.4098 49.5242 65.4098 48.3934V33.2934C65.4098 30.9401 63.5032 29.0334 61.1465 29.0334ZM18.8532 29.0334C16.4965 29.0334 14.5898 30.9401 14.5898 33.2934V48.3934C14.5898 49.5242 15.039 50.6086 15.8385 51.4081C16.6381 52.2076 17.7225 52.6568 18.8532 52.6568C19.9839 52.6568 21.0683 52.2076 21.8678 51.4081C22.6673 50.6086 23.1165 49.5242 23.1165 48.3934V33.2934C23.117 32.7336 23.007 32.1792 22.7928 31.6619C22.5787 31.1447 22.2646 30.6747 21.8686 30.279C21.4726 29.8833 21.0024 29.5696 20.485 29.3559C19.9675 29.1421 19.413 29.0326 18.8532 29.0334ZM48.4832 16.3368L51.0432 11.7101C51.118 11.5784 51.1659 11.4331 51.1841 11.2827C51.2023 11.1323 51.1904 10.9798 51.1492 10.8341C51.1079 10.6883 51.0381 10.5522 50.9438 10.4336C50.8495 10.3151 50.7326 10.2164 50.5998 10.1435C50.4675 10.0688 50.3216 10.0212 50.1707 10.0035C50.0197 9.9857 49.8668 9.99812 49.7207 10.04C49.5746 10.0819 49.4383 10.1524 49.3197 10.2474C49.2011 10.3424 49.1026 10.46 49.0298 10.5935L46.3998 15.3268C44.4398 14.5435 42.2798 14.1001 39.9998 14.1001C37.7198 14.1001 35.5598 14.5401 33.5998 15.3235L30.9698 10.5968C30.8971 10.4634 30.7986 10.3457 30.68 10.2507C30.5614 10.1557 30.4251 10.0852 30.279 10.0433C30.1329 10.0015 29.98 9.98904 29.829 10.0068C29.6781 10.0246 29.5322 10.0721 29.3998 10.1468C29.2677 10.2204 29.1515 10.3194 29.0577 10.438C28.9639 10.5567 28.8944 10.6926 28.8532 10.8382C28.812 10.9837 28.7999 11.1359 28.8177 11.2861C28.8354 11.4363 28.8826 11.5815 28.9565 11.7134L31.5165 16.3401C26.9065 18.9668 23.8265 23.6634 23.8265 29.0334C23.8265 29.0701 23.8265 29.1035 23.8332 29.1468C23.8265 29.1668 23.8265 29.1901 23.8265 29.2101V29.2134H56.1698V29.0334C56.1732 23.6634 53.0932 18.9701 48.4832 16.3368ZM32.5332 22.8968C32.3815 22.8957 32.2315 22.8647 32.0918 22.8057C31.9521 22.7466 31.8254 22.6606 31.7189 22.5526C31.5039 22.3344 31.3843 22.0398 31.3865 21.7334C31.3887 21.4271 31.5125 21.1342 31.7307 20.9192C31.9489 20.7041 32.2435 20.5846 32.5498 20.5868C32.8562 20.589 33.1491 20.7128 33.3641 20.931C33.5792 21.1491 33.6987 21.4438 33.6965 21.7501C33.6943 22.0564 33.5705 22.3493 33.3523 22.5644C33.1342 22.7794 32.8395 22.899 32.5332 22.8968ZM47.4665 22.8968C47.1758 22.8747 46.9041 22.7436 46.7059 22.5297C46.5077 22.3158 46.3976 22.035 46.3976 21.7434C46.3976 21.4519 46.5077 21.1711 46.7059 20.9572C46.9041 20.7433 47.1758 20.6122 47.4665 20.5901C47.7724 20.5901 48.0658 20.7116 48.282 20.9279C48.4983 21.1442 48.6198 21.4376 48.6198 21.7434C48.6198 22.0493 48.4983 22.3427 48.282 22.559C48.0658 22.7753 47.7724 22.8968 47.4665 22.8968ZM23.8265 53.7335C23.8265 55.8868 25.5765 57.6368 27.7398 57.6368H29.6932V65.6401C29.6932 66.7708 30.1424 67.8552 30.9419 68.6548C31.7414 69.4543 32.8258 69.9035 33.9565 69.9035C35.0872 69.9035 36.1716 69.4543 36.9711 68.6548C37.7707 67.8552 38.2198 66.7708 38.2198 65.6401V57.6368H41.7732V65.6401C41.7732 67.9968 43.6798 69.9001 46.0298 69.9001C48.3932 69.9001 50.2998 67.9968 50.2998 65.6401V57.6368H52.2532C54.4132 57.6368 56.1665 55.8901 56.1665 53.7335V30.0934H23.8265V53.7335Z" fill="#0FB575"/>
</svg>
