<svg width="80" height="80" viewBox="0 0 80 80" fill="none" xmlns="http://www.w3.org/2000/svg">
<path d="M66.3032 25.9601C68.7132 30.3682 69.9732 35.3128 69.9665 40.3368C69.9678 45.5809 68.5923 50.7335 65.9775 55.2792C63.3627 59.825 59.6003 63.6046 55.0665 66.2401L64.2198 39.7767C65.9298 35.5034 66.4998 32.0801 66.4998 29.0468C66.501 28.0147 66.4354 26.9836 66.3032 25.9601ZM44.1332 26.2501C45.2764 26.1939 46.4171 26.096 47.5532 25.9568C49.1698 25.7467 48.9798 23.3734 47.3665 23.4601C47.3665 23.4601 42.4898 23.8334 39.3665 23.8334C36.4098 23.8334 31.4498 23.4167 31.4498 23.4167C29.8265 23.3368 29.6165 25.7934 31.2465 25.8767C31.2465 25.8767 32.7432 26.0501 34.3732 26.1267L39.0365 38.9201L32.4532 58.5834L21.5398 26.1701C22.6846 26.1125 23.8273 26.0203 24.9665 25.8934C26.5898 25.6834 26.3998 23.3101 24.7832 23.4034C24.7832 23.4034 19.9332 23.7868 16.7998 23.7868C16.2432 23.7868 15.5832 23.7634 14.8832 23.7434C20.3098 15.7534 29.5398 10.3768 39.9998 10.3768C47.8032 10.3768 54.9032 13.3568 60.2365 18.2434C60.1098 18.2368 59.9832 18.2168 59.8465 18.2168C56.9032 18.2168 54.8132 20.7834 54.8132 23.5368C54.8132 26.0068 56.2365 28.1001 57.7565 30.5634C58.8998 32.5667 60.2298 35.1301 60.2298 38.8334C60.2298 41.3768 59.2465 44.3734 57.9465 48.4967L54.9598 58.4534L44.1265 26.2034L44.1332 26.2501ZM39.9998 70.2901C37.1341 70.2929 34.2828 69.8843 31.5332 69.0767L40.5232 42.9501L49.7332 68.1901C49.8032 68.3368 49.8732 68.4734 49.9498 68.6034C46.7523 69.7247 43.3882 70.2973 39.9998 70.2968V70.2901ZM10.0332 40.3368C10.0283 36.1349 10.9121 31.9796 12.6265 28.1434L26.9165 67.3067C21.8547 64.849 17.5869 61.0162 14.6011 56.2467C11.6154 51.4772 10.0324 45.9637 10.0332 40.3368ZM39.9998 7.00342C21.6232 7.00342 6.6665 21.9601 6.6665 40.3368C6.6665 58.7134 21.6232 73.6701 39.9998 73.6701C58.3765 73.6701 73.3332 58.7134 73.3332 40.3368C73.3332 21.9601 58.3765 7.00342 39.9998 7.00342Z" fill="#0FB575"/>
</svg>
