<svg width="80" height="80" viewBox="0 0 80 80" fill="none" xmlns="http://www.w3.org/2000/svg">
<path d="M48.2998 69.7901L66.2365 65.9034C66.2365 65.9034 59.7665 22.1101 59.7132 21.8201C59.6598 21.5334 59.4265 21.3401 59.1865 21.3401C58.9465 21.3401 54.3898 21.0034 54.3898 21.0034C54.3898 21.0034 51.2265 17.8401 50.8432 17.5034C50.7532 17.4067 50.6532 17.3601 50.5565 17.3101L48.2998 69.7901ZM49.7865 17.2167C49.7332 17.2167 49.6432 17.2634 49.5965 17.2634C49.5432 17.2634 48.8732 17.4601 47.8198 17.7901C46.7598 14.7267 44.8898 11.8967 41.5832 11.8967H41.2965C40.3332 10.6934 39.1865 10.1667 38.1765 10.1667C30.4565 10.1667 26.7565 19.8067 25.6098 24.6967C22.6365 25.6134 20.4832 26.2834 20.2332 26.3801C18.5532 26.9067 18.5098 26.9534 18.3198 28.5401C18.1298 29.6867 13.7632 63.5034 13.7632 63.5034L47.4865 69.8334L49.7865 17.2167ZM41.0032 19.5634V19.9034C39.1398 20.4801 37.0765 21.1034 35.0598 21.7267C36.2132 17.3167 38.3665 15.1534 40.2365 14.3367C40.7232 15.5867 41.0032 17.2634 41.0032 19.5634ZM37.9365 12.2301C38.2698 12.2301 38.6065 12.3234 38.9465 12.5701C36.5065 13.7167 33.8165 16.6434 32.7098 22.4967C31.1481 22.9963 29.5802 23.4763 28.0065 23.9367C29.3032 19.4734 32.4232 12.2301 37.9365 12.2301ZM39.2765 38.2701C39.2765 38.2701 37.2632 37.2201 34.8698 37.2201C31.2698 37.2201 31.1265 39.4734 31.1265 40.0501C31.1265 43.1201 39.1865 44.3167 39.1865 51.5601C39.1865 57.2667 35.5865 60.9134 30.6965 60.9134C24.8432 60.9134 21.8698 57.2667 21.8698 57.2667L23.4532 52.0867C23.4532 52.0867 26.5265 54.7267 29.1098 54.7267C29.4201 54.7393 29.7297 54.6892 30.0202 54.5793C30.3107 54.4695 30.576 54.3022 30.8003 54.0875C31.0247 53.8728 31.2034 53.6151 31.3259 53.3297C31.4484 53.0444 31.5121 52.7373 31.5132 52.4267C31.5132 48.3967 24.8932 48.2001 24.8932 41.5867C24.8932 36.0234 28.8765 30.6034 36.9832 30.6034C40.1032 30.6034 41.6332 31.5101 41.6332 31.5101L39.2765 38.2701ZM42.3498 14.0001C44.0765 14.2001 45.1832 16.1601 45.8965 18.3701C45.0365 18.6601 44.0732 18.9467 43.0198 19.2801V18.6567C43.0198 16.7867 42.7798 15.2501 42.3498 14.0001Z" fill="#0FB575"/>
</svg>
