<svg width="80" height="80" viewBox="0 0 80 80" fill="none" xmlns="http://www.w3.org/2000/svg">
<path d="M6.75663 56.7433C6.95997 56.4166 7.27663 56.3933 7.71997 56.6766C17.8366 62.5433 28.8466 65.4933 40.74 65.4933C48.6766 65.4933 56.5066 64.0033 64.2433 61.0533L65.1166 60.6633C65.5 60.4933 65.7666 60.3833 65.93 60.2999C66.56 60.0533 67.0166 60.1766 67.39 60.6633C67.73 61.1399 67.6433 61.5933 67.0566 61.9966C66.3466 62.5233 65.39 63.1366 64.2566 63.8133C60.8 65.8766 56.9133 67.4733 52.6166 68.6166C48.5179 69.7187 44.2942 70.2879 40.05 70.3099C33.7533 70.3099 27.7833 69.2099 22.1533 67.0099C16.5991 64.8359 11.4827 61.6775 7.04997 57.6866C6.76997 57.4833 6.6333 57.2766 6.6333 57.0733C6.6333 56.9433 6.68663 56.8266 6.76997 56.7099L6.75663 56.7433ZM25.02 39.4466C25.02 36.6466 25.71 34.2633 27.0833 32.2733C28.4633 30.2999 30.34 28.8033 32.76 27.7866C34.98 26.8499 37.6433 26.1866 40.86 25.7799C41.9466 25.6566 43.73 25.4933 46.1933 25.2966V24.2633C46.1933 21.6866 45.9133 19.9333 45.3666 19.0499C44.5266 17.8533 43.2 17.2466 41.3566 17.2466H40.8566C39.5233 17.3766 38.37 17.7866 37.3933 18.5233C36.4131 19.2758 35.7439 20.3626 35.5133 21.5766C35.35 22.4099 34.94 22.8666 34.31 22.9966L27.2933 22.1166C26.5966 21.9466 26.2566 21.6166 26.2566 21.0299C26.2566 20.9066 26.2766 20.7833 26.3166 20.6199C27.0133 17.0266 28.7 14.3499 31.3833 12.6066C34.0966 10.8933 37.2233 9.89327 40.81 9.68994H42.3133C46.91 9.68994 50.5433 10.8933 53.1266 13.2766C53.51 13.6866 53.8833 14.1099 54.26 14.6033C54.5933 15.0666 54.8866 15.4833 55.04 15.8599C55.25 16.2299 55.4633 16.7766 55.5866 17.4433C55.7566 18.1533 55.88 18.6166 55.9633 18.8633C56.04 19.1499 56.1333 19.6966 56.1766 20.5766C56.1966 21.4499 56.23 21.9433 56.23 22.1133V36.7999C56.23 37.8466 56.3933 38.8066 56.6866 39.6833C56.98 40.5499 57.2666 41.1866 57.56 41.5599L58.9866 43.4299C59.2002 43.7263 59.3282 44.0757 59.3566 44.4399C59.3566 44.7799 59.1933 45.0666 58.8633 45.3066C55.5233 48.2299 53.6866 49.8133 53.4 50.0666C52.9433 50.4433 52.3566 50.4833 51.65 50.1966C51.1368 49.7643 50.6483 49.3035 50.1866 48.8166L49.3266 47.8466C49.1566 47.6366 48.8566 47.2666 48.44 46.6733L47.6066 45.4633C45.3533 47.9299 43.1466 49.4799 40.9333 50.1066C39.5533 50.5233 37.8866 50.7333 35.8366 50.7333C32.75 50.7333 30.1666 49.7833 28.16 47.8566C26.1666 45.9366 25.16 43.2266 25.16 39.6799L25.0166 39.4699L25.02 39.4466ZM35.4566 38.2233C35.4566 39.8066 35.8466 41.0633 36.64 42.0199C37.4266 42.9699 38.5166 43.4466 39.8566 43.4466C39.9733 43.4466 40.15 43.4199 40.39 43.3866C40.65 43.3466 40.76 43.3199 40.86 43.3199C42.5666 42.8766 43.8666 41.7833 44.8233 40.0466C45.2853 39.2615 45.6216 38.409 45.82 37.5199C46.0733 36.6266 46.1533 35.8733 46.19 35.2999C46.2433 34.7466 46.2433 33.7899 46.2433 32.4999V30.9966C43.9 30.9966 42.11 31.1599 40.8966 31.4899C37.3533 32.4999 35.55 34.7466 35.55 38.2533L35.4533 38.1999V38.2233H35.4566ZM60.9433 57.7733C61.0266 57.6033 61.1533 57.4666 61.3066 57.2966C62.31 56.6266 63.2933 56.1566 64.23 55.9099C65.6963 55.533 67.1976 55.3085 68.71 55.2399C69.1 55.2066 69.49 55.2399 69.8633 55.3233C71.66 55.4933 72.7733 55.7933 73.12 56.2333C73.2966 56.4933 73.3666 56.8699 73.3666 57.3266V57.7433C73.3666 59.1633 72.9766 60.8299 72.2066 62.7499C71.4366 64.6699 70.3633 66.2199 68.9966 67.4233C68.7933 67.5866 68.6133 67.6699 68.45 67.6699C68.3666 67.6699 68.28 67.6699 68.2033 67.6366C67.95 67.5133 67.9033 67.3033 68.02 66.9666C69.5233 63.4633 70.26 61.0099 70.26 59.6299C70.26 59.2066 70.1766 58.8733 70.0133 58.6666C69.6166 58.2099 68.49 57.9433 66.6133 57.9433C65.8041 57.9554 64.9958 57.9987 64.19 58.0733C63.18 58.2099 62.25 58.3333 61.41 58.4566C61.1633 58.4566 61 58.4099 60.91 58.3333C60.8266 58.2499 60.8066 58.2033 60.85 58.1199C60.85 58.0733 60.87 58.0366 60.91 57.9433V57.7799L60.9433 57.7733Z" fill="#0FB575"/>
</svg>
