<svg width="80" height="80" viewBox="0 0 80 80" fill="none" xmlns="http://www.w3.org/2000/svg">
<path d="M58.9332 18.2334H73.3332V26.6667H58.9332V18.2334ZM58.9332 29.9334H73.3332V38.3667H58.9332V29.9334ZM58.9332 41.6334H73.3332V50.0667H58.9332V41.6334ZM6.6665 53.3334H21.0665V61.7667H6.6665V53.3334ZM24.0665 53.3334H38.4665V61.7667H24.0665V53.3334ZM41.4998 53.3334H55.8998V61.7667H41.4998V53.3334ZM58.9332 53.3334H73.3332V61.7667H58.9332V53.3334ZM41.4998 41.6334H55.8998V50.0667H41.4998V41.6334ZM24.0665 41.6334H38.4665V50.0667H24.0665V41.6334ZM24.0665 29.9334H38.4665V38.3667H24.0665V29.9334Z" fill="#0FB575"/>
</svg>
