<svg width="58" height="58" viewBox="0 0 58 58" fill="none" xmlns="http://www.w3.org/2000/svg">
<path d="M48.3335 9.66667H9.66683C8.38495 9.66667 7.15557 10.1759 6.24915 11.0823C5.34272 11.9887 4.8335 13.2181 4.8335 14.5V43.5C4.8335 44.7819 5.34272 46.0113 6.24915 46.9177C7.15557 47.8241 8.38495 48.3333 9.66683 48.3333H48.3335C49.6154 48.3333 50.8448 47.8241 51.7512 46.9177C52.6576 46.0113 53.1668 44.7819 53.1668 43.5V14.5C53.1668 13.2181 52.6576 11.9887 51.7512 11.0823C50.8448 10.1759 49.6154 9.66667 48.3335 9.66667ZM48.3335 21.025L29.0002 33.9155L9.66683 21.025V15.2178L29.0002 28.1058L48.3335 15.2178V21.025Z" fill="#0FB575"/>
</svg>
