<svg width="64" height="64" viewBox="0 0 64 64" fill="none" xmlns="http://www.w3.org/2000/svg">
<path d="M32.0002 5.33334C17.2962 5.33334 5.3335 17.296 5.3335 32C5.3335 46.704 17.2962 58.6667 32.0002 58.6667C46.7042 58.6667 58.6668 46.704 58.6668 32C58.6668 17.296 46.7042 5.33334 32.0002 5.33334ZM34.6668 48H29.3335V42.6667H34.6668V48ZM37.2695 34.9733C36.7468 35.3947 36.2428 35.7973 35.8428 36.1973C34.7548 37.2827 34.6695 38.2693 34.6668 38.312V38.6667H29.3335V38.2213C29.3335 37.9067 29.4108 35.0827 32.0695 32.424C32.5895 31.904 33.2348 31.376 33.9122 30.8267C35.8695 29.24 37.1548 28.0827 37.1548 26.488C37.1238 25.1409 36.5668 23.8593 35.603 22.9177C34.6392 21.976 33.345 21.4489 31.9975 21.4493C30.65 21.4496 29.3562 21.9773 28.3928 22.9195C27.4295 23.8617 26.8731 25.1435 26.8428 26.4907H21.5095C21.5095 20.7067 26.2162 16 32.0002 16C37.7842 16 42.4908 20.7067 42.4908 26.4907C42.4908 30.7493 39.3468 33.2907 37.2695 34.9733Z" fill="#0FB575"/>
</svg>
