<svg width="90" height="85" viewBox="0 0 90 85" fill="none" xmlns="http://www.w3.org/2000/svg">
<path d="M75.975 27.6251C74.4829 25.1331 72.351 23.0355 69.7757 21.5254C67.2004 20.0153 64.2643 19.1412 61.2375 18.9834C57.6708 19.1321 54.284 20.5047 51.7125 22.8438C49.5863 24.6621 47.6752 26.6927 46.0125 28.9001C44.2132 26.6676 42.1639 24.6252 39.9 22.8084C36.9063 20.3451 33.0707 18.9866 29.1 18.9834C25.9315 19.1963 22.8721 20.1659 20.209 21.8014C17.5459 23.4368 15.3664 25.6845 13.875 28.3334C9.71645 34.7262 7.51018 42.0805 7.50004 49.5834C7.48182 51.5379 7.7084 53.4875 8.17504 55.3917C8.55166 57.0898 9.22323 58.7174 10.1625 60.2084C11.2945 62.0474 12.9469 63.5518 14.9342 64.5528C16.9215 65.5538 19.1649 66.0117 21.4125 65.875C26.1 65.875 29.625 63.8917 33.7875 58.7917C36.9062 54.7576 39.6776 50.494 42.075 46.0417L44.4375 42.0751C44.6625 41.7563 44.85 41.4376 45.0375 41.1188L45.6 42.0042L52.3125 52.6292C54.461 56.1714 57.041 59.464 60 62.4396C61.244 63.6275 62.7375 64.5563 64.3844 65.1663C66.0313 65.7762 67.7952 66.0539 69.5625 65.9813C71.4067 66.0488 73.2402 65.6867 74.9013 64.927C76.5624 64.1673 78 63.0333 79.0875 61.625C79.3387 61.3111 79.5644 60.9796 79.7625 60.6334C80.2169 59.9224 80.6058 59.1759 80.925 58.4021L81.375 57.1625C81.8782 55.8515 82.2547 54.5002 82.5 53.125C82.5695 51.9454 82.5695 50.763 82.5 49.5834C82.659 41.8172 80.3894 34.1791 75.975 27.6251ZM38.025 40.2334C35.625 43.7751 32.1375 49.123 29.1375 53.0188C25.3875 57.8709 23.475 58.3667 21.375 58.3667C20.4995 58.3822 19.636 58.173 18.8765 57.7613C18.117 57.3496 17.49 56.751 17.0625 56.0292C16.0121 54.1825 15.507 52.1029 15.6 50.0084C15.5161 43.6283 17.3075 37.3512 20.775 31.8751C21.5857 30.4369 22.7592 29.2095 24.1915 28.3015C25.6239 27.3934 27.2711 26.8327 28.9875 26.6688C30.6541 26.7423 32.2825 27.1649 33.7548 27.9061C35.2271 28.6473 36.5064 29.6885 37.5 30.9542C38.845 32.4302 40.0971 33.9794 41.25 35.5938L38.025 40.2334ZM69.6 58.3667C67.8 58.3667 66.4125 57.6938 64.425 55.4271C61.1933 51.2961 58.2375 46.9787 55.575 42.5001L53.625 39.4542C52.275 37.2938 50.9625 35.3459 49.875 33.6105C50.0654 33.279 50.2784 32.9596 50.5125 32.6542C54.0375 27.7313 57.15 24.9688 61.0125 24.9688C62.9659 25.1313 64.8447 25.7548 66.4763 26.7821C68.1079 27.8094 69.44 29.2075 70.35 30.848C73.8736 36.5852 75.6514 43.1298 75.4875 49.7605C75.3375 54.4001 74.2125 58.3667 69.6 58.3667Z" fill="#0FB575"/>
</svg>
