<svg width="80" height="81" viewBox="0 0 80 81" fill="none" xmlns="http://www.w3.org/2000/svg">
<path d="M62.4332 18.0713L58.1665 21.4117L39.9998 34.94L21.8332 21.2781L17.5665 17.9377C16.5614 17.1045 15.3343 16.585 14.0375 16.4438C12.7406 16.3025 11.4309 16.5456 10.2705 17.143C9.1102 17.7404 8.15026 18.6658 7.50964 19.8046C6.86902 20.9433 6.57587 22.2454 6.66651 23.5495V62.264C6.66651 63.4688 7.14412 64.6243 7.99429 65.4763C8.84445 66.3282 9.99752 66.8069 11.1998 66.8069H21.8332V41.0195L39.9998 54.6814L58.1665 41.0195V66.8069H68.7998C70.0022 66.8069 71.1552 66.3282 72.0054 65.4763C72.8556 64.6243 73.3332 63.4688 73.3332 62.264V23.5495C73.3958 22.2567 73.0822 20.9734 72.4307 19.8558C71.7791 18.7382 70.8176 17.8343 69.6631 17.2541C68.5085 16.6738 67.2106 16.4421 65.9271 16.5872C64.6435 16.7323 63.4297 17.2479 62.4332 18.0713Z" fill="#0FB575"/>
</svg>
