<svg width="86" height="93" viewBox="0 0 86 93" fill="none" xmlns="http://www.w3.org/2000/svg">
<path d="M18.1926 36.3758C18.1926 33.3833 18.6799 30.5562 19.6403 27.9175C20.5578 25.3546 21.921 23.0024 23.6572 20.9862C25.3899 18.9965 27.3726 17.2759 29.5482 15.8743C31.7803 14.4247 34.1968 13.3312 36.722 12.6279C39.2777 11.9075 41.9093 11.5442 44.5516 11.547C48.633 11.547 52.4314 12.474 55.9538 14.3203C59.4302 16.1329 62.3892 18.9147 64.5215 22.3748C66.7217 25.8943 67.8146 29.8753 67.8146 34.3141C67.8146 36.9759 67.5709 39.5799 67.0729 42.1263C66.5838 44.6712 65.8064 47.1423 64.758 49.4845C63.7588 51.7518 62.4522 53.8478 60.8809 55.7042C59.3016 57.5311 57.3891 58.9897 55.2622 59.9892C52.9531 61.0754 50.4552 61.6222 47.9343 61.5931C46.182 61.5931 44.4334 61.1508 42.7062 60.2623C40.979 59.3776 39.7392 58.1621 38.9939 56.6043C38.7323 57.6851 38.3739 59.2468 37.8974 61.2893C37.4387 63.3279 37.1305 64.6434 36.9944 65.2396C36.851 65.8319 36.5859 66.8205 36.1989 68.1898C35.9364 69.2027 35.5997 70.1918 35.1919 71.1477L33.9593 73.7402C33.4262 74.8527 32.8302 75.9291 32.1748 76.9635C31.5262 77.9713 30.7235 79.1752 29.7668 80.56L29.2329 80.7638L28.8781 80.3484C28.4947 75.9904 28.2976 73.3825 28.2976 72.5209C28.2976 69.9707 28.5807 67.1089 29.1397 63.9318C29.6879 60.7585 30.5551 56.7697 31.7197 51.9732C32.8843 47.1805 33.5508 44.361 33.7299 43.5264C32.9094 41.7301 32.4937 39.3837 32.4937 36.4989C32.4937 34.1949 33.1638 32.037 34.5075 30.0061C35.8549 27.9829 37.5569 26.9713 39.6209 26.9713C41.2012 26.9713 42.4267 27.5328 43.3046 28.6599C44.1861 29.783 44.6161 31.1985 44.6161 32.9256C44.6161 34.7565 44.0499 37.4067 42.9104 40.8723C41.7709 44.3418 41.2048 46.9305 41.2048 48.6498C41.2048 50.3923 41.7853 51.8501 42.9463 52.9925C44.092 54.1354 45.6072 54.7549 47.171 54.7195C48.59 54.7195 49.9051 54.3733 51.127 53.6771C52.3298 53.0013 53.371 52.0364 54.1693 50.8577C55.908 48.2971 57.1475 45.3862 57.8135 42.2994C58.1575 40.6762 58.4227 39.1337 58.5875 37.6836C58.7631 36.2258 58.8384 34.8488 58.8384 33.541C58.8384 28.7445 57.4194 25.0057 54.5993 22.3286C51.7649 19.6515 48.074 18.3206 43.5339 18.3206C38.3704 18.3206 34.0524 20.113 30.5945 23.7095C27.133 27.2944 25.3915 31.8524 25.3915 37.3798C25.3915 38.5991 25.5635 39.7761 25.8896 40.9146C26.2085 42.0493 26.5561 42.9532 26.9324 43.6225C27.305 44.2803 27.6562 44.9226 27.9751 45.515C28.2976 46.1073 28.466 46.5304 28.466 46.7843C28.466 47.5613 28.2761 48.5729 27.8927 49.823C27.4949 51.0731 27.0255 51.6962 26.4594 51.6962C26.4056 51.6962 26.1834 51.6539 25.7964 51.5654C24.4561 51.1359 23.2457 50.333 22.2884 49.2383C21.2723 48.1038 20.4704 46.7689 19.9269 45.3073C19.3851 43.8508 18.963 42.3462 18.6656 40.8108C18.3443 39.3579 18.1855 37.8691 18.1926 36.3758Z" fill="#0FB575"/>
</svg>
