<svg width="74" height="74" viewBox="0 0 74 74" fill="none" xmlns="http://www.w3.org/2000/svg">
<path d="M55.5066 9.24072H18.4974C16.0442 9.24805 13.6937 10.226 11.9593 11.961C10.2249 13.6959 9.24772 16.0468 9.24121 18.5V55.5061C9.25015 57.958 10.2283 60.3068 11.9623 62.0403C13.6964 63.7737 16.0455 64.7511 18.4974 64.7592H55.5066C57.958 64.7503 60.3063 63.7725 62.0397 62.0392C63.773 60.3058 64.7508 57.9575 64.7597 55.5061V18.5C64.7524 16.0476 63.7754 13.6976 62.0418 11.9629C60.3083 10.2283 57.959 9.24967 55.5066 9.24072ZM50.45 48.2356C49.9813 49.3456 49.2505 50.3323 48.3132 51.0939C47.2048 51.9547 45.9429 52.5972 44.5947 52.9871C43.0839 53.4526 41.2832 53.6931 39.1989 53.6931H24.3218V21.3027H40.056C42.9636 21.3027 45.2977 21.9595 47.046 23.2946C48.8004 24.6389 49.6791 26.6307 49.6791 29.3317C49.6791 30.9597 49.2783 32.3626 48.4797 33.5158C47.6811 34.6659 46.5372 35.5631 45.0541 36.1921V36.297C47.0336 36.7132 48.5599 37.6475 49.5681 39.109C50.5764 40.5674 51.0882 42.4051 51.0882 44.6251C51.0882 45.8738 50.8477 47.0547 50.3945 48.1616L50.4561 48.2264V48.2356H50.45ZM44.0243 40.2529C43.0715 39.3834 41.7457 38.961 40.0252 38.961H30.0229V49.062H40.053C41.7611 49.062 43.1085 48.618 44.0551 47.7207C45.0048 46.8296 45.4858 45.5593 45.4858 43.9313C45.4704 42.3341 45.0048 41.0977 44.0551 40.2529H44.012H44.0243ZM42.6337 33.7193C43.5556 32.9454 44.0027 31.8292 44.0027 30.377C44.0027 28.7551 43.5988 27.5958 42.7786 26.936C41.9646 26.2761 40.7868 25.9308 39.2451 25.9308H29.992V34.8663H39.2451C40.5895 34.8694 41.7426 34.4747 42.6337 33.7193Z" fill="#0FB575"/>
</svg>
