<svg width="79" height="79" viewBox="0 0 79 79" fill="none" xmlns="http://www.w3.org/2000/svg">
<path d="M61.7188 9.875H17.2812C15.317 9.875 13.4332 10.6553 12.0442 12.0442C10.6553 13.4332 9.875 15.317 9.875 17.2812V61.7188C9.875 63.683 10.6553 65.5668 12.0442 66.9558C13.4332 68.3447 15.317 69.125 17.2812 69.125H61.7188C63.683 69.125 65.5668 68.3447 66.9558 66.9558C68.3447 65.5668 69.125 63.683 69.125 61.7188V17.2812C69.125 15.317 68.3447 13.4332 66.9558 12.0442C65.5668 10.6553 63.683 9.875 61.7188 9.875ZM35.6488 54.7569C35.6488 55.6997 35.2742 56.604 34.6075 57.2706C33.9408 57.9373 33.0366 58.3119 32.0938 58.3119H21.1325C20.1897 58.3119 19.2854 57.9373 18.6187 57.2706C17.952 56.604 17.5775 55.6997 17.5775 54.7569V21.1325C17.5775 19.1674 19.1674 17.5775 21.1325 17.5775H32.0938C34.0556 17.5775 35.6488 19.1674 35.6488 21.1325V54.7569ZM61.4225 39.9444C61.4225 40.8872 61.048 41.7914 60.3813 42.4581C59.7146 43.1248 58.8103 43.4994 57.8675 43.4994H46.9062C45.9634 43.4994 45.0592 43.1248 44.3925 42.4581C43.7258 41.7914 43.3512 40.8872 43.3512 39.9444V21.1325C43.3512 19.1674 44.9444 17.5775 46.9062 17.5775H57.8675C59.8326 17.5775 61.4225 19.1674 61.4225 21.1325V39.9444Z" fill="#0FB575"/>
</svg>
