<svg width="78" height="78" viewBox="0 0 78 78" fill="none" xmlns="http://www.w3.org/2000/svg">
<path d="M20.865 32.0776L39 67.5351L57.135 32.0776H20.865ZM19.175 13.0326L6.5 30.0301H18.265L19.175 13.0326ZM39 11.1151L21.5475 30.0301H56.4525L39 11.1151ZM6.63 32.0776L36.1725 66.4626L18.59 32.0776H6.63ZM37.4725 9.75006H36.985L21.255 11.4076C21.2703 11.4606 21.2703 11.517 21.255 11.5701L20.3775 28.3076L37.4725 9.75006ZM41.8275 66.4626L71.37 32.0776H59.41L41.8275 66.4626ZM56.7125 11.6351C56.6972 11.582 56.6972 11.5256 56.7125 11.4726L43.7125 10.1076L40.4625 9.75006L57.5575 28.3076L56.7125 11.6351ZM58.825 13.0326L59.735 30.0301H71.5L64.285 20.3451L58.825 13.0326Z" fill="#0FB575"/>
</svg>
