<svg width="85" height="85" viewBox="0 0 85 85" fill="none" xmlns="http://www.w3.org/2000/svg">
<path d="M10.625 10.625H74.375V74.375H10.625V10.625ZM69.151 59.1706C68.6871 56.2629 66.7923 53.8192 61.1752 51.5383C59.2202 50.621 57.0492 49.9871 56.3975 48.5138C56.1567 47.6354 56.1213 47.1608 56.2771 46.6402C56.6773 44.926 58.7102 44.4125 60.304 44.8871C61.3417 45.2058 62.2979 46.0027 62.8965 47.2813C65.6413 45.4856 65.6413 45.4856 67.5573 44.2921C66.8383 43.18 66.4806 42.6948 66.0025 42.2167C64.3273 40.3467 62.096 39.3904 58.4729 39.4719L56.6029 39.7092C54.8073 40.1483 53.0931 41.1081 52.059 42.3796C49.0308 45.8079 49.9056 51.7827 53.5713 54.2583C57.1944 56.9677 62.4998 57.5627 63.1763 60.1127C63.8137 63.2223 60.8671 64.2175 57.9523 63.8598C55.8025 63.3781 54.6054 62.305 53.2915 60.311L48.4323 63.1019C48.9883 64.3733 49.6258 64.9329 50.5821 66.0485C55.204 70.7094 66.7604 70.4721 68.8323 63.3781C68.9067 63.1408 69.4698 61.5081 69.0306 58.9971L69.151 59.1706ZM45.2908 39.9252H39.3196C39.3196 45.0713 39.2948 50.189 39.2948 55.3456C39.2948 58.6181 39.4613 61.6215 38.9265 62.5458C38.0517 64.3769 35.7885 64.1431 34.765 63.8173C33.7131 63.3002 33.1783 62.5813 32.5585 61.5471C32.3921 61.2708 32.2681 61.03 32.2221 61.03L27.3771 64.0192C28.1881 65.6944 29.371 67.1323 30.8975 68.046C33.1677 69.4025 36.2171 69.8417 39.4117 69.1263C41.4942 68.5242 43.2898 67.2881 44.2213 65.3756C45.5812 62.9071 45.2908 59.8754 45.2802 56.4896C45.3085 51.0319 45.2802 45.5706 45.2802 40.074L45.2908 39.9252Z" fill="#0FB575"/>
</svg>
