<svg width="45" height="45" viewBox="0 0 45 45" fill="none" xmlns="http://www.w3.org/2000/svg">
<path d="M37.5 5.625H7.5C7.00272 5.625 6.52581 5.82254 6.17417 6.17417C5.82254 6.52581 5.625 7.00272 5.625 7.5V37.5C5.625 37.9973 5.82254 38.4742 6.17417 38.8258C6.52581 39.1775 7.00272 39.375 7.5 39.375H23.6531V26.325H19.2694V21.2156H23.6531V17.4656C23.6531 13.1062 26.3156 10.7306 30.2156 10.7306C31.5262 10.7269 32.8387 10.7944 34.1437 10.9312V15.4688H31.4531C29.3381 15.4688 28.9256 16.4775 28.9256 17.9531V21.2063H33.9825L33.3263 26.3156H28.9237V39.375H37.5C37.9973 39.375 38.4742 39.1775 38.8258 38.8258C39.1775 38.4742 39.375 37.9973 39.375 37.5V7.5C39.375 7.00272 39.1775 6.52581 38.8258 6.17417C38.4742 5.82254 37.9973 5.625 37.5 5.625Z" fill="#1F253D"/>
</svg>
