<svg width="45" height="47" viewBox="0 0 45 47" fill="none" xmlns="http://www.w3.org/2000/svg">
<path fill-rule="evenodd" clip-rule="evenodd" d="M22.5489 3.91663C12.2195 3.91663 3.84766 12.6606 3.84766 23.449C3.84766 32.0775 9.20453 39.3997 16.637 41.9847C17.5727 42.1609 17.9102 41.5597 17.9102 41.0427C17.9102 40.5786 17.8952 39.3487 17.8895 37.7214C12.6864 38.9003 11.5877 35.1011 11.5877 35.1011C10.7402 32.8451 9.51203 32.2439 9.51203 32.2439C7.81516 31.0317 9.64141 31.0591 9.64141 31.0591C11.5202 31.1962 12.5045 33.0723 12.5045 33.0723C14.1733 36.0568 16.8845 35.1951 17.9458 34.6957C18.1164 33.4326 18.6039 32.571 19.1364 32.0833C14.9852 31.5918 10.6202 29.9155 10.6202 22.4287C10.6202 20.3 11.3495 18.5532 12.5402 17.1902C12.3508 16.6947 11.7039 14.707 12.7258 12.0202C12.7258 12.0202 14.2952 11.4934 17.867 14.0197C19.3925 13.5862 20.9661 13.365 22.547 13.3617C24.128 13.3643 25.7017 13.5856 27.227 14.0197C30.8008 11.4915 32.3683 12.0202 32.3683 12.0202C33.3902 14.707 32.7489 16.6947 32.5539 17.1902C33.7539 18.5532 34.4739 20.2981 34.4739 22.4287C34.4739 29.935 30.1052 31.584 25.9389 32.0677C26.6045 32.6708 27.2045 33.8615 27.2045 35.6827C27.2045 38.2952 27.182 40.4023 27.182 41.0427C27.182 41.5656 27.5158 42.1727 28.4702 41.9807C35.8989 39.3918 41.2502 32.0755 41.2502 23.449C41.2502 12.6606 32.8783 3.91663 22.5489 3.91663Z" fill="#1F253D"/>
</svg>
