<svg width="566" height="366" viewBox="0 0 566 366" fill="none" xmlns="http://www.w3.org/2000/svg">
<path d="M17.9385 280.904C20.7435 252.351 37.6969 223.85 64.6718 213.88C54.7041 243.453 55.5465 275.588 67.0502 304.601C71.5274 315.774 77.6737 327.736 74.037 339.209C71.7743 346.348 65.928 351.916 59.3233 355.475C52.7182 359.033 45.3319 360.84 38.0377 362.611L36.6252 363.84C24.2946 337.919 15.1335 309.456 17.9385 280.904Z" fill="#F0F0F0"/>
<path d="M64.956 214.411C49.7255 232.339 40.1396 255.235 38.4635 278.707C38.1011 283.782 38.1764 288.961 39.4164 293.921C40.6623 298.747 43.1813 303.152 46.7117 306.679C49.9371 310.033 53.6259 313.092 55.9777 317.169C58.4565 321.467 58.6769 326.418 57.179 331.091C55.3462 336.809 51.5628 341.528 47.7021 346.016C43.4155 350.998 38.884 356.105 37.1765 362.607C36.9696 363.395 35.756 363.028 35.9625 362.242C38.9333 350.93 49.695 344.269 54.6424 334.021C56.9509 329.239 57.8285 323.735 55.4184 318.813C53.3109 314.51 49.5096 311.352 46.2143 307.984C42.7542 304.448 40.0699 300.539 38.6151 295.775C37.127 290.903 36.8485 285.715 37.0792 280.654C37.6881 269.18 40.1022 257.873 44.2332 247.146C48.8798 234.879 55.5964 223.494 64.0926 213.485C64.6187 212.866 65.4787 213.796 64.956 214.411L64.956 214.411Z" fill="white"/>
<path d="M38.6045 271.049C34.6631 270.202 31.1518 267.986 28.6976 264.796C26.2433 261.606 25.006 257.65 25.2066 253.635C25.2163 253.471 25.2893 253.317 25.4103 253.206C25.5313 253.095 25.6907 253.035 25.8551 253.039C26.0195 253.043 26.176 253.111 26.2915 253.227C26.407 253.344 26.4726 253.501 26.4745 253.665C26.2808 257.404 27.4337 261.089 29.7251 264.055C32.0166 267.02 35.2957 269.072 38.9705 269.838C39.7689 270.006 39.3983 271.215 38.6045 271.049Z" fill="white"/>
<path d="M44.8517 305.193C51.8154 300.797 56.8618 293.945 58.9846 286.003C59.1942 285.216 60.4079 285.582 60.1985 286.368C57.974 294.628 52.7079 301.748 45.4512 306.307C44.7593 306.741 44.1634 305.625 44.8517 305.193Z" fill="white"/>
<path d="M50.0871 236.045C51.5436 236.69 53.1379 236.963 54.7267 236.841C56.3155 236.72 57.849 236.206 59.1896 235.347C59.8757 234.904 60.4708 236.022 59.7892 236.461C58.3036 237.403 56.6093 237.968 54.8542 238.107C53.0991 238.246 51.3368 237.953 49.721 237.256C49.5632 237.203 49.4315 237.092 49.3528 236.946C49.2741 236.799 49.2541 236.629 49.2971 236.468C49.3463 236.308 49.457 236.174 49.6049 236.095C49.7528 236.016 49.9261 235.998 50.0871 236.045H50.0871Z" fill="white"/>
<path d="M148.962 262.556C148.542 262.845 148.121 263.133 147.701 263.433C142.067 267.341 136.761 271.698 131.835 276.463C131.448 276.826 131.062 277.199 130.686 277.571C118.941 289.177 109.459 302.857 102.721 317.914C100.045 323.909 97.831 330.097 96.0969 336.427C93.7026 345.168 91.804 354.836 86.8012 362.065C86.2877 362.825 85.7275 363.553 85.1239 364.244L38.2374 365.463C38.1294 365.412 38.0212 365.372 37.9128 365.322L36.043 365.456C36.1095 365.123 36.1858 364.779 36.2523 364.447C36.2901 364.254 36.3384 364.06 36.3762 363.867C36.4047 363.738 36.4338 363.609 36.4521 363.491C36.4614 363.449 36.4713 363.406 36.4809 363.373C36.4992 363.255 36.5288 363.148 36.5475 363.041C36.9682 361.119 37.4031 359.197 37.8524 357.274C37.8521 357.263 37.8521 357.263 37.8623 357.252C41.3228 342.612 46.0393 328.131 52.8099 314.825C53.0137 314.424 53.2168 314.013 53.442 313.613C56.5273 307.631 60.0975 301.912 64.1172 296.511C66.3277 293.56 68.6866 290.724 71.1848 288.011C77.6533 281.015 85.1851 275.077 93.5039 270.414C110.089 261.123 129.469 257.224 147.582 262.165C148.045 262.292 148.499 262.419 148.962 262.556Z" fill="#F0F0F0"/>
<path d="M148.872 263.153C125.888 268.322 104.411 280.848 88.9024 298.583C85.5494 302.417 82.4827 306.597 80.478 311.303C78.5593 315.904 77.9111 320.933 78.6008 325.869C79.1512 330.484 80.25 335.141 79.666 339.808C79.0503 344.729 76.2372 348.814 72.2201 351.646C67.3051 355.11 61.4348 356.607 55.6432 357.872C49.2127 359.276 42.5112 360.633 37.2226 364.799C36.5818 365.304 35.8339 364.283 36.4737 363.779C45.6749 356.531 58.2891 357.674 68.426 352.462C73.1561 350.03 77.1799 346.162 78.2269 340.785C79.1424 336.084 78.0133 331.28 77.4156 326.613C76.7879 321.712 77.0046 316.979 78.7189 312.302C80.4726 307.518 83.3819 303.209 86.6219 299.306C94.0352 290.51 102.789 282.931 112.563 276.847C123.679 269.842 135.915 264.785 148.742 261.895C149.536 261.716 149.661 262.975 148.872 263.153H148.872Z" fill="white"/>
<path d="M93.639 292.553C91.003 289.51 89.5373 285.633 89.5035 281.612C89.4698 277.592 90.8702 273.69 93.4548 270.604C93.9799 269.982 94.9747 270.766 94.4489 271.39C92.0369 274.259 90.7327 277.893 90.7718 281.637C90.8109 285.381 92.1906 288.988 94.6621 291.806C95.1984 292.419 94.1722 293.162 93.639 292.553Z" fill="white"/>
<path d="M78.0129 323.566C86.227 324.237 94.393 321.796 100.883 316.729C101.525 316.227 102.273 317.248 101.631 317.75C94.8684 323.009 86.3652 325.532 77.8189 324.815C77.0044 324.746 77.2027 323.497 78.0128 323.566H78.0129Z" fill="white"/>
<path d="M123.939 271.499C124.713 272.888 125.821 274.063 127.163 274.92C128.505 275.777 130.04 276.287 131.629 276.406C132.444 276.465 132.245 277.714 131.435 277.656C129.68 277.516 127.986 276.95 126.501 276.007C125.016 275.064 123.785 273.772 122.916 272.246C122.822 272.109 122.784 271.941 122.809 271.777C122.835 271.613 122.922 271.464 123.053 271.362C123.189 271.264 123.359 271.223 123.524 271.249C123.69 271.274 123.839 271.364 123.939 271.499Z" fill="white"/>
<path d="M424.145 25.0516C423.445 22.9902 414.666 15.983 420.045 14.8052L424.457 20.6712L444.738 0.445312L446.778 2.47957L424.145 25.0516Z" fill="#019043"/>
<path d="M424.145 93.8282C423.445 91.7668 414.666 84.7596 420.045 83.5818L424.457 89.4478L444.738 69.2219L446.778 71.2562L424.145 93.8282Z" fill="#019043"/>
<path d="M424.145 163.587C423.445 161.526 414.666 154.519 420.045 153.341L424.457 159.207L444.738 138.981L446.778 141.015L424.145 163.587Z" fill="#019043"/>
<path d="M405.468 107.189C408.925 107.189 411.727 104.395 411.727 100.948C411.727 97.5006 408.925 94.7062 405.468 94.7062C402.012 94.7062 399.209 97.5006 399.209 100.948C399.209 104.395 402.012 107.189 405.468 107.189Z" fill="#3F3D56"/>
<path d="M405.468 39.1575C408.925 39.1575 411.727 36.3631 411.727 32.9161C411.727 29.4691 408.925 26.6747 405.468 26.6747C402.012 26.6747 399.209 29.4691 399.209 32.9161C399.209 36.3631 402.012 39.1575 405.468 39.1575Z" fill="#3F3D56"/>
<path d="M566 18.5608H465.237V19.8091H566V18.5608Z" fill="#3F3D56"/>
<path d="M408.597 179.71C412.054 179.71 414.856 176.916 414.856 173.469C414.856 170.022 412.054 167.228 408.597 167.228C405.141 167.228 402.339 170.022 402.339 173.469C402.339 176.916 405.141 179.71 408.597 179.71Z" fill="#3F3D56"/>
<path d="M566 87.3374H465.237V88.5857H566V87.3374Z" fill="#3F3D56"/>
<path d="M566 157.096H465.237V158.345H566V157.096Z" fill="#3F3D56"/>
<path d="M439.952 172.887H408.659V141.056H429.938V142.304H409.91V171.639H438.7V157.284H439.952V172.887Z" fill="#3F3D56"/>
<path d="M439.952 102.983H408.659V71.1521H429.938V72.4004H409.91V101.735H438.7V87.3798H439.952V102.983Z" fill="#3F3D56"/>
<path d="M439.952 31.8312H408.659V0H429.938V1.24828H409.91V30.5829H438.7V16.2277H439.952V31.8312Z" fill="#3F3D56"/>
<path d="M235.638 113.451C235.638 113.451 227.274 148.666 237.496 148.666C247.718 148.666 271.878 108.818 271.878 108.818L263.515 98.6239L248.504 119.408L247.718 108.818L235.638 113.451Z" fill="#A0616A"/>
<path d="M269.65 110.349C274.143 110.349 277.786 106.716 277.786 102.235C277.786 97.7535 274.143 94.1208 269.65 94.1208C265.156 94.1208 261.514 97.7535 261.514 102.235C261.514 106.716 265.156 110.349 269.65 110.349Z" fill="#A0616A"/>
<path d="M228.547 353.294L239.376 353.293L244.529 311.634L228.544 311.635L228.547 353.294Z" fill="#A0616A"/>
<path d="M228.165 364.561L261.469 364.559V364.139C261.468 360.711 260.103 357.423 257.672 354.999C255.241 352.575 251.944 351.213 248.506 351.212H248.505L242.422 346.61L231.072 351.213L228.165 351.213L228.165 364.561Z" fill="#2F2E41"/>
<path d="M112.052 339.819L121.742 344.642L145.006 309.662L130.704 302.544L112.052 339.819Z" fill="#A0616A"/>
<path d="M106.666 349.73L136.465 364.561L136.653 364.185C138.188 361.117 138.438 357.567 137.348 354.315C136.259 351.064 133.919 348.377 130.843 346.846L130.842 346.845L127.46 340.018L115.243 339.082L112.642 337.787L106.666 349.73Z" fill="#2F2E41"/>
<path d="M356.644 364.602H0V366H356.644V364.602Z" fill="#CCCCCC"/>
<path d="M158.528 177.336C158.528 177.336 154.2 229.232 153.271 240.353C152.634 247.324 151.072 254.18 148.625 260.74C148.625 260.74 146.766 264.447 146.766 268.154L125.703 306.329C125.703 306.329 119.267 311.047 120.196 314.754C121.125 318.461 116.315 320.684 116.315 320.684L138.497 324.948C138.497 324.948 137.568 322.168 140.355 321.241C143.143 320.314 145.362 312.276 145.362 312.276L176.502 261.667L198.804 215.332C198.804 215.332 211.814 257.034 214.602 261.667C214.602 261.667 224.823 313.563 226.682 318.196C228.54 322.83 229.47 322.83 228.54 324.683C227.611 326.537 227.611 328.39 228.54 329.317C229.47 330.243 247.125 329.317 247.125 329.317L242.479 263.521L234.116 184.75L191.37 171.777L158.528 177.336Z" fill="#2F2E41"/>
<path d="M200.379 53.4463C211.156 53.4463 219.893 44.7334 219.893 33.9855C219.893 23.2376 211.156 14.5247 200.379 14.5247C189.601 14.5247 180.864 23.2376 180.864 33.9855C180.864 44.7334 189.601 53.4463 200.379 53.4463Z" fill="#A0616A"/>
<path d="M235.974 81.8862L212.744 67.8501C212.744 67.8501 212.1 59.1341 205.481 58.724C202.158 58.5181 197.171 58.2033 189.688 57.7221C188.106 57.6204 187.039 66.2493 185.227 66.1322L160.705 72.6191L164.422 135.635C164.422 135.635 158.847 160.656 160.705 165.29C162.564 169.923 156.059 171.777 157.917 172.703C159.776 173.63 157.917 180.117 157.917 180.117C157.917 180.117 194.158 198.651 234.116 184.75L230.399 172.703C230.905 171.128 231 169.451 230.674 167.829C230.349 166.208 229.615 164.696 228.54 163.436C228.54 163.436 232.257 157.876 227.611 153.242C227.611 153.242 229.47 144.902 224.823 141.195L223.894 128.221L226.682 121.734L235.974 81.8862Z" fill="#E6E6E6"/>
<path d="M183.445 45.103L182.9 43.8395C182.829 43.6761 175.928 27.4064 182.045 17.3707C184.877 12.7247 190.026 10.1017 197.349 9.57506C208.806 8.74886 216.648 11.4593 220.662 17.6255C221.335 18.6705 221.714 19.8771 221.758 21.1184C221.801 22.3597 221.509 23.5898 220.911 24.6794C220.313 25.769 219.432 26.6779 218.36 27.3104C217.288 27.943 216.065 28.2758 214.82 28.274H214.666L212.561 25.548L212.438 25.8131C211.676 27.4575 209.926 28.3578 207.875 28.1606C207.527 28.1357 207.218 28.4358 206.97 29.0783C206.886 29.3593 206.728 29.6127 206.513 29.8119C206.297 30.0111 206.032 30.1488 205.744 30.2104C204.23 30.5045 202.07 28.6016 201.104 27.6532C201.066 27.8715 200.983 28.0793 200.858 28.2624C200.733 28.4456 200.57 28.5999 200.381 28.715C199.362 29.3011 197.777 28.5355 197.322 28.2917C193.697 29.0597 191.351 28.8543 190.346 27.6819C189.664 32.49 188.202 41.1445 186.448 41.6242C186.265 41.6662 186.073 41.6484 185.9 41.5732C185.728 41.4981 185.584 41.3697 185.491 41.207C185.069 40.6602 184.691 40.3878 184.456 40.4643C183.885 40.6453 183.548 42.519 183.5 43.7282L183.445 45.103Z" fill="#2F2E41"/>
<path d="M225.752 82.813L235.022 81.311C241.7 87.7093 246.248 95.9964 248.055 105.054C250.842 119.881 251.771 122.661 251.771 122.661L229.469 128.222L217.389 105.054L225.752 82.813Z" fill="#E6E6E6"/>
<path d="M184.62 102.099L178.891 174.52L325.082 186.021L330.81 113.599L184.62 102.099Z" fill="white"/>
<path d="M200.238 107.71C196.661 105.162 192.118 104.978 190.383 105.014C190.913 106.662 192.558 110.888 196.135 113.437C199.722 115.992 204.258 116.17 205.991 116.134C205.462 114.487 203.816 110.259 200.238 107.71Z" fill="#019043"/>
<path d="M214.351 153.793L190.877 151.946C190.184 151.892 189.486 151.974 188.824 152.188C188.163 152.403 187.55 152.745 187.021 153.195C186.491 153.646 186.056 154.196 185.74 154.814C185.425 155.432 185.234 156.106 185.179 156.798C185.124 157.49 185.207 158.185 185.422 158.845C185.636 159.505 185.98 160.116 186.431 160.644C186.883 161.172 187.435 161.606 188.055 161.921C188.674 162.236 189.35 162.426 190.044 162.481L213.518 164.327C214.919 164.438 216.306 163.988 217.375 163.078C218.443 162.169 219.106 160.873 219.216 159.476C219.327 158.079 218.876 156.695 217.964 155.629C217.052 154.564 215.752 153.903 214.351 153.793Z" fill="#019043"/>
<path d="M325.047 106.56L193.436 96.2051C191.905 96.0848 190.365 96.2665 188.905 96.7397C187.445 97.2128 186.092 97.9682 184.924 98.9627C183.757 99.9572 182.797 101.171 182.1 102.536C181.403 103.9 180.982 105.388 180.861 106.915L175.8 170.859C175.556 173.943 176.551 176.997 178.565 179.349C180.58 181.702 183.448 183.161 186.54 183.405L318.152 193.759C319.682 193.879 321.222 193.698 322.682 193.225C324.143 192.751 325.495 191.996 326.663 191.002C327.831 190.007 328.791 188.793 329.488 187.429C330.185 186.064 330.606 184.576 330.726 183.049L335.536 122.274L335.633 121.032L335.786 119.1C335.907 117.573 335.725 116.038 335.25 114.581C334.776 113.125 334.018 111.776 333.021 110.611C332.024 109.447 330.806 108.49 329.438 107.795C328.07 107.099 326.578 106.68 325.047 106.56ZM321.161 162.194L320.327 172.729C320.174 174.589 319.289 176.314 317.865 177.526C316.441 178.738 314.594 179.338 312.728 179.195L295.12 177.812C293.255 177.66 291.525 176.777 290.31 175.357C289.095 173.937 288.493 172.095 288.636 170.234L289.47 159.699C289.623 157.839 290.508 156.114 291.932 154.903C293.356 153.691 295.203 153.091 297.069 153.233L314.67 154.618C316.536 154.77 318.265 155.653 319.481 157.072C320.697 158.491 321.301 160.333 321.161 162.194ZM184.015 156.701C184.151 154.996 184.96 153.415 186.264 152.305C187.568 151.194 189.261 150.645 190.971 150.777L214.444 152.625C215.292 152.69 216.118 152.922 216.877 153.306C217.635 153.69 218.31 154.219 218.863 154.864C219.416 155.508 219.836 156.255 220.1 157.061C220.363 157.867 220.465 158.718 220.399 159.563C220.333 160.409 220.1 161.233 219.714 161.989C219.328 162.745 218.797 163.417 218.151 163.968C217.504 164.519 216.755 164.938 215.946 165.2C215.137 165.462 214.285 165.563 213.437 165.496L213.425 165.499L189.952 163.652C189.104 163.585 188.278 163.352 187.52 162.966C186.763 162.581 186.089 162.05 185.538 161.404C184.986 160.759 184.568 160.011 184.307 159.204C184.045 158.397 183.946 157.546 184.015 156.701ZM189.04 104.597L188.879 103.942L189.555 103.88C189.819 103.852 196.063 103.293 200.923 106.755C205.784 110.218 207.274 116.293 207.339 116.547L207.493 117.203L206.82 117.271C205.863 117.342 204.903 117.335 203.948 117.252C200.909 117.075 197.974 116.086 195.45 114.39C190.589 110.927 189.099 104.852 189.04 104.597Z" fill="#019043"/>
<path d="M301.414 169.181L293.785 168.581C293.241 168.539 292.702 168.714 292.288 169.068C291.873 169.422 291.616 169.925 291.573 170.468C291.53 171.01 291.705 171.548 292.059 171.962C292.413 172.376 292.917 172.633 293.461 172.677L301.09 173.277C301.634 173.319 302.173 173.144 302.588 172.79C303.003 172.436 303.26 171.933 303.303 171.39C303.345 170.848 303.171 170.31 302.817 169.896C302.463 169.482 301.958 169.224 301.414 169.181Z" fill="#019043"/>
<path d="M315.499 170.289L307.87 169.689C307.326 169.647 306.787 169.823 306.373 170.176C305.958 170.53 305.702 171.033 305.659 171.576C305.616 172.118 305.79 172.655 306.144 173.07C306.498 173.484 307.002 173.741 307.546 173.785L315.175 174.385C315.719 174.427 316.257 174.251 316.671 173.898C317.086 173.544 317.343 173.041 317.386 172.498C317.428 171.956 317.254 171.419 316.9 171.004C316.547 170.59 316.043 170.333 315.499 170.289Z" fill="#019043"/>
<path d="M301.831 163.914L294.202 163.313C293.658 163.272 293.119 163.447 292.705 163.801C292.291 164.155 292.034 164.658 291.991 165.201C291.948 165.743 292.122 166.28 292.476 166.694C292.83 167.109 293.334 167.366 293.878 167.41L301.507 168.01C302.051 168.052 302.59 167.877 303.004 167.523C303.419 167.169 303.676 166.666 303.719 166.123C303.762 165.581 303.587 165.043 303.233 164.629C302.879 164.214 302.375 163.957 301.831 163.914Z" fill="#019043"/>
<path d="M315.915 165.022L308.286 164.421C307.742 164.38 307.203 164.555 306.789 164.909C306.374 165.262 306.117 165.766 306.074 166.308C306.031 166.851 306.206 167.388 306.56 167.803C306.914 168.217 307.418 168.474 307.962 168.518L315.591 169.118C316.135 169.16 316.674 168.985 317.089 168.631C317.504 168.277 317.761 167.774 317.804 167.231C317.846 166.689 317.672 166.151 317.318 165.737C316.964 165.323 316.459 165.065 315.915 165.022Z" fill="#019043"/>
<path d="M302.248 158.646L294.619 158.046C294.075 158.004 293.536 158.18 293.121 158.533C292.706 158.887 292.449 159.391 292.406 159.933C292.363 160.476 292.538 161.013 292.892 161.428C293.246 161.842 293.751 162.099 294.295 162.143L301.924 162.743C302.468 162.785 303.006 162.609 303.42 162.255C303.835 161.902 304.092 161.398 304.135 160.856C304.178 160.314 304.003 159.776 303.649 159.362C303.296 158.948 302.792 158.691 302.248 158.646Z" fill="#019043"/>
<path d="M316.332 159.754L308.703 159.154C308.159 159.113 307.62 159.288 307.206 159.642C306.792 159.996 306.535 160.499 306.492 161.041C306.449 161.584 306.623 162.121 306.977 162.535C307.331 162.949 307.835 163.207 308.379 163.251L316.008 163.851C316.552 163.892 317.09 163.717 317.504 163.363C317.919 163.01 318.176 162.506 318.219 161.964C318.262 161.421 318.087 160.884 317.733 160.47C317.38 160.056 316.876 159.798 316.332 159.754Z" fill="#019043"/>
<path d="M178.905 127.091L178.807 128.336L333.301 140.439L333.399 139.194L178.905 127.091Z" fill="white"/>
<path d="M335.633 121.032L335.536 122.274L330.159 121.853L272.873 117.365L272.976 116.122L330.256 120.611L335.633 121.032Z" fill="#3F3D56"/>
<path d="M146.766 107.834C146.766 107.834 138.403 143.049 148.625 143.049C158.847 143.049 183.007 103.2 183.007 103.2L174.644 93.0066L159.633 113.79L158.847 103.2L146.766 107.834Z" fill="#A0616A"/>
<path d="M180.778 104.731C185.272 104.731 188.914 101.099 188.914 96.6175C188.914 92.1363 185.272 88.5037 180.778 88.5037C176.285 88.5037 172.642 92.1363 172.642 96.6175C172.642 101.099 176.285 104.731 180.778 104.731Z" fill="#A0616A"/>
<path d="M167.474 78.1794L161.899 72.6191C161.899 72.6191 150.748 79.1061 149.819 85.593C148.889 92.08 144.243 112.467 144.243 112.467L161.434 113.858L167.01 105.517L167.474 78.1794Z" fill="#E6E6E6"/>
</svg>
