<svg width="450" height="393" viewBox="0 0 450 393" fill="none" xmlns="http://www.w3.org/2000/svg">
<g clip-path="url(#clip0_34_1299)">
<path d="M210.595 386.347C210.756 386.354 210.915 386.312 211.051 386.226C211.186 386.14 211.293 386.014 211.355 385.865C211.417 385.716 211.431 385.552 211.397 385.395C211.363 385.238 211.281 385.095 211.163 384.985L211.11 384.771L211.131 384.72C211.293 384.337 211.564 384.011 211.91 383.782C212.256 383.553 212.663 383.431 213.077 383.433C213.492 383.434 213.897 383.559 214.242 383.79C214.587 384.022 214.855 384.35 215.014 384.734C215.649 386.267 216.458 387.802 216.657 389.423C216.745 390.139 216.708 390.866 216.548 391.569C218.039 388.309 218.814 384.765 218.819 381.178C218.819 380.278 218.769 379.378 218.669 378.484C218.587 377.751 218.472 377.023 218.326 376.3C217.526 372.377 215.81 368.701 213.317 365.573C212.111 364.913 211.135 363.899 210.521 362.667C210.299 362.223 210.142 361.751 210.055 361.262C210.32 360.564 210.459 359.823 210.466 359.076C210.655 358.788 210.995 358.644 211.202 358.363C212.232 356.963 213.651 357.208 214.392 359.11C215.975 359.91 215.991 361.238 215.019 362.514C214.401 363.327 214.317 364.426 213.774 365.296C213.83 365.367 213.888 365.437 213.944 365.508C214.964 366.822 215.852 368.233 216.597 369.72C216.416 368.054 216.632 366.368 217.228 364.802C217.832 363.342 218.964 362.112 219.961 360.85C220.224 360.511 220.582 360.258 220.989 360.123C221.397 359.988 221.834 359.977 222.248 360.091C222.661 360.205 223.032 360.44 223.312 360.765C223.593 361.09 223.771 361.491 223.824 361.918L223.83 361.973C223.682 362.057 223.537 362.146 223.395 362.24C223.217 362.359 223.079 362.53 222.999 362.729C222.919 362.928 222.901 363.147 222.948 363.356C222.994 363.566 223.102 363.757 223.259 363.903C223.415 364.05 223.612 364.146 223.824 364.179L223.845 364.182C223.793 364.717 223.699 365.247 223.567 365.767C224.845 370.723 222.085 372.527 218.143 372.609C218.056 372.653 217.971 372.698 217.884 372.74C218.632 374.866 219.102 377.08 219.281 379.327C219.382 380.652 219.376 381.984 219.263 383.308L219.27 383.262C219.555 381.789 220.339 380.46 221.489 379.499C223.198 378.093 225.611 377.575 227.454 376.444C227.65 376.318 227.878 376.251 228.111 376.251C228.344 376.25 228.572 376.316 228.768 376.441C228.965 376.566 229.121 376.745 229.22 376.956C229.318 377.168 229.354 377.403 229.324 377.634L229.316 377.684C229.041 377.796 228.774 377.925 228.515 378.07C228.367 378.154 228.222 378.243 228.08 378.337C227.902 378.456 227.764 378.626 227.684 378.826C227.604 379.025 227.587 379.244 227.633 379.453C227.679 379.663 227.788 379.853 227.944 380C228.1 380.147 228.297 380.243 228.509 380.276L228.531 380.279L228.575 380.286C228.106 381.409 227.447 382.443 226.628 383.342C225.828 387.668 222.394 388.078 218.721 386.819H218.718C218.315 388.574 217.731 390.282 216.976 391.916H210.751C210.729 391.847 210.709 391.775 210.689 391.706C211.265 391.742 211.843 391.707 212.411 391.603C211.949 391.035 211.488 390.463 211.026 389.895C211.015 389.884 211.006 389.873 210.997 389.861C210.762 389.571 210.526 389.282 210.292 388.992L210.292 388.991C210.279 388.1 210.381 387.212 210.595 386.347L210.595 386.347Z" fill="#F2F2F2"/>
<path d="M55.502 386.347C55.3414 386.354 55.1825 386.312 55.0467 386.226C54.9109 386.14 54.8048 386.014 54.7428 385.865C54.6808 385.716 54.6658 385.552 54.7 385.395C54.7342 385.238 54.8158 385.095 54.9339 384.985L54.9876 384.771L54.9662 384.72C54.8045 384.337 54.5334 384.011 54.1872 383.782C53.8409 383.553 53.4348 383.431 53.0199 383.433C52.605 383.434 52.1998 383.559 51.8552 383.79C51.5107 384.022 51.2421 384.35 51.0831 384.734C50.448 386.267 49.6395 387.802 49.4404 389.423C49.3527 390.139 49.3897 390.866 49.5497 391.569C48.058 388.309 47.2834 384.765 47.2785 381.178C47.2781 380.278 47.3281 379.378 47.428 378.484C47.5105 377.751 47.625 377.023 47.7716 376.3C48.5711 372.377 50.2876 368.701 52.7803 365.573C53.9867 364.913 54.9624 363.899 55.5758 362.667C55.798 362.223 55.9551 361.751 56.0421 361.262C55.7778 360.564 55.6388 359.823 55.6316 359.076C55.442 358.788 55.1025 358.644 54.8954 358.363C53.8652 356.963 52.4458 357.208 51.7049 359.11C50.1221 359.91 50.1068 361.238 51.078 362.514C51.6959 363.327 51.7808 364.426 52.3229 365.296C52.2671 365.367 52.2091 365.437 52.1534 365.508C51.1338 366.822 50.2451 368.233 49.5001 369.72C49.6813 368.054 49.465 366.368 48.8692 364.802C48.2653 363.342 47.1335 362.112 46.1367 360.85C45.8731 360.511 45.5151 360.258 45.1079 360.123C44.7008 359.988 44.2628 359.977 43.8494 360.091C43.4359 360.205 43.0655 360.44 42.785 360.765C42.5045 361.09 42.3265 361.491 42.2734 361.918L42.2675 361.973C42.4155 362.057 42.5604 362.146 42.7022 362.24C42.8804 362.359 43.0184 362.53 43.0982 362.729C43.178 362.928 43.196 363.147 43.1496 363.356C43.1033 363.566 42.9948 363.757 42.8385 363.903C42.6822 364.05 42.4853 364.146 42.2735 364.179L42.2519 364.182C42.3046 364.717 42.3978 365.247 42.5307 365.767C41.252 370.723 44.0127 372.527 47.9545 372.609C48.0415 372.653 48.1263 372.698 48.2133 372.74C47.4648 374.866 46.9953 377.08 46.8166 379.327C46.7155 380.652 46.7214 381.984 46.8345 383.308L46.8278 383.262C46.5422 381.789 45.7581 380.46 44.6079 379.499C42.8995 378.093 40.4859 377.575 38.6429 376.444C38.4471 376.318 38.2193 376.251 37.9866 376.251C37.7538 376.25 37.5257 376.316 37.3293 376.441C37.1328 376.566 36.9761 376.745 36.8777 376.956C36.7792 377.168 36.7432 377.403 36.7738 377.634L36.7813 377.684C37.056 377.796 37.3235 377.925 37.5823 378.07C37.7303 378.154 37.8752 378.243 38.017 378.337C38.1952 378.456 38.3332 378.626 38.413 378.826C38.4928 379.025 38.5107 379.244 38.4644 379.453C38.4181 379.663 38.3096 379.853 38.1533 380C37.997 380.147 37.8 380.243 37.5883 380.276L37.5666 380.279L37.522 380.286C37.9914 381.409 38.6503 382.443 39.4697 383.342C40.2693 387.668 43.7033 388.078 47.3766 386.819H47.3789C47.7819 388.574 48.3659 390.282 49.1214 391.916H55.346C55.3684 391.847 55.3884 391.775 55.4086 391.706C54.8324 391.742 54.2539 391.707 53.6861 391.603C54.148 391.035 54.6098 390.463 55.0716 389.895C55.0819 389.884 55.0916 389.873 55.1007 389.861C55.3349 389.571 55.5714 389.282 55.8057 388.992L55.8058 388.991C55.8183 388.1 55.7163 387.212 55.5023 386.347L55.502 386.347Z" fill="#F2F2F2"/>
<path d="M149.578 51.1883C150.837 48.6475 152.85 46.538 154.081 43.9834C155.313 41.4289 155.552 38.0097 153.501 36.0544C151.759 34.3941 149.031 34.3709 146.948 33.1683C141.642 30.1046 141.648 20.3733 135.581 19.5324C132.631 19.1236 129.962 21.3404 128.179 23.7306C126.396 26.1208 124.976 28.9099 122.503 30.5728C119.704 32.4553 116.085 32.5372 112.976 33.8447C107.017 36.3516 103.892 42.7979 101.28 48.7221C99.5966 52.5385 97.8751 56.6548 98.6559 60.7532C96.9586 61.8115 97.7151 64.658 99.4093 65.7212C101.104 66.7844 103.231 66.7608 105.177 67.2213C109.266 68.1892 112.614 71.4509 114.201 75.3491C115.438 78.3873 115.691 81.7232 115.93 84.9959C116.344 90.6747 116.758 96.3535 117.172 102.032C117.357 104.559 117.598 107.244 119.133 109.257C120.668 111.27 123.991 112.113 125.716 110.262C127.365 108.492 126.622 105.69 126.589 103.27C126.556 100.849 128.739 97.8347 130.798 99.1011L131.525 97.4501C136.228 95.7626 140.346 92.7528 143.386 88.7808C146.427 84.8088 148.261 80.043 148.668 75.0538C149.194 67.0176 146.003 58.401 149.578 51.1883Z" fill="#E6E6E6"/>
<path d="M154.384 102.147C154.839 101.718 155.161 101.168 155.313 100.561C155.466 99.9543 155.442 99.3167 155.244 98.7233C155.047 98.1298 154.684 97.6053 154.199 97.2116C153.714 96.8178 153.127 96.5714 152.507 96.5012L152.514 96.7739C151.629 97.2918 150.62 97.5577 149.595 97.5428C148.573 97.5267 147.557 97.688 146.591 98.0196C146.11 98.1947 145.694 98.5114 145.397 98.9281C145.099 99.3448 144.935 99.842 144.925 100.354C144.981 100.747 145.131 101.12 145.362 101.442C145.592 101.764 145.897 102.026 146.251 102.204C146.96 102.555 147.722 102.786 148.505 102.891C150.525 103.271 152.889 103.559 154.384 102.147Z" fill="#E6E6E6"/>
<path d="M193.77 51.3228C194.616 50.7463 195.334 50.0011 195.88 49.1338C196.144 48.6949 196.27 48.1863 196.24 47.6745C196.211 47.1628 196.028 46.6719 195.715 46.2663C195.078 45.7126 194.259 45.416 193.416 45.434C191.127 45.2627 188.826 45.5346 186.64 46.2347C188.885 48.2279 191.13 50.2211 193.375 52.2144L193.77 51.3228Z" fill="#E6E6E6"/>
<path d="M182.542 56.5069C183.45 57.5106 183.16 59.0675 182.904 60.3972C182.647 61.7269 182.614 63.3885 183.755 64.1139C184.745 64.7427 186.133 64.2296 186.857 63.3064C187.503 62.3218 187.898 61.1922 188.004 60.0182C188.359 58.312 188.52 56.5707 188.483 54.8281C188.44 53.0724 187.822 51.3796 186.724 50.0107C185.944 49.1205 184.907 48.497 183.756 48.2275C182.605 47.9581 181.399 48.0564 180.307 48.5085L181.35 48.4569C180.592 49.4326 180.017 50.5383 179.653 51.72C179.479 52.3137 179.467 52.9433 179.617 53.5434C179.768 54.1434 180.077 54.6921 180.51 55.1324C181.129 55.672 181.991 55.8977 182.542 56.5069Z" fill="#E6E6E6"/>
<path d="M233.723 39.6732L233.908 39.1008C233.133 39.5505 232.535 40.2535 232.215 41.0921C231.894 41.9307 231.871 42.8541 232.15 43.7077C232.746 43.2362 233.207 42.6138 233.483 41.9046C233.76 41.1954 233.843 40.4251 233.723 39.6732Z" fill="#E6E6E6"/>
<path d="M223.641 47.8651C224.628 47.3047 225.471 46.5202 226.102 45.5745C226.732 44.6288 227.133 43.5482 227.272 42.4193C227.379 41.7175 227.298 40.9997 227.037 40.3396C226.903 40.0118 226.69 39.7223 226.418 39.4968C226.145 39.2713 225.821 39.1168 225.475 39.047L225.052 39.7133C224.446 39.1908 223.429 39.7281 223.174 40.4873C223.01 41.2755 223.078 42.0946 223.37 42.8446C223.663 43.5991 223.649 44.438 223.333 45.1828C222.993 45.6208 222.61 46.024 222.19 46.3864C221.985 46.5734 221.851 46.8261 221.811 47.1012C221.771 47.3763 221.828 47.6567 221.972 47.8945C222.369 48.3495 223.113 48.1586 223.641 47.8651Z" fill="#E6E6E6"/>
<path d="M219.342 44.1432C219.704 43.4912 219.874 42.7501 219.834 42.0053L218.91 41.715C218.32 41.9548 217.796 42.3344 217.384 42.8213C217.259 42.947 217.163 43.099 217.103 43.2662C217.044 43.4335 217.022 43.6119 217.039 43.7887C217.056 43.9655 217.112 44.1362 217.203 44.2888C217.293 44.4414 217.417 44.572 217.564 44.6712C217.711 44.7705 217.878 44.8359 218.053 44.8629C218.228 44.8899 218.407 44.8777 218.577 44.8272C218.747 44.7768 218.904 44.6893 219.036 44.571C219.168 44.4528 219.273 44.3067 219.342 44.1432Z" fill="#E6E6E6"/>
<path d="M264.495 39.4585C264.579 39.5286 264.662 39.6007 264.745 39.6714C264.819 39.6559 264.889 39.6281 264.964 39.6189L264.495 39.4585Z" fill="#E6E6E6"/>
<path d="M263.015 47.5826C263.863 46.8951 264.711 46.2076 265.559 45.52C266.01 45.2006 266.394 44.796 266.69 44.3291C266.892 43.8871 266.979 43.401 266.944 42.916C266.908 42.4311 266.75 41.9631 266.485 41.5557C266.016 40.8337 265.427 40.1965 264.746 39.6714C263.997 39.8491 263.338 40.2958 262.896 40.927C262.454 41.5583 262.258 42.3302 262.345 43.0965C262.498 44.0713 263.109 45.1138 262.61 45.9647C262.416 46.2961 262.082 46.5217 261.858 46.8337C261.635 47.1456 261.562 47.6425 261.87 47.872C262.211 48.1267 262.684 47.851 263.015 47.5826Z" fill="#E6E6E6"/>
<path d="M264.87 51.7914C265.185 51.8083 265.5 51.7571 265.794 51.6412C266.088 51.5252 266.354 51.3474 266.573 51.1195C267.707 50.1886 268.699 49.0966 269.517 47.8782C267.609 48.4839 265.7 49.0897 263.792 49.6954L264.387 50.3926C263.858 50.7382 264.25 51.6724 264.87 51.7914Z" fill="#E6E6E6"/>
<path d="M270.218 55.7276C270.335 56.0258 270.546 56.2776 270.818 56.4445C271.091 56.6114 271.411 56.6842 271.729 56.6517C272.045 56.6094 272.349 56.4981 272.618 56.3255C272.887 56.1529 273.115 55.9233 273.286 55.6529C273.576 55.2242 273.747 54.7257 273.78 54.2089C273.813 53.692 273.708 53.1756 273.476 52.7131C273.243 52.2506 272.892 51.8587 272.457 51.578C272.023 51.2973 271.521 51.138 271.005 51.1166L271.532 51.9232C271.666 53.3001 269.798 54.4097 270.218 55.7276Z" fill="#E6E6E6"/>
<path d="M307.282 70.8079C307.798 71.1938 308.425 71.4016 309.069 71.4001C309.713 71.3986 310.339 71.1878 310.853 70.7994C311.187 70.514 311.458 70.1626 311.65 69.7674C311.841 69.3721 311.95 68.9415 311.967 68.5024C311.985 68.0633 311.912 67.6252 311.754 67.2156C311.595 66.806 311.353 66.4337 311.044 66.1221L310.069 66.6674C309.529 66.3192 308.874 66.1948 308.244 66.3203C307.614 66.4457 307.057 66.8113 306.69 67.34C306.361 67.8942 306.24 68.5478 306.348 69.1833C306.457 69.8189 306.788 70.3949 307.282 70.8079Z" fill="#E6E6E6"/>
<path d="M318.616 72.0936C319.09 71.9555 319.522 71.6977 319.868 71.3447C320.215 70.9917 320.466 70.5554 320.596 70.0776L318.701 69.8281C318.174 69.4292 317.56 69.1606 316.91 69.0442C316.584 68.9953 316.251 69.0601 315.967 69.2278C315.683 69.3955 315.465 69.6559 315.35 69.9654C315.31 70.2287 315.337 70.498 315.43 70.7475C315.523 70.9971 315.679 71.2186 315.881 71.391C316.239 71.7329 316.678 71.977 317.157 72.1C317.636 72.2231 318.138 72.2209 318.616 72.0936Z" fill="#E6E6E6"/>
<path d="M310.791 75.8898C310.824 76.1987 310.945 76.4917 311.138 76.7346C311.332 76.9774 311.59 77.1601 311.883 77.2613C312.203 77.4135 312.562 77.4659 312.912 77.4115C313.263 77.3571 313.589 77.1986 313.848 76.9563C313.962 76.8269 314.044 76.672 314.087 76.5045C314.13 76.3369 314.132 76.1616 314.093 75.9931C314.055 75.8245 313.977 75.6676 313.866 75.5354C313.754 75.4031 313.613 75.2994 313.454 75.2327L312.033 74.9738C311.484 74.6889 310.782 75.2703 310.791 75.8898Z" fill="#E6E6E6"/>
<path d="M228.34 85.902L227.24 84.8956C227.533 85.3042 227.907 85.647 228.34 85.902Z" fill="#E6E6E6"/>
<path d="M219.94 79.9762C220.617 83.1271 224.003 85.694 227.078 84.7472L227.24 84.8957C226.261 83.5532 226.096 81.5667 226.324 79.8393C226.748 76.8791 227.91 74.0737 229.701 71.6818C231.493 69.29 233.856 67.3888 236.574 66.1537C237.319 65.9208 237.985 65.4862 238.498 64.8978C238.936 64.2557 238.773 63.1546 238.018 62.9733C237.607 62.9263 237.194 63.0223 236.846 63.2451L231.132 66.0631C228.246 67.4864 225.303 68.9504 223.036 71.2372C220.769 73.5239 219.263 76.8252 219.94 79.9762Z" fill="#E6E6E6"/>
<path d="M127.707 188.325C122.383 184.506 116.552 181.452 110.384 179.253C106.592 177.902 102.519 176.872 98.5682 177.639C96.4019 178.088 94.3718 179.043 92.6429 180.426C90.914 181.809 89.5351 183.581 88.6181 185.598C87.7347 187.63 87.3192 189.835 87.4026 192.05C87.4859 194.265 88.0659 196.432 89.0995 198.392C90.9212 201.813 94.0757 204.537 95.1304 208.267C95.8414 210.782 95.5046 213.46 95.1623 216.051C94.4629 221.347 93.7636 226.643 93.0642 231.938C92.4275 236.759 91.807 241.777 93.3304 246.394C94.8537 251.012 99.2007 255.082 104.029 254.592L104.986 254.52C101.792 252.343 100.897 247.837 101.848 244.086C102.799 240.334 105.213 237.153 107.57 234.087C114.563 224.986 121.557 215.886 128.551 206.785C131.381 203.104 134.374 198.553 132.865 194.158C132.007 191.66 129.85 189.863 127.707 188.325Z" fill="#E6E6E6"/>
<path d="M80.0434 165.319C79.3351 165.078 78.587 165.613 78.1705 166.235C77.8339 166.904 77.4384 167.541 76.9888 168.139C75.8993 169.264 73.9138 169.041 72.7388 168.006C71.5637 166.97 71.0546 165.369 70.8265 163.818C70.5529 161.957 70.6711 159.88 71.8969 158.455C73.1588 156.989 75.2329 156.595 77.1415 156.29C79.113 155.976 81.3217 155.713 82.9369 156.889C83.9542 157.629 84.5472 158.825 85.4896 159.659C86.432 160.493 88.1084 160.809 88.8177 159.768C89.0033 159.4 89.0972 158.991 89.0912 158.578C89.0853 158.165 88.9798 157.76 88.7836 157.397C88.3849 156.673 88.1451 155.872 88.0801 155.048C88.1276 153.905 89.0442 152.996 89.9819 152.342C90.9196 151.688 91.9787 151.124 92.5939 150.16C93.3507 148.973 93.2704 147.445 93.7398 146.118C94.876 142.906 98.9311 141.477 100.112 138.281C100.397 137.609 100.429 136.856 100.202 136.162C99.7079 134.889 98.3715 135.139 98.2896 133.583C98.2112 132.095 99.45 130.635 100.709 130.014C102.444 129.157 104.468 129.226 106.402 129.174C108.336 129.122 110.42 128.864 111.839 127.547C112.299 127.072 112.653 126.506 112.879 125.885C113.105 125.263 113.197 124.601 113.15 123.942C113.103 123.283 112.917 122.64 112.606 122.058C112.294 121.475 111.863 120.965 111.341 120.561C110.283 119.829 108.946 119.574 107.917 118.802C106.635 117.841 106.028 116.24 105.03 114.986C104.199 114.031 103.249 113.188 102.203 112.478C101.346 111.841 100.489 111.204 99.6326 110.567C98.0839 109.415 96.4725 108.234 94.588 107.824C92.7035 107.414 90.4594 107.994 89.5156 109.68C89.1434 110.431 88.9401 111.254 88.9201 112.093C88.8341 114.067 88.9163 116.044 89.1657 118.004C89.3212 119.582 89.4768 121.159 89.6323 122.737C89.7717 124.151 89.622 126.015 88.252 126.382C85.2127 127.197 86.2383 122.693 85.5642 121.314C84.5325 119.202 79.7919 118.188 77.7654 117.308C76.4997 116.759 75.164 116.152 74.3997 115.001C73.4485 113.569 73.6438 111.62 74.3897 110.07C75.1356 108.521 76.3509 107.26 77.4549 105.942C78.5804 104.599 79.6051 103.175 80.6288 101.753C81.816 100.103 83.0032 98.4535 84.1904 96.8039C85.713 94.6881 87.3137 92.1059 86.4488 89.6455C86.2613 89.3164 85.9811 89.05 85.6433 88.8797C85.3054 88.7094 84.925 88.6427 84.5495 88.6881C84.174 88.7334 83.8203 88.8888 83.5325 89.1347C83.2447 89.3806 83.0358 89.7061 82.9318 90.0705C82.5527 91.3987 83.564 93.0946 82.5966 94.079C82.2652 94.3464 81.8505 94.4886 81.4251 94.4806C80.9996 94.4726 80.5905 94.315 80.2693 94.0353C79.6428 93.4555 79.1656 92.7324 78.8784 91.9276C77.7063 89.3177 76.5645 86.6915 75.3614 84.0958C74.9811 83.2752 74.5841 81.8702 73.4315 82.0085C72.4309 82.1286 71.8906 83.5897 71.9253 84.438C71.9759 85.6722 72.6567 86.775 73.177 87.8949C73.6973 89.0148 74.0612 90.3595 73.4899 91.4541C72.7665 92.84 70.9346 93.1514 69.3744 93.1056C66.4337 93.0163 63.5522 92.2545 60.9504 90.8782C60.8824 92.3266 60.8144 93.7749 60.7464 95.2233C58.6756 94.3548 56.6048 93.4862 54.534 92.6176C54.1318 92.4489 53.7296 92.2802 53.3274 92.1116C51.5806 91.3789 49.8316 90.6454 48.0333 90.0506C47.0124 89.7129 45.9773 89.4206 44.9426 89.1283C44.3135 88.9506 43.6846 88.773 43.0556 88.5953C41.8144 88.1546 40.4979 87.9664 39.1833 88.0418C37.8021 88.2156 36.5701 88.9589 35.2927 89.5147C32.4428 90.7544 28.7566 89.5072 25.7025 89.4852C24.4911 87.7129 22.8556 86.2733 20.9456 85.2981C19.0355 84.3228 16.912 83.843 14.7691 83.9025C12.6262 83.962 10.5324 84.5589 8.67922 85.6386C6.82601 86.7184 5.27254 88.2465 4.1609 90.0832C3.62394 91.0139 3.14576 91.9773 2.72916 92.9679C2.31478 93.8985 1.90039 94.829 1.48599 95.7596C0.878096 97.1247 0.256787 98.5629 0.376272 100.053C0.495757 101.543 1.63568 103.065 3.12737 103.052C-0.390165 104.647 -1.12212 110.231 1.86485 112.683C2.69196 113.362 3.7062 113.806 4.45051 114.576C5.01306 115.157 5.38941 115.893 5.53127 116.691C5.67313 117.488 5.57402 118.309 5.24665 119.05C4.91929 119.79 4.37861 120.415 3.69401 120.846C3.00941 121.276 2.21212 121.491 1.40446 121.464C3.48837 122.272 5.78381 122.347 7.91579 121.677C10.0478 121.008 11.8903 119.634 13.1424 117.78C14.4194 115.777 14.9745 113.274 16.7117 111.655C19.0124 109.51 22.8126 109.677 25.4661 111.363C28.1196 113.049 29.7983 115.919 30.953 118.848C32.4661 122.685 33.4345 127.07 36.6582 129.636C38.2169 130.877 40.1909 131.575 41.5686 133.016C43.5306 135.066 43.87 138.162 43.8258 141.002C43.7815 143.843 43.4762 146.79 44.5089 149.436C45.5416 152.082 48.502 154.258 51.1567 153.261C50.3962 155.522 50.4196 157.974 51.2229 160.22C52.0263 162.466 53.5627 164.375 55.5833 165.637C55.0997 162.631 54.616 159.625 54.1324 156.619C56.543 157.299 58.1053 159.642 59.0077 161.983C59.91 164.324 60.3868 166.855 61.6947 168.995C63.7542 172.365 67.4838 173.817 71.2778 173.804C75.3764 173.79 76.9325 171.832 79.6334 168.948C80.1761 168.456 80.5879 167.837 80.8319 167.145C80.9421 166.797 80.9231 166.42 80.7782 166.085C80.6333 165.749 80.3724 165.477 80.0434 165.319Z" fill="#E6E6E6"/>
<path d="M91.649 165.169C89.3582 164.809 87.0673 164.448 84.7764 164.087C85.9773 164.81 87.1783 165.534 88.3792 166.257C89.3806 166.925 90.4695 167.451 91.6149 167.82C92.1892 168.001 92.7946 168.061 93.3934 167.998C93.9922 167.935 94.5717 167.749 95.0959 167.452L94.8026 166.891C94.3406 165.72 92.89 165.365 91.649 165.169Z" fill="#E6E6E6"/>
<path d="M90.0924 177.93L90.1082 177.89C89.9697 177.66 89.7656 177.476 89.5222 177.363C89.2788 177.25 89.0072 177.213 88.7423 177.255C88.2146 177.35 87.6751 177.359 87.1446 177.281C86.8076 177.149 86.507 176.939 86.268 176.666C86.0291 176.394 85.8586 176.069 85.7708 175.717C85.5431 175.03 85.4758 174.296 85.2164 173.621C85.0291 173.087 84.6983 172.615 84.2606 172.257C83.8229 171.899 83.2951 171.669 82.7354 171.593C82.1738 171.548 81.617 171.726 81.1854 172.089C80.7539 172.452 80.4822 172.97 80.4292 173.532C80.4733 174.111 80.6568 174.67 80.964 175.162C81.2111 175.639 81.4582 176.115 81.7053 176.591C81.9135 177.018 82.1531 177.429 82.422 177.82C82.8594 178.424 83.4313 178.918 84.0923 179.261C84.7533 179.605 85.4852 179.789 86.2298 179.8C86.9744 179.811 87.7112 179.647 88.3817 179.322C89.0522 178.998 89.638 178.521 90.0924 177.93V177.93Z" fill="#E6E6E6"/>
<path d="M76.7132 55.7669C78.4576 56.7974 80.6421 57.5077 81.4709 59.3591L81.9491 59.5139C81.4275 60.1633 80.9059 60.8127 80.3844 61.4621C79.7398 62.2647 79.0621 63.1589 79.0771 64.189C79.0979 65.6076 80.4597 66.6778 81.8357 67.0123C83.304 67.315 84.8322 67.0603 86.1236 66.2975C87.4151 65.5347 88.3776 64.3184 88.8244 62.8845C88.9881 62.2864 89.0556 61.6662 89.1991 61.063C89.6174 59.6325 90.2487 58.2734 91.0718 57.0316C95.7039 49.2226 100.336 41.4135 104.968 33.6045C105.545 32.632 106.14 31.4686 105.706 30.4241C105.474 29.9823 105.116 29.6201 104.677 29.3841C104.239 29.1482 103.739 29.0493 103.244 29.1002C102.255 29.2205 101.302 29.5419 100.441 30.0447C100.059 29.372 99.5198 28.8023 98.8695 28.3845C98.2192 27.9667 97.4775 27.7133 96.7079 27.6461C95.1691 27.5271 93.6212 27.6622 92.126 28.046C88.7482 28.5567 85.491 29.678 82.5131 31.3552C80.884 32.1805 79.0911 33.1996 78.6185 34.9665C78.037 37.1399 79.9108 39.355 82.068 39.9796C84.2252 40.6042 86.5279 40.0797 88.7112 39.5539C88.958 40.6145 88.8552 41.7267 88.4181 42.7238C87.9809 43.7209 87.2331 44.5491 86.2867 45.0845C85.3403 45.6198 84.2462 45.8334 83.1684 45.6932C82.0906 45.553 81.0873 45.0665 80.3086 44.3067C78.7436 42.7797 77.977 40.1288 75.8283 39.7347C73.6864 39.3418 71.9839 41.6311 71.5112 43.761C71.0488 46.0551 71.2996 48.4361 72.2298 50.5829C73.1599 52.7298 74.7248 54.5391 76.7132 55.7669Z" fill="#E6E6E6"/>
<path d="M103.578 93.3427C102.547 90.4293 101.191 87.6416 99.5369 85.0323C98.2831 82.9692 96.7356 81.1005 94.9432 79.4851C93.3051 78.0677 91.4222 76.9624 89.3872 76.2238C87.412 75.508 85.2129 75.1544 83.216 75.8071C81.2191 76.4597 79.5203 78.3202 79.5608 80.4246C79.6055 82.7514 81.6372 84.5712 83.7546 85.5272C85.872 86.4833 88.2274 86.8994 90.225 88.0863C91.5833 88.9118 92.7184 90.0589 93.5306 91.427C94.3428 92.795 94.8072 94.342 94.883 95.932L95.3861 96.7657C94.2463 97.1441 93.1833 97.724 92.2475 98.478C91.784 98.8613 91.4298 99.3603 91.2205 99.9247C91.0112 100.489 90.9543 101.099 91.0555 101.692C91.4045 103.101 92.8402 103.91 94.1385 104.554C96.5373 105.745 98.9361 106.935 101.335 108.126C100.114 104.476 104.112 101.08 104.334 97.2371C104.342 95.9016 104.085 94.5778 103.578 93.3427Z" fill="#E6E6E6"/>
<path d="M43.2607 83.489C44.7159 84.6214 46.9532 84.0917 48.2863 82.8173C49.6194 81.5429 50.2687 79.7293 50.8742 77.9856C50.653 79.7116 50.674 81.46 50.9364 83.1801C51.073 84.0402 51.3864 84.8625 51.8567 85.595C52.3269 86.3275 52.9438 86.9542 53.6683 87.4354C54.3261 87.7969 55.0352 88.0556 55.771 88.2025C59.1915 88.9825 62.7663 88.7266 66.0414 87.4672L66.0708 86.345C64.4255 86.5331 63.1804 84.7248 63.0718 83.069C62.9632 81.4132 63.5629 79.7894 63.6156 78.1308C63.6683 76.4723 62.8706 74.5345 61.241 74.2394C61.5262 74.8134 61.6303 75.4608 61.5392 76.0955C61.4482 76.7302 61.1664 77.3221 60.7314 77.7924C60.2964 78.2626 59.7288 78.589 59.1041 78.7281C58.4795 78.8671 57.8274 78.8122 57.2346 78.5707C55.3483 77.8023 54.6631 75.4996 53.2055 74.075C52.3048 73.2722 51.1874 72.7541 49.9937 72.5858C48.8001 72.4176 47.5834 72.6067 46.4967 73.1294C45.4238 73.678 44.4825 74.4535 43.738 75.4023C42.9934 76.3511 42.4633 77.4506 42.1843 78.6247C41.7416 80.3285 41.873 82.4092 43.2607 83.489Z" fill="#E6E6E6"/>
<path d="M88.1711 71.6713L88.2386 71.5614C87.8323 70.3859 86.5731 69.6967 85.344 69.5218C84.105 69.4398 82.861 69.481 81.6301 69.6448C80.3878 69.8058 79.1284 69.5279 78.0687 68.8588C77.2226 68.225 76.7406 67.2278 76.0643 66.4147C75.3879 65.6017 74.2933 64.933 73.3108 65.3218C72.2471 65.7427 71.9633 67.2367 72.4795 68.2593C73.0876 69.2408 74.0049 69.9911 75.0863 70.3915C79.1816 72.2752 83.7896 72.7259 88.1711 71.6713Z" fill="#E6E6E6"/>
<path d="M74.1921 75.1948C73.8519 75.4445 73.6213 75.8164 73.5485 76.2327C73.4756 76.6489 73.5663 77.0772 73.8014 77.428C74.0365 77.7789 74.3979 78.025 74.81 78.1149C75.222 78.2048 75.6528 78.1315 76.0122 77.9104L76.3711 78.2654C76.8484 77.409 77.0452 76.2616 76.4349 75.4947C76.1635 75.1767 75.7846 74.9703 75.3707 74.915C74.9569 74.8596 74.5372 74.9593 74.1921 75.1948Z" fill="#E6E6E6"/>
<path d="M69.9929 78.2673C69.9981 77.9613 69.9108 77.6609 69.7424 77.4056C69.574 77.1503 69.3324 76.952 69.0494 76.8369C68.8568 76.8038 68.6595 76.8101 68.4693 76.8555C68.2792 76.9008 68.1002 76.9842 67.9431 77.1007C67.786 77.2172 67.654 77.3644 67.5552 77.5333C67.4563 77.7023 67.3926 77.8896 67.3679 78.0838C67.3383 78.4796 67.3902 78.8772 67.5204 79.2521C67.6506 79.6269 67.8564 79.9709 68.1248 80.2627C68.281 80.4978 68.4851 80.697 68.7237 80.8472C68.9623 80.9974 69.23 81.0953 69.5091 81.1343C70.0715 81.1527 70.645 80.5634 70.4169 80.0479L69.5582 80.0312C69.8228 79.4795 69.9708 78.879 69.9929 78.2673Z" fill="#E6E6E6"/>
<path d="M53.1991 69.4546C53.5145 69.7107 53.8299 69.9669 54.1453 70.223C54.6915 70.6962 55.2817 71.1161 55.9076 71.4769C57.0024 72.0846 58.2899 72.2426 59.4987 71.9174C60.0955 71.7469 60.6398 71.4286 61.0815 70.9918C61.5232 70.555 61.8481 70.0138 62.0262 69.4181C62.4033 67.9943 61.7882 66.5159 61.1862 65.1719C61.0488 64.7873 60.8221 64.441 60.5249 64.1615C60.3726 64.0263 60.1783 63.9481 59.975 63.9401C59.7717 63.9321 59.5719 63.9948 59.4095 64.1176C59.2917 64.2645 59.2134 64.4393 59.1819 64.6251C59.1505 64.811 59.167 65.0018 59.2299 65.1795C59.3593 65.5336 59.4185 65.9095 59.404 66.2863C59.3441 66.6579 58.9548 67.0092 58.6119 66.8555L58.5573 68.1205C56.9198 67.2899 56.0537 65.0805 54.2314 64.8626C53.8223 64.8138 53.4078 64.8783 53.0329 65.0494C52.658 65.2204 52.3372 65.4914 52.1055 65.8326C51.8738 66.1739 51.74 66.5723 51.7188 66.9845C51.6976 67.3968 51.7898 67.8069 51.9853 68.1702C52.3017 68.6741 52.7142 69.1106 53.1991 69.4546Z" fill="#E6E6E6"/>
<path d="M49.2992 63.9934C49.6779 63.7331 49.9777 63.3731 50.1653 62.953C50.3528 62.5329 50.421 62.0691 50.3623 61.6126C50.317 61.3916 50.2236 61.1832 50.0887 61.0024C49.9539 60.8216 49.781 60.6728 49.5823 60.5665C49.3836 60.4602 49.164 60.3991 48.9391 60.3876C48.7141 60.376 48.4894 60.4143 48.2809 60.4996C47.813 60.8501 47.4844 61.3555 47.3533 61.9259C46.9218 63.1458 46.4902 64.3657 46.0586 65.5856L46.7839 65.0567C47.6814 64.8631 48.5345 64.5024 49.2992 63.9934Z" fill="#E6E6E6"/>
<path d="M57.7045 56.5069C57.8341 56.3432 57.9263 56.153 57.9746 55.9496C58.0229 55.7463 58.0261 55.5349 57.9841 55.3302C57.9421 55.1255 57.8558 54.9325 57.7313 54.7648C57.6068 54.5971 57.4472 54.4588 57.2636 54.3596L56.3566 54.2747C56.1504 54.327 55.9593 54.427 55.7986 54.5667C55.638 54.7064 55.5122 54.8819 55.4315 55.0791C55.3507 55.2763 55.3172 55.4897 55.3337 55.7023C55.3501 55.9148 55.416 56.1205 55.5262 56.3029C55.6363 56.4853 55.7875 56.6392 55.9678 56.7524C56.148 56.8657 56.3522 56.935 56.564 56.9548C56.7758 56.9747 56.9893 56.9445 57.1873 56.8667C57.3854 56.7889 57.5625 56.6657 57.7045 56.5069Z" fill="#E6E6E6"/>
<path d="M66.0488 57.9098C66.8952 58.3156 67.9665 58.7022 68.7028 58.1196C68.9209 57.9218 69.0831 57.6699 69.1731 57.3892C69.2631 57.1086 69.2777 56.8092 69.2154 56.5211C69.0832 55.9464 68.8279 55.4074 68.467 54.9416C67.341 53.3216 65.9105 51.9374 64.2555 50.8665L63.8463 51.3993C63.2747 52.8865 62.7229 54.6226 63.5201 56.0017C64.0576 56.9313 65.0816 57.4461 66.0488 57.9098Z" fill="#E6E6E6"/>
<path d="M72.3535 59.2334L73.9361 59.9507C73.781 59.6797 73.5446 59.4646 73.2605 59.3358C72.9764 59.207 72.6591 59.1712 72.3535 59.2334Z" fill="#E6E6E6"/>
<path d="M68.0888 64.2232L67.3409 64.47C66.705 65.5172 66.9809 66.8562 67.2767 68.0456C67.4637 68.7976 67.867 69.7228 68.6396 69.6886C69.3913 69.6553 69.724 68.7419 69.8683 68.0018C70.0934 67.1979 70.1179 66.3508 69.9393 65.5352C69.8375 65.1314 69.595 64.7774 69.2558 64.5368C68.9165 64.2963 68.5026 64.185 68.0888 64.2232Z" fill="#E6E6E6"/>
<path d="M56.1629 60.6988L56.7163 60.922C56.846 60.9035 56.966 60.8426 57.0577 60.7487C57.1494 60.6549 57.2076 60.5334 57.2234 60.403C57.2391 60.2727 57.2115 60.1407 57.1449 60.0277C57.0782 59.9146 56.9762 59.8267 56.8546 59.7777C56.733 59.7286 56.5987 59.7211 56.4725 59.7563C56.3462 59.7916 56.2351 59.8675 56.1563 59.9724C56.0775 60.0774 56.0354 60.2054 56.0366 60.3367C56.0378 60.4681 56.0822 60.5953 56.1629 60.6988Z" fill="#E6E6E6"/>
<path d="M84.0593 103.098C83.7913 103.104 83.5285 103.174 83.293 103.302C83.0575 103.431 82.856 103.614 82.7054 103.836C82.5548 104.058 82.4594 104.313 82.4272 104.58C82.395 104.847 82.4269 105.117 82.5203 105.369C83.0637 106.542 84.9351 106.547 85.7668 105.558C85.9799 105.278 86.1325 104.956 86.2151 104.613C86.2977 104.27 86.3085 103.914 86.2468 103.567C86.185 103.219 86.0521 102.889 85.8565 102.595C85.6608 102.302 85.4067 102.053 85.11 101.863L84.0593 103.098Z" fill="#E6E6E6"/>
<path d="M111.013 130.873C110.796 130.931 110.592 131.032 110.414 131.171C110.237 131.309 110.088 131.482 109.978 131.678C109.868 131.875 109.799 132.092 109.774 132.316C109.749 132.54 109.769 132.767 109.833 132.984L111.386 133.092C111.913 132.827 112.439 132.562 112.965 132.298C112.933 132.074 112.857 131.86 112.741 131.666C112.625 131.473 112.471 131.305 112.289 131.172C112.107 131.039 111.901 130.945 111.682 130.893C111.462 130.842 111.235 130.835 111.013 130.873Z" fill="#E6E6E6"/>
<path d="M104.698 132.799C104.254 133.115 103.897 133.54 103.662 134.032C103.426 134.525 103.32 135.07 103.352 135.615C103.403 136.159 103.625 136.673 103.986 137.082C104.348 137.491 104.83 137.774 105.362 137.891C105.9 137.975 106.45 137.852 106.9 137.546C107.351 137.24 107.668 136.774 107.789 136.242C108.052 134.631 106.325 133.452 105.704 131.944L104.698 132.799Z" fill="#E6E6E6"/>
<path d="M165.041 122.164C165.205 123.372 164.118 124.431 164.077 125.651C164.029 127.098 165.601 128.223 167.038 128.081C167.752 127.957 168.427 127.669 169.011 127.24C169.594 126.81 170.071 126.251 170.402 125.605L170.433 125.47C169.733 124.677 169.033 123.884 168.333 123.09C167.473 122.117 166.561 121.008 166.595 119.708C166.611 119.067 166.863 118.446 166.849 117.805C166.816 117.344 166.713 116.891 166.545 116.46C166.355 115.893 166.097 115.255 165.532 115.063C164.824 114.824 164.11 115.452 163.772 116.12C163.468 116.735 163.32 117.417 163.342 118.103C163.363 118.79 163.553 119.46 163.895 120.056C164.304 120.752 164.932 121.364 165.041 122.164Z" fill="#E6E6E6"/>
<path d="M158.438 126.417C158.591 126.5 158.76 126.548 158.934 126.56C159.107 126.571 159.281 126.544 159.444 126.481C160.068 126.375 160.667 126.157 161.214 125.837C161.486 125.673 161.709 125.441 161.861 125.162C162.013 124.884 162.089 124.57 162.08 124.253C161.985 123.854 161.775 123.492 161.475 123.213C161.175 122.934 160.8 122.75 160.396 122.685C160.115 122.586 159.815 122.558 159.521 122.603C159.227 122.648 158.949 122.765 158.71 122.943C158.189 123.434 158.251 124.266 158.353 124.976L158.243 125.16C158.145 125.599 158.082 126.143 158.438 126.417Z" fill="#E6E6E6"/>
<path d="M268.653 178.08C268.501 177.703 268.35 177.325 268.198 176.948C267.991 177.461 268.068 177.985 268.653 178.08Z" fill="#E6E6E6"/>
<path d="M359.568 98.6979C357.624 96.5849 356.434 95.3667 355.207 92.7476C354.539 91.3031 353.525 90.0467 352.254 89.0907C350.984 88.1348 349.497 87.5088 347.926 87.2689C343.894 86.6033 339.774 87.6573 335.693 87.4461C329.156 87.1078 323.262 83.5945 317.002 81.6782C313.497 80.6942 309.928 79.9565 306.32 79.4706C304.242 79.1412 302.163 78.8118 300.084 78.4824C293.271 77.4026 286.413 76.3196 279.516 76.463C277.527 76.5044 274.757 75.9054 274.916 73.9185C275.114 71.4507 279.545 71.7747 280.397 69.4509C280.924 68.0134 279.662 66.5041 278.279 65.8542C276.895 65.2041 275.297 65.0087 274.041 64.136C272.785 63.2634 272.097 61.2404 273.252 60.2366C270.052 61.8801 266.853 63.5237 263.653 65.1673C260.993 66.5337 258.021 68.3115 257.551 71.2697C255.948 71.6941 254.546 72.6706 253.589 74.0278C251.79 74.0371 250.375 75.7685 250.079 77.5473C249.782 79.326 250.321 81.1262 250.855 82.8486C250.202 81.5956 249.509 80.2948 248.358 79.4772C247.207 78.6597 245.456 78.5039 244.475 79.5196C243.468 80.5618 243.704 82.3105 244.416 83.5733C245.128 84.836 246.222 85.8552 246.894 87.14C248.992 91.1524 245.19 96.8014 240.691 96.3545C240.993 92.2112 241.294 88.0679 241.596 83.9247C241.787 82.6502 241.68 81.3487 241.284 80.1227C240.793 78.9367 239.536 77.9625 238.286 78.2426C236.038 78.7462 236.23 82.0466 237.165 84.1564C238.1 86.2663 239.033 89.2003 237.123 90.4924C235.89 91.3268 234.219 90.8115 232.888 90.1454C231.557 89.4795 230.133 88.6587 228.678 88.9698C227.222 89.281 226.307 91.5098 227.593 92.2603C225.461 91.889 223.329 91.5178 221.197 91.1465C221.092 91.7754 220.856 92.375 220.504 92.9068C220.153 93.4385 219.694 93.8905 219.158 94.2335C218.621 94.5765 218.019 94.8029 217.39 94.898C216.76 94.9932 216.118 94.955 215.504 94.7859C215.295 93.9168 215.086 93.0476 214.877 92.1784C214.565 92.0914 214.253 92.0044 213.941 91.9173C214.92 92.1906 213.388 96.329 212.014 99.4904C210.168 99.2734 207.469 99.2316 207.161 98.7014C205.687 96.1623 205.862 90.1143 203.3 88.6858C202.015 87.9694 200.698 87.3166 199.348 86.7275C198.638 86.3892 197.889 86.1427 197.118 85.9938C195.544 85.7453 193.958 86.2343 192.44 86.7174C190.647 87.2882 188.811 87.8805 187.326 89.0389C186.057 90.1414 184.97 91.4369 184.104 92.8781C181.171 97.2273 178.239 101.576 175.306 105.925C174.433 107.087 173.745 108.378 173.269 109.752C173.044 110.435 172.97 111.158 173.05 111.873C173.13 112.588 173.363 113.277 173.733 113.893C174.123 114.497 174.705 114.952 175.384 115.185C176.064 115.418 176.801 115.414 177.479 115.176C178.329 114.807 179.18 113.972 180.022 114.357C180.66 114.65 180.82 115.49 180.753 116.19C180.591 116.875 180.578 117.587 180.715 118.277C181.099 119.366 182.574 119.745 183.626 119.274C184.649 118.714 185.416 117.779 185.764 116.665C186.778 114.059 186.675 111.176 186.927 108.391C187.18 105.606 187.94 102.627 190.131 100.895C190.787 100.377 191.751 100.003 192.426 100.496C192.679 100.727 192.853 101.03 192.926 101.365C192.998 101.699 192.964 102.048 192.829 102.363C192.547 102.985 192.179 103.564 191.736 104.084C190.987 105.139 190.463 106.338 190.196 107.605C189.93 108.872 189.927 110.181 190.186 111.449L190.634 111.727C192.343 111.283 194.63 112.078 196.898 112.841C195.252 113.331 193.802 114.331 192.755 115.696C190.133 119.383 188.236 122.871 183.049 122.827C181.818 122.817 180.598 122.573 179.367 122.57C178.125 122.494 176.902 122.902 175.954 123.71C175.021 124.625 174.733 126.019 173.934 127.054C172.885 128.416 171.131 128.969 169.529 129.588C168.358 130.04 167.124 130.649 166.586 131.785C166.248 132.716 166.17 133.722 166.361 134.695C166.541 136.415 166.86 138.371 168.316 139.299C168.861 139.584 169.457 139.757 170.069 139.809C170.681 139.861 171.297 139.791 171.881 139.602C173.396 139.232 174.877 138.537 176.432 138.641C178.875 138.804 180.886 141.153 180.91 143.606C180.923 144.847 180.561 146.271 181.383 147.201C182.154 148.074 183.684 147.918 184.484 147.07C184.856 146.619 185.111 146.084 185.229 145.511C185.346 144.938 185.322 144.345 185.157 143.783C184.818 142.665 184.296 141.611 183.612 140.664C184.425 140.453 185.286 140.53 186.048 140.883C186.81 141.237 187.427 141.843 187.793 142.6C188.335 143.808 188.16 145.201 188.333 146.514C188.506 147.827 189.304 149.286 190.623 149.362C191.055 149.374 191.477 149.235 191.816 148.968C192.156 148.701 192.391 148.323 192.482 147.9C192.496 147.234 192.459 146.567 192.374 145.907C192.419 145.256 192.71 144.647 193.189 144.206C193.667 143.764 194.297 143.522 194.947 143.53C194.546 144.273 194.415 145.133 194.578 145.963C194.74 146.792 195.186 147.539 195.837 148.075C196.842 148.853 198.169 149.027 199.42 149.245C200.671 149.463 202.005 149.807 202.812 150.789C204.157 152.424 202.512 153.161 202.255 154.546C201.941 156.246 203.358 158.757 203.903 160.384C206.405 163.892 208.907 167.399 211.409 170.906C211.967 171.759 212.626 172.541 213.371 173.237C215.84 175.362 219.912 175.153 222.28 172.914C223.429 171.75 224.174 170.248 224.408 168.628C224.641 167.008 224.35 165.355 223.578 163.913C222.114 161.243 219.214 159.59 217.782 156.903C220.165 158.88 223.092 160.086 226.174 160.361C231.628 161.472 236.809 163.649 241.422 166.769C241.638 171.598 243.487 176.209 246.665 179.846C247.236 175.725 249.154 171.91 252.117 168.996C254.045 167.112 256.679 165.593 259.323 166.1C261.968 166.606 263.974 169.986 262.374 172.156C263.715 172.256 265.055 172.356 266.395 172.456C266.996 173.953 267.597 175.45 268.198 176.948C268.305 176.633 268.51 176.361 268.782 176.172C269.055 175.982 269.381 175.885 269.713 175.894C270.967 176.084 271.847 177.254 273.041 177.686C275.29 178.5 277.695 176.245 277.986 173.866C278.277 171.487 277.148 169.19 276.051 167.06C278.474 167.51 280.977 167.242 283.251 166.288C285.525 165.335 287.472 163.738 288.855 161.693C290.237 159.647 290.994 157.243 291.034 154.773C291.073 152.303 290.393 149.875 289.076 147.786C291.685 145.041 294.754 142.777 298.144 141.097C301.282 139.543 304.714 138.477 307.456 136.298C310.198 134.119 312.122 130.336 310.803 127.088C309.871 124.793 307.534 123.235 306.834 120.859C305.822 117.42 308.898 113.862 312.372 113.002C315.847 112.143 319.475 113.199 322.898 114.247C322.372 110.718 326.454 107.41 329.788 108.663C331.185 108.096 332.581 107.53 333.977 106.963C332.359 110.539 328.851 112.814 326.272 115.771C323.693 118.727 322.157 123.541 324.851 126.393C328.713 122.886 332.574 119.378 336.436 115.871C340.475 112.202 344.515 108.534 348.554 104.865C348.361 104.297 348.168 103.73 347.975 103.162C351.797 101.707 355.913 100.504 359.568 98.6979Z" fill="#E6E6E6"/>
<path d="M158.992 145.901C158.836 146.126 158.753 146.394 158.754 146.668C158.755 146.942 158.841 147.209 158.999 147.433C159.207 147.609 159.469 147.708 159.741 147.711C160.013 147.715 160.278 147.624 160.49 147.453C160.905 147.098 161.229 146.649 161.435 146.143C161.635 146.532 161.95 146.849 162.337 147.052C162.724 147.255 163.164 147.334 163.598 147.278C164.463 147.147 165.283 146.805 165.984 146.281C166.541 145.954 167.032 145.527 167.433 145.021C167.632 144.766 167.768 144.468 167.831 144.151C167.895 143.834 167.883 143.507 167.798 143.195C167.589 142.717 167.266 142.298 166.856 141.977C165.834 141.031 164.812 140.085 163.79 139.139L163.444 139.035C163.264 138.843 163.047 138.689 162.806 138.583C162.565 138.477 162.305 138.421 162.042 138.419C161.779 138.416 161.518 138.466 161.275 138.567C161.031 138.668 160.811 138.817 160.627 139.005C159.992 139.717 159.989 140.78 160.086 141.73C160.183 142.679 160.334 143.691 159.912 144.546C159.671 145.037 159.261 145.425 158.992 145.901Z" fill="#E6E6E6"/>
<path d="M218.277 178.209C214.306 177.323 210.671 175.317 207.802 172.427C204.933 169.537 202.949 165.885 202.085 161.901C201.709 160.021 201.538 157.967 200.29 156.514C199.082 155.107 197.108 154.599 195.256 154.599C193.403 154.599 191.577 155.026 189.728 155.142C186.496 155.344 183.071 154.488 180.759 152.215C179.665 151.139 178.836 149.772 177.558 148.923C175.84 147.781 173.562 147.782 171.604 148.429C169.423 149.149 167.678 151.12 165.294 150.848C162.814 150.566 159.94 149.688 158.968 152.96C158.688 153.902 158.783 154.935 158.429 155.852C157.883 157.264 156.432 158.06 155.285 159.047C152.975 161.035 151.746 164.054 151.333 167.077C150.919 170.1 151.239 173.17 151.559 176.205C151.732 177.842 151.96 179.603 153.082 180.805C154.645 182.481 157.27 182.416 159.552 182.227C162.203 182.008 164.854 181.789 167.505 181.569C168.934 181.451 170.562 181.401 171.579 182.413C172.189 183.02 172.447 183.898 172.983 184.571C173.464 185.143 174.125 185.535 174.857 185.683C175.59 185.831 176.35 185.726 177.015 185.385C176.478 186.348 176.185 187.428 176.163 188.531C176.142 189.633 176.391 190.724 176.891 191.707C177.39 192.69 178.124 193.534 179.026 194.165C179.929 194.796 180.973 195.194 182.066 195.325L182.27 195.454C180.573 198.366 178.812 201.636 179.516 204.934C180.119 207.762 182.456 210.029 182.839 212.895C183.189 215.525 181.82 218.215 182.426 220.797C183.039 223.413 185.675 225.236 188.349 225.431C191.023 225.626 193.651 224.437 195.722 222.731C197.793 221.025 199.395 218.828 200.973 216.656C201.948 215.315 202.947 213.919 203.282 212.294C203.638 210.565 203.225 208.649 204.064 207.097C205.032 205.307 207.328 204.636 208.487 202.964C209.989 200.799 209.104 197.851 209.436 195.236C210.257 188.764 218.463 184.73 218.277 178.209Z" fill="#E6E6E6"/>
<path d="M217.092 200.304C216.867 201.314 215.923 201.979 215.023 202.488C214.124 202.997 213.134 203.51 212.676 204.438C212.206 205.388 212.421 206.52 212.666 207.552C213.177 209.697 213.779 211.818 214.472 213.915C215.815 211.372 216.987 208.743 217.981 206.045C218.402 205.04 218.662 203.975 218.751 202.889C218.792 202.346 218.719 201.8 218.537 201.286C218.355 200.772 218.067 200.303 217.692 199.907L217.092 200.304Z" fill="#E6E6E6"/>
<path d="M272.313 189.048C271.186 187.743 270.058 186.439 268.931 185.135C268.16 184.243 267.28 183.29 266.112 183.141L265.631 183.449C266.609 185.782 267.586 188.115 268.564 190.447C268.91 191.512 269.519 192.473 270.335 193.239C271.21 193.928 272.629 194.06 273.359 193.218C273.594 192.902 273.743 192.53 273.789 192.139C273.836 191.748 273.779 191.351 273.624 190.989C273.306 190.269 272.862 189.612 272.313 189.048Z" fill="#E6E6E6"/>
<path d="M283.239 191.546C283.665 191.397 284.056 191.161 284.386 190.853C284.716 190.545 284.978 190.171 285.155 189.755C285.505 188.923 285.736 188.045 285.841 187.148C286.034 185.98 286.226 184.812 286.419 183.644L286.167 183.579C285.922 183.461 285.643 183.437 285.381 183.509C285.12 183.582 284.893 183.748 284.744 183.975C284.46 184.439 284.245 184.942 284.106 185.468C284.034 185.731 283.905 185.974 283.726 186.179C283.548 186.385 283.325 186.547 283.076 186.655C282.17 186.928 281.313 185.967 280.369 186.005C279.987 186.053 279.633 186.23 279.364 186.506C279.096 186.783 278.929 187.142 278.89 187.525C278.835 188.3 279.054 189.069 279.509 189.698C280.314 190.951 281.809 191.958 283.239 191.546Z" fill="#E6E6E6"/>
<path d="M289.474 193.76L292.072 186.902C291.019 187.667 290.213 188.724 289.751 189.942C289.289 191.16 289.193 192.487 289.474 193.76Z" fill="#E6E6E6"/>
<path d="M302.735 188.231L302.209 188.254C301.975 188.719 301.85 189.233 301.845 189.754C301.84 190.276 301.955 190.791 302.181 191.261C302.642 192.198 303.313 193.015 304.141 193.649C305.425 194.711 306.89 195.531 308.466 196.069C310.777 196.745 313.166 197.113 315.572 197.166C316.948 197.256 318.324 197.346 319.699 197.436C320.354 197.479 321.202 197.396 321.384 196.764C321.535 196.242 321.091 195.751 320.676 195.401C317.037 192.332 312.625 190.325 307.923 189.6C306.14 189.328 304.247 189.217 302.735 188.231Z" fill="#E6E6E6"/>
<path d="M317.419 206.432C316.429 205.471 315.44 204.51 314.451 203.548C313.488 202.613 312.047 201.622 310.944 202.386C310.311 202.825 310.115 203.68 309.578 204.234C309.251 204.527 308.856 204.735 308.428 204.837C308.001 204.939 307.555 204.932 307.131 204.818C306.286 204.58 305.487 204.2 304.768 203.695L302.313 202.169C301.466 201.642 300.619 201.115 299.772 200.589L297.86 202.45C297.943 201.534 296.724 200.939 295.88 201.301C295.479 201.527 295.134 201.84 294.87 202.218C294.607 202.595 294.432 203.027 294.358 203.482C294.217 204.392 293.972 205.282 293.627 206.134C292.656 207.996 290.3 208.548 288.226 208.86C286.153 209.172 283.804 209.611 282.695 211.393C281.77 212.878 282.047 214.784 282.356 216.507L283.524 223.022C283.58 223.812 283.896 224.56 284.423 225.15C285.449 226.058 287.039 225.506 288.292 224.952C290.911 223.69 293.721 222.874 296.608 222.537C299.52 222.21 302.45 222.962 304.847 224.652C306.333 225.785 307.466 227.355 309.04 228.362C310.125 229.015 311.344 229.412 312.604 229.523C313.865 229.633 315.134 229.453 316.315 228.998C318.683 228.053 320.642 226.302 321.848 224.053C322.92 222.07 323.457 219.842 323.408 217.587C323.359 215.333 322.725 213.13 321.569 211.196C320.388 209.441 318.994 207.841 317.419 206.432Z" fill="#E6E6E6"/>
<path d="M314.502 232.979C314.264 233.267 314.126 233.625 314.106 233.998C314.086 234.372 314.186 234.742 314.391 235.055C314.822 235.674 315.479 236.098 316.22 236.235C316.954 236.366 317.701 236.401 318.444 236.337L318.467 235.781C318.269 234.805 317.82 233.898 317.164 233.15C316.447 232.468 315.181 232.258 314.502 232.979Z" fill="#E6E6E6"/>
<path d="M339.978 233.573L339.623 233.443C338.779 234.718 337.935 235.993 337.091 237.268C336.637 237.954 336.163 238.778 336.44 239.553C336.768 240.47 337.98 240.739 338.922 240.497C339.641 240.301 340.289 239.904 340.791 239.352C341.292 238.801 341.626 238.117 341.754 237.382C341.858 236.643 341.745 235.89 341.43 235.213C341.115 234.537 340.61 233.967 339.978 233.573Z" fill="#E6E6E6"/>
<path d="M346.413 229.527L344.083 227.67C344.052 228.531 344.02 229.393 343.989 230.254L343.902 230.255C344.439 230.728 344.947 231.233 345.421 231.769C345.966 232.234 346.882 232.447 347.348 231.902C347.488 231.707 347.567 231.475 347.576 231.236C347.585 230.996 347.523 230.759 347.398 230.554C347.142 230.149 346.807 229.8 346.413 229.527Z" fill="#E6E6E6"/>
<path d="M304.309 148.755C303.331 148.724 302.249 148.664 301.491 149.284C301.242 149.508 301.023 149.763 300.841 150.044L300.574 150.419C300.174 150.944 299.825 151.505 299.533 152.097C299.38 152.374 299.288 152.681 299.263 152.996C299.239 153.312 299.282 153.629 299.391 153.927C299.454 154.069 299.547 154.196 299.664 154.298C299.78 154.4 299.918 154.475 300.067 154.518C300.216 154.561 300.373 154.57 300.526 154.546C300.679 154.521 300.825 154.464 300.954 154.376C301.372 153.988 301.274 153.285 301.59 152.81C301.729 152.631 301.908 152.487 302.112 152.389C302.316 152.291 302.54 152.242 302.767 152.246C303.218 152.257 303.668 152.308 304.11 152.398C305.336 152.566 306.585 152.379 307.708 151.86C308.832 151.34 309.783 150.509 310.45 149.464C311.117 148.42 311.472 147.206 311.473 145.966C311.474 144.726 311.121 143.512 310.455 142.467L310.376 142.226C309.699 142.2 309.034 142.413 308.498 142.828C307.961 143.242 307.587 143.832 307.439 144.495C307.221 145.637 307.684 146.963 306.993 147.897C306.411 148.685 305.287 148.785 304.309 148.755Z" fill="#E6E6E6"/>
<path d="M313.063 136.65L312.914 136.637C312.04 136.797 311.2 137.111 310.434 137.563C310.183 137.68 309.982 137.884 309.869 138.137C309.836 138.272 309.837 138.412 309.871 138.547C309.905 138.681 309.973 138.804 310.067 138.906C310.256 139.107 310.479 139.275 310.724 139.402C311.09 139.646 311.494 139.828 311.919 139.938C312.133 139.99 312.356 139.989 312.569 139.934C312.782 139.879 312.978 139.772 313.139 139.622C313.291 139.413 313.395 139.174 313.444 138.922C313.494 138.669 313.487 138.408 313.425 138.158C313.356 137.644 313.234 137.139 313.063 136.65Z" fill="#E6E6E6"/>
<path d="M297.99 149.045C298.224 148.67 298.39 148.257 298.481 147.824C298.572 147.488 298.663 147.151 298.754 146.815L297.78 146.222C297.314 146.465 296.885 146.772 296.504 147.133C296.314 147.316 296.164 147.535 296.064 147.778C295.963 148.022 295.913 148.283 295.918 148.546C295.932 148.809 296.034 149.06 296.207 149.258C296.381 149.455 296.616 149.588 296.875 149.635C297.096 149.641 297.315 149.591 297.51 149.487C297.706 149.384 297.871 149.232 297.99 149.045Z" fill="#E6E6E6"/>
<path d="M191.797 58.2093C191.411 58.4501 191.52 59.0321 191.676 59.4595C191.856 59.9502 192.035 60.4408 192.215 60.9314L192.466 59.979C192.687 59.6096 192.784 59.1793 192.744 58.7507C192.657 58.3321 192.159 57.9832 191.797 58.2093Z" fill="#E6E6E6"/>
<path d="M435.178 146.589H272.136C268.206 146.585 264.438 145.018 261.66 142.234C258.881 139.45 257.318 135.674 257.313 131.736V14.8526C257.318 10.9149 258.881 7.13962 261.66 4.35518C264.438 1.57074 268.206 0.00447972 272.136 0H435.178C439.108 0.00447801 442.875 1.57074 445.654 4.35518C448.433 7.13962 449.996 10.9149 450 14.8526V131.736C449.996 135.674 448.433 139.45 445.654 142.234C442.875 145.018 439.108 146.585 435.178 146.589Z" fill="white"/>
<path d="M435.178 146.589H272.136C268.206 146.585 264.438 145.018 261.66 142.234C258.881 139.45 257.318 135.674 257.313 131.736V14.8526C257.318 10.9149 258.881 7.13962 261.66 4.35518C264.438 1.57074 268.206 0.00447972 272.136 0H435.178C439.108 0.00447801 442.875 1.57074 445.654 4.35518C448.433 7.13962 449.996 10.9149 450 14.8526V131.736C449.996 135.674 448.433 139.45 445.654 142.234C442.875 145.018 439.108 146.585 435.178 146.589ZM272.136 1.29153C268.548 1.29557 265.108 2.72562 262.571 5.26794C260.033 7.81027 258.606 11.2572 258.602 14.8526V131.736C258.606 135.332 260.034 138.779 262.571 141.321C265.108 143.863 268.548 145.294 272.136 145.298H435.178C438.766 145.294 442.206 143.863 444.743 141.321C447.28 138.779 448.707 135.332 448.711 131.736V14.8526C448.707 11.2572 447.28 7.81027 444.743 5.26794C442.206 2.72562 438.766 1.29557 435.178 1.29153H272.136Z" fill="#3F3D56"/>
<path d="M316.495 17.7968H290.717C290.034 17.7968 289.378 17.5246 288.895 17.0402C288.411 16.5558 288.14 15.8988 288.14 15.2137C288.14 14.5286 288.411 13.8716 288.895 13.3872C289.378 12.9028 290.034 12.6306 290.717 12.6306H316.495C317.179 12.6306 317.834 12.9028 318.318 13.3872C318.801 13.8716 319.073 14.5286 319.073 15.2137C319.073 15.8988 318.801 16.5558 318.318 17.0402C317.834 17.5246 317.179 17.7968 316.495 17.7968Z" fill="#CCCCCC"/>
<path d="M372.561 75.9158H290.717C290.034 75.9158 289.378 75.6436 288.895 75.1592C288.411 74.6748 288.14 74.0178 288.14 73.3327C288.14 72.6476 288.411 71.9906 288.895 71.5062C289.378 71.0218 290.034 70.7496 290.717 70.7496H372.561C373.245 70.7496 373.9 71.0218 374.384 71.5062C374.867 71.9906 375.139 72.6476 375.139 73.3327C375.139 74.0178 374.867 74.6748 374.384 75.1592C373.9 75.6436 373.245 75.9158 372.561 75.9158Z" fill="#CCCCCC"/>
<path d="M305.215 59.6089C314.76 59.6089 322.498 51.855 322.498 42.2901C322.498 32.7252 314.76 24.9714 305.215 24.9714C295.67 24.9714 287.932 32.7252 287.932 42.2901C287.932 51.855 295.67 59.6089 305.215 59.6089Z" fill="#019043"/>
<path d="M292.006 125.244H288.14V126.536H292.006V125.244Z" fill="#3F3D56"/>
<path d="M405.536 126.536H397.427V125.244H405.536V126.536ZM389.317 126.536H381.208V125.244H389.317V126.536ZM373.099 126.536H364.99V125.244H373.099V126.536ZM356.881 126.536H348.771V125.244H356.881L356.881 126.536ZM340.662 126.536H332.553V125.244H340.662V126.536ZM324.444 126.536H316.334V125.244H324.444L324.444 126.536ZM308.225 126.536H300.116V125.244H308.225V126.536Z" fill="#3F3D56"/>
<path d="M417.512 125.244H413.645V126.536H417.512V125.244Z" fill="#3F3D56"/>
<path d="M353.768 102.392H350.546V124.348H353.768V102.392Z" fill="#019043"/>
<path d="M386.635 102.392H383.413V124.348H386.635V102.392Z" fill="#019043"/>
<path d="M402.746 114.662H399.523V124.348H402.746V114.662Z" fill="#019043"/>
<path d="M369.879 92.7057H366.657V124.348H369.879V92.7057Z" fill="#019043"/>
<path d="M57.9716 146.304C60.1071 146.304 61.8382 144.57 61.8382 142.43C61.8382 140.29 60.1071 138.555 57.9716 138.555C55.8361 138.555 54.105 140.29 54.105 142.43C54.105 144.57 55.8361 146.304 57.9716 146.304Z" fill="#019043"/>
<path d="M68.2826 127.577C70.4181 127.577 72.1493 125.842 72.1493 123.702C72.1493 121.563 70.4181 119.828 68.2826 119.828C66.1472 119.828 64.416 121.563 64.416 123.702C64.416 125.842 66.1472 127.577 68.2826 127.577Z" fill="#019043"/>
<path d="M181.704 112.724C183.839 112.724 185.57 110.99 185.57 108.85C185.57 106.71 183.839 104.975 181.704 104.975C179.568 104.975 177.837 106.71 177.837 108.85C177.837 110.99 179.568 112.724 181.704 112.724Z" fill="#019043"/>
<path d="M92.9481 385.824L98.7802 385.824L101.555 363.282L92.9468 363.283L92.9481 385.824Z" fill="#FFB6B6"/>
<path d="M92.7425 391.921L110.677 391.92V391.693C110.677 389.838 109.941 388.059 108.632 386.747C107.323 385.435 105.548 384.698 103.696 384.698H103.696L100.42 382.208L94.3078 384.698L92.7422 384.698L92.7425 391.921Z" fill="#2F2E41"/>
<path d="M136.77 385.824L142.602 385.824L145.376 363.282L136.769 363.283L136.77 385.824Z" fill="#FFB6B6"/>
<path d="M136.564 391.921L154.499 391.92V391.693C154.498 389.838 153.763 388.059 152.454 386.747C151.145 385.435 149.369 384.698 147.518 384.698H147.518L144.242 382.208L138.13 384.698L136.564 384.698L136.564 391.921Z" fill="#2F2E41"/>
<path d="M92.7212 202.452L103.071 200.966C106.572 206.832 107.816 222.443 107.816 222.443L117.945 246.568C118.616 247.025 119.155 247.65 119.508 248.382C119.86 249.114 120.015 249.925 119.955 250.736C119.895 251.546 119.623 252.327 119.167 252.998C118.71 253.67 118.085 254.209 117.355 254.562C116.624 254.915 115.814 255.068 115.005 255.007C114.197 254.946 113.418 254.673 112.748 254.215C112.079 253.757 111.541 253.13 111.19 252.397C110.839 251.665 110.687 250.853 110.749 250.042L94.1174 221.962L92.7212 202.452Z" fill="#FFB6B6"/>
<path d="M98.331 173.658C96.729 173.907 95.2014 174.506 93.8568 175.414C92.5122 176.321 91.3838 177.514 90.5517 178.909C89.7197 180.303 89.2045 181.863 89.0428 183.48C88.8811 185.096 89.0769 186.728 89.6163 188.26L91.8127 194.499C91.8127 194.499 89.0459 213.282 93.6056 218.584L107.597 217.315C107.597 217.315 105.039 207.838 107.003 203.253C108.206 200.445 108.139 190.747 106.954 182.857C106.049 176.833 104.339 172.726 98.331 173.658Z" fill="#3F3D56"/>
<path d="M146.582 230.254C146.582 230.254 157.366 240.793 155.063 243.228C152.76 245.662 147.492 249.072 152.382 249.627C157.271 250.182 159.3 251.386 155.063 252.399C150.827 253.411 151.482 256.011 151.482 256.011C151.482 256.011 157.86 286.436 153.026 306.455C153.026 306.455 150.336 361.133 148.648 365.391C146.96 369.649 146.316 367.066 146.96 369.649C147.605 372.232 148.894 367.712 147.605 372.232C146.901 374.594 146.345 376.996 145.937 379.426L133.331 377.489C133.331 377.489 131.301 371.078 133.331 369.395C135.36 367.712 137.181 368.749 134.982 365.002C132.783 361.254 132.138 366.42 132.783 361.254C133.427 356.088 130.737 328.147 134.982 313.381L127.137 271.947L114.682 314.85C114.682 314.85 108.076 367.247 105.929 369.094C103.783 370.941 100.561 367.712 103.783 370.941C107.005 374.17 106.949 373.614 107.005 374.17C107.605 380.093 89.1553 373.614 89.1553 373.614C89.2579 372.109 89.2579 370.599 89.1553 369.094C88.961 367.712 91.283 367.27 89.1553 365.876C87.0276 364.483 90.1936 365.865 90.1936 365.865C90.1936 365.865 94.9514 327.21 98.5713 315.495L102.76 258.45C102.76 258.45 103.026 259.588 102.76 256.823C102.494 254.057 100.561 255.994 102.494 254.057C104.427 252.12 105.716 251.132 104.427 249.689C103.139 248.245 99.5831 245.324 101.683 243.556C103.783 241.787 107.916 230.254 107.916 230.254L148.193 230.577" fill="#2F2E41"/>
<path d="M131.438 166.211L124.176 158.017L112.7 159.294L105.353 169.597C101.442 170.498 98.025 172.867 95.8039 176.216C93.5829 179.565 92.7272 183.639 93.4129 187.601C96.2639 204.052 105.953 220.007 102.754 228.124C97.8972 240.446 97.6009 245.471 109.226 243.743C120.851 242.016 159.797 238.034 152.247 230.467C144.696 222.901 143.037 210.257 143.037 210.257L142.734 181.33C143.055 179.586 143.013 177.793 142.609 176.066C142.205 174.339 141.449 172.714 140.388 171.294C139.327 169.874 137.984 168.689 136.443 167.814C134.903 166.939 133.199 166.394 131.438 166.211Z" fill="#3F3D56"/>
<path d="M129.454 197.931L139.804 196.446C143.305 202.311 144.549 217.923 144.549 217.923L154.678 242.048C155.349 242.504 155.888 243.13 156.24 243.862C156.593 244.593 156.748 245.405 156.688 246.215C156.628 247.026 156.356 247.806 155.9 248.478C155.443 249.149 154.818 249.689 154.088 250.042C153.357 250.394 152.547 250.548 151.738 250.487C150.929 250.426 150.151 250.153 149.481 249.695C148.812 249.236 148.274 248.609 147.923 247.877C147.572 247.144 147.42 246.332 147.481 245.522L130.85 217.442L129.454 197.931Z" fill="#FFB6B6"/>
<path d="M135.064 169.138C133.462 169.387 131.934 169.986 130.59 170.893C129.245 171.801 128.117 172.994 127.285 174.388C126.453 175.782 125.937 177.343 125.776 178.959C125.614 180.576 125.81 182.208 126.349 183.74L128.546 189.978C128.546 189.978 125.779 208.762 130.339 214.064L144.33 212.795C144.33 212.795 141.772 203.318 143.736 198.733C144.939 195.925 144.872 186.226 143.687 178.337C142.782 172.313 141.072 168.206 135.064 169.138Z" fill="#3F3D56"/>
<path d="M115.282 157.311C122.943 157.311 129.153 151.088 129.153 143.412C129.153 135.736 122.943 129.513 115.282 129.513C107.622 129.513 101.412 135.736 101.412 143.412C101.412 151.088 107.622 157.311 115.282 157.311Z" fill="#FFB6B6"/>
<path d="M112.731 157.018C116.594 156.048 116.726 154.942 120.589 153.972C121.819 153.663 123.244 153.177 123.609 151.96C123.695 151.515 123.677 151.056 123.557 150.618C123.436 150.181 123.216 149.778 122.914 149.441C122.305 148.773 121.735 148.071 121.206 147.338C120.856 146.749 120.654 146.083 120.618 145.399C120.581 144.714 120.712 144.031 120.998 143.409C121.285 142.786 121.718 142.243 122.261 141.826C122.804 141.408 123.44 141.13 124.114 141.014C125.309 140.81 126.541 141.127 127.744 140.973C129.393 140.763 131.819 134.631 130.762 133.345C129.733 132.093 128.043 131.346 127.476 129.828C127.104 128.834 127.307 127.723 127.142 126.676C126.897 125.122 123.76 129.423 124.177 127.907C125.202 124.188 107.871 123.602 106.066 128.374C105.392 130.157 103.566 130.44 102.162 131.728C101.242 132.571 99.0408 135.271 98.7216 136.726C98.4574 138.197 98.5082 139.708 98.8709 141.158C100.31 147.955 102.689 153.979 109.022 156.811" fill="#2F2E41"/>
<path d="M3.35207 392.802L254.506 393C254.607 393 254.707 392.981 254.8 392.942C254.894 392.904 254.978 392.847 255.05 392.776C255.121 392.704 255.178 392.619 255.217 392.526C255.255 392.432 255.275 392.332 255.275 392.231C255.275 392.13 255.255 392.03 255.217 391.936C255.178 391.843 255.121 391.758 255.05 391.687C254.978 391.615 254.894 391.559 254.8 391.52C254.707 391.482 254.607 391.462 254.506 391.462L3.35207 391.264C3.25111 391.263 3.1511 391.283 3.05774 391.322C2.96439 391.36 2.87954 391.417 2.80805 391.488C2.73656 391.56 2.67985 391.644 2.64115 391.738C2.60245 391.831 2.58252 391.931 2.58252 392.033C2.58252 392.134 2.60245 392.234 2.64115 392.327C2.67985 392.421 2.73656 392.506 2.80805 392.577C2.87954 392.649 2.96439 392.705 3.05774 392.744C3.1511 392.782 3.25111 392.802 3.35207 392.802Z" fill="#CACACA"/>
</g>
<defs>
<clipPath id="clip0_34_1299">
<rect width="450" height="393" fill="white"/>
</clipPath>
</defs>
</svg>
