<svg width="532" height="372" viewBox="0 0 532 372" fill="none" xmlns="http://www.w3.org/2000/svg">
<g clip-path="url(#clip0_35_1530)">
<path d="M469.809 362.648L460.908 362.648L456.674 328.348L469.81 328.349L469.809 362.648Z" fill="#FFB8B8"/>
<path d="M472.079 371.268L443.38 371.267V370.904C443.381 367.944 444.558 365.106 446.652 363.013C448.747 360.92 451.588 359.744 454.551 359.744H454.551L472.079 359.745L472.079 371.268Z" fill="#2F2E41"/>
<path d="M509.091 340.786L503.314 347.551L474.45 328.505L482.977 318.522L509.091 340.786Z" fill="#FFB8B8"/>
<path d="M517.127 344.656L498.499 366.467L498.223 366.232C495.969 364.311 494.572 361.574 494.338 358.623C494.104 355.673 495.053 352.75 496.976 350.498L496.976 350.498L508.354 337.176L517.127 344.656Z" fill="#2F2E41"/>
<path d="M406.613 193.969L403.842 219.497L515.839 217.901L466.997 138.388L427.118 136.957L406.613 193.969Z" fill="#2F2E41"/>
<path opacity="0.28" d="M406.613 193.969L403.842 219.497L515.839 217.901L466.997 138.388L427.118 136.957L406.613 193.969Z" fill="black"/>
<path d="M428.636 198.351L424.682 221.71V242.588L456.561 252.985C456.561 252.985 452.829 334.082 457.804 339.248L457.682 351.717L471.589 352.348L471.702 343.573L477.598 277.98L481.071 229.822L475.441 193.31L428.636 198.351Z" fill="#2F2E41"/>
<path d="M453.334 218.458L424.682 242.588C424.682 242.588 423.005 286.124 427.263 291.23C430.921 295.615 478.49 333.439 478.49 333.439C478.49 333.439 486.945 341.188 491.683 341.311C496.421 341.435 501.931 331.506 501.931 331.506L490.958 323.177C490.958 323.177 462.532 296.665 454.091 286.124C450.685 281.87 450.685 281.444 450.685 281.444L451.848 263.751L463.559 230.914L453.334 218.458Z" fill="#2F2E41"/>
<path d="M422.915 102.875L410.561 101.734L399.356 103.6L375.629 103.607L373.608 120.789L395.26 125.63L400.537 123.046L422.532 131.419L422.915 102.875Z" fill="#2F2E41"/>
<path d="M437.669 102.821C437.669 102.821 463.886 100.367 469.848 105.047C475.809 109.727 488.584 202.478 488.584 202.478L437.669 205.349L428.541 199.074L431.132 152.769L437.669 102.821Z" fill="#CCCCCC"/>
<path d="M445.672 102.243L416.752 102.877L389.79 224.602L411.082 229.283L445.672 102.243Z" fill="#2F2E41"/>
<path d="M466.23 101.214L489.01 108.338L487.716 158.351L515.839 218.145L482.778 221.624L456.646 157.058L466.23 101.214Z" fill="#2F2E41"/>
<path d="M503.794 224.219C504.593 223.516 505.228 222.647 505.654 221.673C506.08 220.699 506.287 219.644 506.261 218.581C506.235 217.518 505.976 216.474 505.502 215.522C505.028 214.57 504.351 213.734 503.519 213.072L508.102 197.098L499.065 191.948L492.91 214.597C491.89 216.068 491.445 217.861 491.659 219.638C491.874 221.415 492.733 223.052 494.075 224.238C495.417 225.424 497.147 226.077 498.938 226.073C500.73 226.07 502.458 225.41 503.794 224.219Z" fill="#FFB8B8"/>
<path d="M475.81 109.727L489.289 108.559C489.289 108.559 501.39 121.204 504.143 130.995C506.896 140.786 509.877 171.419 509.877 171.419L508.633 216.233L492.877 205.543L491.82 166.997L475.81 109.727Z" fill="#2F2E41"/>
<path d="M472.558 87.2024C477.62 77.951 474.217 66.3516 464.957 61.2944C455.698 56.2371 444.088 59.6371 439.026 68.8885C433.965 78.1398 437.368 89.7392 446.627 94.7965C455.887 99.8537 467.496 96.4537 472.558 87.2024Z" fill="#FFB8B8"/>
<path d="M453.662 70.0754C451.155 69.4967 448.552 70.138 446.013 70.5538C443.474 70.9695 440.676 71.1066 438.528 69.6911C436.942 68.6458 435.967 66.9165 435.051 65.253C434.669 64.6589 434.414 63.9921 434.303 63.2947C434.195 62.0644 434.978 60.942 435.81 60.0284C439.674 55.7852 445.32 53.4628 451.014 52.7251C455.709 52.0259 460.507 52.6112 464.896 54.4188C469.218 56.3129 472.934 59.7814 474.633 64.1807C475.416 66.4322 475.905 68.7753 476.088 71.1518C476.344 72.9003 476.377 74.6744 476.186 76.4312C475.957 77.7336 475.614 79.0134 475.161 80.256L472.347 88.7483C472.144 89.5507 471.766 90.2984 471.24 90.9373C470.969 91.2502 470.605 91.4672 470.2 91.5557C469.796 91.6441 469.374 91.5994 468.997 91.4281C469.223 90.5057 469.257 89.5471 469.098 88.611C469.01 88.1444 468.784 87.7149 468.45 87.3778C468.115 87.0407 467.687 86.8114 467.221 86.7194C466.183 86.6094 465.297 87.413 464.313 87.7591C463.862 87.8925 463.39 87.936 462.923 87.887C462.456 87.838 462.003 87.6976 461.59 87.4737C461.177 87.2498 460.812 86.9468 460.516 86.5821C460.22 86.2174 459.999 85.798 459.866 85.3479C459.839 85.2572 459.816 85.1655 459.796 85.0729C459.641 84.102 459.902 83.0626 459.533 82.1509C459.102 81.0827 457.957 80.523 457.098 79.7554C456.313 79.0321 455.752 78.1 455.479 77.0688C455.207 76.0376 455.235 74.9502 455.559 73.9342C455.79 73.2275 456.44 72.9062 456.31 72.0943C456.139 71.0291 454.567 70.2844 453.662 70.0754Z" fill="#2F2E41"/>
<path d="M241.231 150.774H0V0H241.231V150.774Z" fill="white"/>
<path d="M241.231 150.774H0V0H241.231V150.774ZM1.10151 149.673H240.129V1.10054H1.10151V149.673Z" fill="#3F3D56"/>
<path d="M211.765 359.601H74.0767V208.828H211.765V359.601Z" fill="white"/>
<path d="M211.765 359.601H74.0767V208.828H211.765V359.601ZM75.1782 358.501H210.664V209.928H75.1782V358.501Z" fill="#3F3D56"/>
<path d="M193.04 345.361H164.4V346.521H193.04V345.361Z" fill="#3F3D56"/>
<path d="M193.04 348.841H164.4V350.001H193.04V348.841Z" fill="#3F3D56"/>
<path d="M193.04 352.321H164.4V353.481H193.04V352.321Z" fill="#3F3D56"/>
<path d="M142.921 235.791V247.896C150.11 247.896 157.138 250.026 163.116 254.017C169.093 258.008 173.753 263.68 176.504 270.316C179.255 276.952 179.975 284.255 178.572 291.299C177.17 298.344 173.708 304.816 168.624 309.895L177.192 318.455C183.97 311.683 188.586 303.054 190.456 293.661C192.326 284.268 191.366 274.532 187.698 265.683C184.03 256.835 177.818 249.272 169.847 243.951C161.877 238.631 152.507 235.791 142.921 235.791Z" fill="#E6E6E6"/>
<path d="M177.192 318.455L168.624 309.895C162.41 316.105 154.153 319.855 145.383 320.449C136.614 321.043 127.926 318.441 120.929 313.126L113.595 322.767C122.926 329.852 134.51 333.32 146.203 332.527C157.896 331.734 168.905 326.735 177.192 318.455Z" fill="#575A89"/>
<path d="M106.571 284.214C106.571 279.445 107.511 274.722 109.338 270.316C111.165 265.91 113.842 261.906 117.218 258.534C120.593 255.161 124.6 252.486 129.011 250.661C133.421 248.836 138.148 247.896 142.921 247.896V235.791C132.775 235.79 122.885 238.972 114.645 244.886C106.405 250.8 100.23 259.148 96.9907 268.755C93.7517 278.361 93.6118 288.741 96.5907 298.431C99.5697 308.122 105.517 316.633 113.595 322.767L120.929 313.126C116.464 309.742 112.843 305.37 110.352 300.354C107.861 295.338 106.567 289.814 106.571 284.214Z" fill="#019043"/>
<path d="M415.545 266.055H277.856V115.281H415.545V266.055Z" fill="white"/>
<path d="M415.545 266.055H277.856V115.281H415.545V266.055ZM278.957 264.955H414.443V116.382H278.957V264.955Z" fill="#3F3D56"/>
<path d="M322.467 207.452H297.683V247.071H322.467V207.452Z" fill="#575A89"/>
<path d="M358.266 180.488H333.482V247.071H358.266V180.488Z" fill="#E6E6E6"/>
<path d="M394.065 149.123H369.281V247.071H394.065V149.123Z" fill="#019043"/>
<path d="M402.327 248.172H291.074V133.165H292.175V247.071H402.327V248.172Z" fill="#3F3D56"/>
<path d="M375.504 119.296C379.694 119.296 383.09 115.902 383.09 111.717C383.09 107.531 379.694 104.138 375.504 104.138C371.315 104.138 367.918 107.531 367.918 111.717C367.918 115.902 371.315 119.296 375.504 119.296Z" fill="#FFB8B8"/>
<path d="M531.368 372H413.159C412.991 372 412.83 371.933 412.712 371.815C412.593 371.697 412.526 371.536 412.526 371.368C412.526 371.201 412.593 371.04 412.712 370.922C412.83 370.803 412.991 370.737 413.159 370.737H531.368C531.536 370.737 531.696 370.803 531.815 370.922C531.934 371.04 532 371.201 532 371.368C532 371.536 531.934 371.697 531.815 371.815C531.696 371.933 531.536 372 531.368 372Z" fill="#CCCCCC"/>
<path d="M207.73 119.241H33.5013C33.3567 119.241 33.218 119.184 33.1158 119.082C33.0135 118.979 32.9561 118.841 32.9561 118.696V35.2624C32.9561 35.1179 33.0135 34.9794 33.1157 34.8772C33.218 34.775 33.3567 34.7177 33.5013 34.7177C33.6459 34.7177 33.7846 34.775 33.8869 34.8772C33.9891 34.9794 34.0466 35.1179 34.0466 35.2624V118.152H207.73C207.801 118.151 207.873 118.165 207.939 118.193C208.005 118.22 208.066 118.26 208.116 118.311C208.167 118.361 208.208 118.421 208.235 118.488C208.263 118.554 208.277 118.625 208.277 118.696C208.277 118.768 208.263 118.839 208.235 118.905C208.208 118.972 208.167 119.032 208.116 119.082C208.066 119.133 208.005 119.173 207.939 119.2C207.873 119.228 207.801 119.241 207.73 119.241Z" fill="#3F3D56"/>
<path d="M70.7261 113.249H54.8793C54.4502 113.248 54.0388 113.078 53.7354 112.775C53.4319 112.471 53.2613 112.06 53.2607 111.632V89.8061C53.2613 89.3774 53.4319 88.9664 53.7354 88.6632C54.0388 88.3601 54.4502 88.1896 54.8793 88.1891H70.7261C71.1552 88.1896 71.5666 88.3601 71.87 88.6632C72.1734 88.9664 72.3442 89.3774 72.3447 89.8061V111.632C72.3442 112.06 72.1735 112.471 71.87 112.775C71.5666 113.078 71.1552 113.248 70.7261 113.249Z" fill="#019043"/>
<path d="M99.6245 113.249H83.7778C83.3487 113.248 82.9373 113.078 82.6338 112.775C82.3304 112.471 82.1597 112.06 82.1592 111.632V69.1047C82.1597 68.676 82.3304 68.265 82.6338 67.9618C82.9373 67.6587 83.3487 67.4881 83.7778 67.4877H99.6245C100.054 67.4881 100.465 67.6587 100.768 67.9618C101.072 68.265 101.243 68.676 101.243 69.1047V111.632C101.243 112.06 101.072 112.471 100.768 112.775C100.465 113.078 100.054 113.248 99.6245 113.249Z" fill="#019043"/>
<path d="M128.523 113.249H112.677C112.248 113.248 111.836 113.078 111.533 112.775C111.229 112.471 111.059 112.06 111.058 111.632V89.8061C111.059 89.3774 111.229 88.9664 111.533 88.6632C111.836 88.3601 112.248 88.1896 112.677 88.1891H128.523C128.953 88.1896 129.364 88.3601 129.667 88.6632C129.971 88.9664 130.142 89.3774 130.142 89.8061V111.632C130.142 112.06 129.971 112.471 129.667 112.775C129.364 113.078 128.953 113.248 128.523 113.249Z" fill="#019043"/>
<path d="M157.422 113.249H141.575C141.156 113.258 140.75 113.1 140.447 112.811C140.143 112.522 139.967 112.124 139.957 111.705V60.8598C139.967 60.4409 140.143 60.0432 140.447 59.7538C140.75 59.4644 141.156 59.307 141.575 59.316H157.422C157.841 59.307 158.247 59.4644 158.55 59.7538C158.854 60.0432 159.03 60.4409 159.04 60.8598V111.705C159.03 112.124 158.854 112.522 158.55 112.811C158.247 113.1 157.841 113.258 157.422 113.249Z" fill="#019043"/>
<path d="M186.32 113.249H170.474C170.044 113.248 169.633 113.078 169.33 112.775C169.026 112.471 168.855 112.06 168.855 111.632V46.2242C168.855 45.7955 169.026 45.3845 169.33 45.0813C169.633 44.7782 170.044 44.6077 170.474 44.6072H186.32C186.749 44.6077 187.161 44.7782 187.464 45.0813C187.768 45.3845 187.938 45.7955 187.939 46.2242V111.632C187.938 112.06 187.768 112.471 187.464 112.775C187.161 113.078 186.749 113.248 186.32 113.249Z" fill="#019043"/>
<path d="M62.8028 81.6518C64.6096 81.6518 66.0743 80.1884 66.0743 78.3832C66.0743 76.5779 64.6096 75.1145 62.8028 75.1145C60.996 75.1145 59.5312 76.5779 59.5312 78.3832C59.5312 80.1884 60.996 81.6518 62.8028 81.6518Z" fill="#3F3D56"/>
<path d="M91.7012 60.4056C93.508 60.4056 94.9728 58.9422 94.9728 57.1369C94.9728 55.3317 93.508 53.8683 91.7012 53.8683C89.8944 53.8683 88.4297 55.3317 88.4297 57.1369C88.4297 58.9422 89.8944 60.4056 91.7012 60.4056Z" fill="#3F3D56"/>
<path d="M120.6 81.6518C122.407 81.6518 123.872 80.1884 123.872 78.3832C123.872 76.5779 122.407 75.1145 120.6 75.1145C118.793 75.1145 117.329 76.5779 117.329 78.3832C117.329 80.1884 118.793 81.6518 120.6 81.6518Z" fill="#3F3D56"/>
<path d="M149.499 50.0549C151.305 50.0549 152.77 48.5914 152.77 46.7862C152.77 44.981 151.305 43.5176 149.499 43.5176C147.692 43.5176 146.227 44.981 146.227 46.7862C146.227 48.5914 147.692 50.0549 149.499 50.0549Z" fill="#3F3D56"/>
<path d="M178.397 38.0699C180.204 38.0699 181.669 36.6065 181.669 34.8012C181.669 32.996 180.204 31.5326 178.397 31.5326C176.59 31.5326 175.125 32.996 175.125 34.8012C175.125 36.6065 176.59 38.0699 178.397 38.0699Z" fill="#3F3D56"/>
<path d="M120.669 79.1154L91.7016 57.4377L63.1297 78.8192L62.4761 77.947L91.7016 56.0761L120.531 77.6508L149.18 46.3276L149.295 46.2809L178.193 34.6472L178.601 35.6584L149.817 47.2453L120.669 79.1154Z" fill="#3F3D56"/>
</g>
<defs>
<clipPath id="clip0_35_1530">
<rect width="532" height="372" fill="white"/>
</clipPath>
</defs>
</svg>
