<svg width="387" height="467" viewBox="0 0 387 467" fill="none" xmlns="http://www.w3.org/2000/svg">
<g clip-path="url(#clip0_34_1246)">
<path d="M125.294 204.54C125.294 204.54 133.906 213.449 134.67 218.472L127.179 222.791L118.532 207.622L113.972 187.373C113.543 186.943 113.236 186.408 113.081 185.822C112.926 185.235 112.929 184.618 113.089 184.033C113.25 183.447 113.562 182.915 113.994 182.49C114.426 182.064 114.963 181.761 115.55 181.611C116.138 181.46 116.754 181.468 117.337 181.633C117.921 181.798 118.45 182.115 118.871 182.551C119.293 182.988 119.591 183.528 119.737 184.117C119.882 184.706 119.87 185.323 119.7 185.905L125.294 204.54Z" fill="#FFB6B6"/>
<path d="M205.166 183.178C205.018 182.589 205.028 181.972 205.196 181.389C205.363 180.806 205.681 180.277 206.119 179.857C206.556 179.437 207.096 179.14 207.685 178.996C208.274 178.853 208.891 178.868 209.472 179.04C210.053 179.212 210.579 179.535 210.995 179.976C211.411 180.417 211.703 180.961 211.842 181.552C211.98 182.142 211.96 182.759 211.784 183.34C211.607 183.92 211.28 184.444 210.836 184.857L205.529 204.923L196.326 219.76L189 215.166C189.95 210.175 198.885 201.592 198.885 201.592L205.166 183.178Z" fill="#FFB6B6"/>
<path d="M68.6994 255.96C68.6455 244.134 73.1793 232.988 78.2187 222.5C83.4261 211.664 89.3542 201.033 92.2969 189.284C94.0152 182.814 94.4332 176.067 93.5264 169.434C93.3486 168.252 91.5537 168.754 91.7305 169.93C93.5349 181.93 89.6345 193.882 84.7774 204.705C79.9609 215.437 73.9565 225.647 70.1987 236.839C68.0372 242.985 66.9014 249.445 66.8369 255.96C66.8453 256.201 66.9471 256.43 67.1208 256.598C67.2945 256.766 67.5266 256.86 67.7682 256.86C68.0097 256.86 68.2418 256.766 68.4156 256.598C68.5893 256.43 68.6911 256.201 68.6994 255.96H68.6994Z" fill="#E6E6E6"/>
<path d="M122.829 259.928C122.431 254.894 125.981 250.693 130.171 248.383C135.489 245.45 141.924 245.702 147.801 245.876C153.829 246.117 159.868 245.83 165.846 245.017C179.965 242.963 193.399 237.6 205.055 229.364C216.711 221.128 226.258 210.252 232.92 197.622C238.447 187.147 242.338 175.069 240.784 163.107C240.596 161.652 240.329 160.209 239.983 158.784C239.699 157.618 237.902 158.112 238.187 159.279C241.08 171.164 237.763 183.612 232.503 194.34C227.669 204.175 221.074 213.039 213.047 220.493C204.64 228.3 194.791 234.388 184.053 238.415C178.477 240.503 172.708 242.035 166.832 242.991C160.876 243.913 154.845 244.265 148.822 244.042C142.834 243.867 136.488 243.551 130.86 245.977C126.456 247.876 122.367 251.637 121.233 256.445C120.964 257.585 120.874 258.76 120.966 259.928C121.06 261.116 122.924 261.126 122.829 259.928V259.928Z" fill="#E6E6E6"/>
<path d="M312.521 87.5777C310.33 86.5895 308.175 85.6385 306.114 84.7622C305.804 84.6316 305.493 84.4949 305.183 84.3644L305.146 84.3457C303.289 83.5502 301.429 82.7712 299.564 82.0088C298.261 81.4742 296.963 80.946 295.659 80.4301C295.15 80.2188 294.641 80.0199 294.126 79.821C293.3 79.4916 292.468 79.1684 291.642 78.8452C290.959 78.578 290.27 78.3169 289.587 78.0559C288.799 77.7513 288.011 77.4592 287.228 77.1609C286.297 76.8128 285.368 76.4689 284.441 76.1291C284.431 76.1241 284.42 76.1219 284.41 76.1229C283.708 75.8619 283.007 75.6071 282.311 75.3584C272.868 71.9525 263.289 68.907 253.827 66.3028C253.486 66.2096 253.144 66.1163 252.803 66.0231C252.213 65.8615 251.623 65.6999 251.033 65.5383C249.99 65.2586 248.943 64.9851 247.892 64.7179C246.905 64.4568 245.912 64.2082 244.918 63.9596C244.043 63.7421 243.167 63.5245 242.286 63.3132C241.423 63.1019 240.56 62.8968 239.691 62.6979C237.102 62.0888 234.517 61.5128 231.936 60.9701C231.918 60.9649 231.899 60.9628 231.881 60.9639C231.26 60.8271 230.645 60.6966 230.024 60.5723C220.6 58.6393 211.014 57.0855 201.534 55.9481C201.068 55.8922 200.603 55.8363 200.137 55.7865H200.125C200.044 55.7741 199.957 55.7679 199.876 55.7617C199.094 55.6684 198.312 55.5814 197.53 55.5006C196.499 55.3888 195.475 55.2831 194.444 55.1837C192.004 54.9413 189.569 54.7299 187.137 54.5497C186.522 54.5 185.914 54.4565 185.305 54.4192C184.604 54.3632 183.902 54.3197 183.207 54.2762C182.487 54.2265 181.767 54.183 181.046 54.1457C180.773 54.127 180.506 54.1146 180.239 54.1022C179.904 54.0773 179.563 54.0649 179.227 54.0463C178.725 54.0214 178.222 53.9965 177.719 53.9717C168.257 53.5179 158.678 53.4807 149.241 53.8598C148.719 53.8784 148.198 53.9033 147.67 53.9282H147.652C147.273 53.9468 146.894 53.9592 146.509 53.9779C146.373 53.9841 146.23 53.9903 146.093 53.9965C145.156 54.0463 144.218 54.096 143.281 54.1519C142.281 54.2078 141.288 54.27 140.295 54.3384C139.668 54.3819 139.047 54.4254 138.426 54.4689C138.016 54.5 137.607 54.531 137.191 54.5621C134.595 54.761 132 54.991 129.424 55.252C128.561 55.339 127.704 55.426 126.847 55.5193C126.369 55.569 125.898 55.6187 125.426 55.6747C115.964 56.7437 106.378 58.254 96.9417 60.1559C96.3209 60.2802 95.6938 60.4107 95.0668 60.5412C95.0544 60.5412 95.0419 60.5474 95.0295 60.5474C94.9364 60.5661 94.8371 60.5847 94.7439 60.6096C94.0983 60.7401 93.4464 60.8768 92.8007 61.0198C92.0868 61.169 91.379 61.3243 90.665 61.4797C90.069 61.6102 89.473 61.747 88.877 61.8837C87.4739 62.2007 86.0646 62.5239 84.6615 62.8657C81.8057 63.5494 78.9519 64.2725 76.1002 65.0349C75.4545 65.2089 74.8027 65.3829 74.1508 65.5632C74.146 65.5636 74.1416 65.5658 74.1384 65.5694C73.8031 65.6564 73.4616 65.7496 73.1264 65.8428C63.6897 68.4408 54.1102 71.5112 44.6486 74.9793C43.9533 75.2341 43.2579 75.489 42.5564 75.7562C42.5392 75.7574 42.5224 75.7616 42.5067 75.7687C40.6256 76.471 38.7341 77.1919 36.8323 77.9316C36.1431 78.205 35.4478 78.4785 34.7525 78.752C34.082 79.0192 33.4053 79.2865 32.7347 79.56C32.145 79.7962 31.5614 80.0323 30.9716 80.2747C30.4997 80.4674 30.0341 80.6601 29.5623 80.8527C27.9481 81.524 26.336 82.2035 24.726 82.8914C23.7512 83.314 22.7703 83.7366 21.7956 84.1655C21.479 84.3022 21.1561 84.439 20.8395 84.5819C18.4927 85.6199 16.3571 86.5832 14.3083 87.5342C12.1264 88.5444 10.2779 90.1573 8.98013 92.1831C7.68239 94.209 6.98932 96.5636 6.98242 98.9703V120.904C6.98241 122.858 7.4372 124.785 8.31072 126.533C9.18424 128.28 10.4525 129.8 12.0148 130.972C13.5772 132.143 15.3907 132.934 17.3115 133.281C19.2323 133.629 21.2076 133.524 23.0807 132.974C24.0058 132.701 24.9308 132.427 25.8621 132.154C26.6381 131.924 27.4204 131.7 28.1964 131.476C29.047 131.234 29.8913 130.991 30.7419 130.749C32.685 130.208 34.6407 129.668 36.5964 129.145C37.509 128.903 38.4216 128.661 39.3342 128.418C40.7684 128.039 42.2025 127.672 43.6366 127.306C44.034 127.206 44.4313 127.107 44.8286 127.007C51.0681 125.441 57.3385 123.987 63.5593 122.669C64.1988 122.532 64.8382 122.402 65.4715 122.271C68.0852 121.724 70.6844 121.206 73.2692 120.718L75.1317 120.363H75.1503C75.7588 120.245 76.3672 120.133 76.9756 120.021C78.6767 119.711 80.3881 119.408 82.1099 119.114C83.097 118.94 84.0904 118.772 85.0837 118.611C85.1831 118.592 85.2824 118.573 85.3817 118.561C87.0952 118.275 88.8129 117.999 90.5347 117.734C91.7018 117.554 92.8752 117.374 94.0486 117.206C95.0482 117.057 96.0477 116.914 97.0472 116.771C106.521 115.441 116.088 114.378 125.488 113.632C126.301 113.564 127.114 113.502 127.928 113.439C131.082 113.203 134.26 112.992 137.445 112.818C141.381 112.607 145.33 112.439 149.26 112.321C158.696 112.029 168.263 112.029 177.694 112.321C181.63 112.439 185.579 112.607 189.515 112.818C192.7 112.992 195.878 113.203 199.032 113.439C199.845 113.502 200.659 113.564 201.472 113.632C210.865 114.378 220.432 115.435 229.919 116.771C230.372 116.833 230.819 116.901 231.272 116.964C231.434 116.988 231.589 117.007 231.75 117.032C232.439 117.131 233.129 117.237 233.818 117.336C236.407 117.722 238.993 118.13 241.578 118.561C242.242 118.667 242.907 118.778 243.565 118.89C244.987 119.133 246.402 119.379 247.811 119.63C248.631 119.779 249.444 119.928 250.257 120.077C250.773 120.171 251.294 120.264 251.81 120.363C252.437 120.481 253.064 120.599 253.684 120.718C254.709 120.91 255.733 121.109 256.764 121.314C257.409 121.445 258.061 121.569 258.713 121.706C265.66 123.104 272.676 124.677 279.66 126.392C280.387 126.572 281.113 126.753 281.839 126.933C281.939 126.958 282.032 126.983 282.131 127.007C282.882 127.194 283.634 127.387 284.385 127.579C285.459 127.853 286.535 128.132 287.613 128.418C288.526 128.654 289.438 128.897 290.351 129.145C293.17 129.898 295.988 130.681 298.788 131.482C300.496 131.973 302.195 132.471 303.885 132.974H303.898C304.571 133.174 305.261 133.315 305.959 133.397C306.453 133.459 306.951 133.49 307.449 133.49C310.777 133.483 313.966 132.153 316.316 129.793C318.665 127.433 319.982 124.236 319.977 120.904V99.0697C319.971 96.639 319.264 94.2617 317.942 92.2232C316.619 90.1847 314.737 88.5717 312.521 87.5777Z" fill="#019043"/>
<path d="M44.2451 75.9862C44.0017 75.8172 43.7218 75.7083 43.4284 75.6684C43.1349 75.6284 42.8361 75.6585 42.5565 75.7562C42.5393 75.7574 42.5225 75.7616 42.5068 75.7687C40.6257 76.471 38.7342 77.1919 36.8323 77.9316C36.1432 78.205 35.4479 78.4785 34.7525 78.752C34.082 79.0192 33.4053 79.2865 32.7348 79.56C32.145 79.7962 31.5614 80.0323 30.9716 80.2747C30.4998 80.4674 30.0342 80.6601 29.5623 80.8527C27.9482 81.524 26.3361 82.2035 24.726 82.8914C23.7513 83.314 22.7704 83.7366 21.7957 84.1655C21.4561 84.3136 21.167 84.5578 20.9641 84.868C20.7612 85.1783 20.6532 85.5411 20.6533 85.912V131.141C20.6521 131.439 20.7212 131.734 20.8549 132C20.9887 132.267 21.1834 132.498 21.4232 132.676C21.5755 132.788 21.7426 132.878 21.9198 132.943C22.2943 133.075 22.701 133.084 23.0808 132.968L25.8559 132.147C26.632 131.924 27.408 131.7 28.1841 131.476C29.0347 131.234 29.8852 130.991 30.742 130.749C32.6851 130.208 34.6408 129.668 36.5965 129.145C37.5091 128.897 38.4217 128.654 39.3344 128.418C40.7685 128.039 42.2026 127.672 43.6368 127.306C43.9908 127.215 44.3117 127.025 44.5618 126.759L44.568 126.753C44.8868 126.402 45.0639 125.946 45.0647 125.472V77.5524C45.0649 77.2445 44.9904 76.941 44.8477 76.6682C44.7049 76.3954 44.4982 76.1614 44.2451 75.9862Z" fill="#3F3D56"/>
<path d="M96.6064 60.9328C96.3945 60.7579 96.1465 60.6321 95.8803 60.5644C95.6142 60.4967 95.3363 60.4888 95.0667 60.5412C95.0543 60.5412 95.0419 60.5474 95.0295 60.5474C94.9363 60.5661 94.837 60.5847 94.7439 60.6096C94.0982 60.7401 93.4463 60.8768 92.8007 61.0198C92.0867 61.169 91.3789 61.3243 90.665 61.4797C90.069 61.6102 89.473 61.747 88.877 61.8837C87.4739 62.2007 86.0646 62.5239 84.6615 62.8657C81.7994 63.5494 78.9456 64.2725 76.1001 65.0349C75.5041 65.1902 74.9019 65.3518 74.3059 65.5134C74.2533 65.5272 74.2015 65.5438 74.1507 65.5632C74.1459 65.5636 74.1415 65.5658 74.1383 65.5694C73.7761 65.7064 73.4641 65.9504 73.2435 66.2689C73.0229 66.5875 72.9041 66.9655 72.9028 67.3532V118.499C72.9022 118.777 72.9631 119.053 73.0811 119.305C73.1992 119.558 73.3715 119.781 73.5858 119.959C73.7327 120.082 73.8982 120.181 74.0762 120.251C74.3048 120.345 74.5493 120.394 74.7964 120.394C74.9088 120.393 75.0209 120.383 75.1316 120.363H75.1503C75.7587 120.245 76.3671 120.133 76.9755 120.021C78.6766 119.711 80.3881 119.408 82.1098 119.114C83.097 118.94 84.0903 118.772 85.0837 118.611C85.183 118.592 85.2823 118.573 85.3817 118.561C87.0952 118.275 88.8128 117.999 90.5346 117.734C91.7018 117.554 92.8752 117.374 94.0485 117.206C94.5949 117.119 95.1412 117.044 95.6875 116.964C96.0493 116.913 96.3883 116.758 96.6623 116.516C96.8662 116.338 97.0299 116.118 97.1423 115.872C97.2547 115.625 97.3133 115.358 97.3141 115.087V62.412C97.3144 62.1281 97.2509 61.8478 97.1284 61.5918C97.0059 61.3358 96.8275 61.1106 96.6064 60.9328Z" fill="#3F3D56"/>
<path d="M148.974 54.4565C148.622 54.1214 148.156 53.9326 147.671 53.9282H147.577C147.224 53.9468 146.864 53.9592 146.51 53.9779C146.373 53.9841 146.23 53.9903 146.094 53.9965C145.156 54.0463 144.219 54.096 143.281 54.1519C142.282 54.2078 141.288 54.27 140.295 54.3384C139.668 54.3819 139.047 54.4254 138.426 54.4689C138.017 54.5 137.607 54.531 137.191 54.5621C134.596 54.761 132.001 54.991 129.424 55.252C128.561 55.339 127.704 55.426 126.848 55.5193C126.381 55.5696 125.95 55.7912 125.637 56.1413C125.324 56.4914 125.151 56.9451 125.153 57.4149V111.606C125.152 111.867 125.206 112.125 125.311 112.363C125.416 112.602 125.569 112.816 125.761 112.992C125.877 113.101 126.006 113.195 126.146 113.272C126.425 113.422 126.736 113.501 127.053 113.502C127.096 113.502 127.146 113.495 127.195 113.495C127.438 113.477 127.686 113.458 127.928 113.439C131.082 113.203 134.261 112.992 137.445 112.818C140.879 112.625 144.312 112.476 147.726 112.364C148.096 112.359 148.455 112.242 148.757 112.029C149.008 111.853 149.212 111.62 149.352 111.348C149.493 111.076 149.566 110.775 149.564 110.469V55.8362C149.565 55.5781 149.513 55.3225 149.412 55.0852C149.311 54.8479 149.162 54.6339 148.974 54.4565Z" fill="#3F3D56"/>
<path d="M200.137 55.7865H200.125C200.044 55.7741 199.957 55.7679 199.877 55.7617C199.094 55.6684 198.312 55.5814 197.53 55.5006C196.499 55.3887 195.475 55.2831 194.444 55.1836C192.004 54.9413 189.569 54.7299 187.137 54.5497C186.522 54.5 185.914 54.4565 185.305 54.4192C184.604 54.3632 183.902 54.3197 183.207 54.2762C182.487 54.2265 181.767 54.183 181.047 54.1457C180.773 54.127 180.506 54.1146 180.239 54.1022C179.954 54.0835 179.675 54.0649 179.395 54.0525C179.339 54.0473 179.283 54.0452 179.227 54.0462C178.765 54.06 178.324 54.2462 177.992 54.5683C177.803 54.7462 177.653 54.961 177.55 55.1994C177.448 55.4378 177.395 55.6948 177.396 55.9543V110.469C177.394 110.775 177.468 111.078 177.609 111.35C177.751 111.621 177.957 111.855 178.209 112.029C178.509 112.242 178.866 112.359 179.234 112.364C182.648 112.476 186.082 112.625 189.515 112.818C192.7 112.992 195.878 113.203 199.032 113.439C199.274 113.458 199.523 113.477 199.765 113.495C199.814 113.495 199.858 113.502 199.908 113.502C200.224 113.501 200.536 113.422 200.814 113.272C200.954 113.195 201.083 113.101 201.199 112.992C201.39 112.815 201.543 112.601 201.647 112.362C201.752 112.124 201.806 111.866 201.807 111.606V57.676C201.806 57.2117 201.635 56.7638 201.328 56.4161C201.021 56.0684 200.597 55.8446 200.137 55.7865Z" fill="#3F3D56"/>
<path d="M252.803 66.0231C252.754 66.0038 252.704 65.9872 252.654 65.9734C252.114 65.8242 251.574 65.6813 251.033 65.5383C249.99 65.2586 248.943 64.9851 247.892 64.7179C246.905 64.4568 245.911 64.2082 244.918 63.9596C244.043 63.7421 243.167 63.5245 242.286 63.3132C241.423 63.1019 240.56 62.8968 239.691 62.6979C237.102 62.0888 234.517 61.5129 231.936 60.9701C231.918 60.9649 231.899 60.9628 231.881 60.9639C231.613 60.9137 231.337 60.9228 231.074 60.9904C230.81 61.0581 230.564 61.1827 230.353 61.3554C230.132 61.5332 229.954 61.7584 229.831 62.0144C229.709 62.2705 229.645 62.5508 229.646 62.8347V115.087C229.646 115.358 229.705 115.626 229.819 115.873C229.932 116.12 230.098 116.339 230.304 116.516C230.575 116.758 230.912 116.913 231.272 116.964C231.434 116.988 231.589 117.007 231.75 117.032C232.439 117.131 233.128 117.231 233.818 117.336C236.406 117.722 238.993 118.13 241.578 118.561C242.242 118.667 242.907 118.778 243.565 118.89C244.986 119.133 246.402 119.379 247.811 119.63C248.631 119.779 249.444 119.928 250.257 120.077C250.773 120.171 251.294 120.264 251.809 120.363C251.926 120.383 252.045 120.393 252.163 120.394C252.41 120.394 252.655 120.346 252.883 120.251C253.062 120.182 253.228 120.083 253.374 119.959C253.588 119.781 253.761 119.558 253.879 119.305C253.997 119.053 254.058 118.777 254.057 118.499V67.8131C254.056 67.4221 253.936 67.0407 253.711 66.7205C253.487 66.4004 253.17 66.1569 252.803 66.0231Z" fill="#3F3D56"/>
<path d="M305.183 84.3644L305.146 84.3457C303.29 83.5502 301.429 82.7712 299.565 82.0088C298.261 81.4742 296.963 80.946 295.66 80.4301C295.15 80.2188 294.641 80.0199 294.126 79.821C293.3 79.4916 292.468 79.1684 291.643 78.8452C290.96 78.578 290.271 78.3169 289.588 78.0559C288.799 77.7513 288.011 77.4592 287.229 77.1609C286.297 76.8128 285.368 76.4689 284.441 76.1291C284.431 76.1241 284.421 76.122 284.41 76.1229C284.128 76.0215 283.827 75.9899 283.53 76.0311C283.234 76.0722 282.952 76.1848 282.709 76.3591C282.458 76.5343 282.253 76.7677 282.111 77.0393C281.969 77.3109 281.896 77.6127 281.896 77.9191V125.472C281.896 125.867 282.019 126.252 282.249 126.572C282.294 126.635 282.341 126.695 282.392 126.753L282.398 126.759C282.648 127.027 282.969 127.217 283.323 127.306C283.677 127.393 284.031 127.486 284.385 127.579C285.459 127.853 286.535 128.132 287.613 128.418C288.526 128.654 289.439 128.897 290.351 129.145C293.17 129.898 295.989 130.681 298.789 131.482C300.496 131.973 302.195 132.471 303.886 132.974H303.898C304.07 133.023 304.247 133.048 304.426 133.049C304.635 133.048 304.843 133.012 305.04 132.943C305.219 132.88 305.386 132.79 305.537 132.676C305.775 132.497 305.968 132.265 306.101 131.999C306.233 131.732 306.302 131.438 306.301 131.141V86.0984C306.301 85.7323 306.196 85.3737 305.998 85.066C305.8 84.7583 305.517 84.5146 305.183 84.3644Z" fill="#3F3D56"/>
<path d="M25.9038 132.184C33.9885 137.638 42.43 142.542 50.9372 147.299C60.0379 152.389 69.2337 157.306 78.336 162.393C87.4934 167.51 96.5695 172.792 105.325 178.578C113.838 184.094 121.887 190.297 129.392 197.126C136.5 203.712 142.937 211.072 147.997 219.36C148.601 220.349 149.184 221.349 149.747 222.361C150.332 223.409 151.941 222.47 151.355 221.42C146.536 212.971 140.535 205.254 133.536 198.503C126.216 191.448 118.292 185.049 109.853 179.382C101.155 173.422 92.0881 168.021 82.9162 162.829C73.7712 157.653 64.5076 152.691 55.3145 147.602C46.6608 142.811 38.0503 137.915 29.7611 132.509C28.7836 131.872 27.8112 131.227 26.8438 130.574C25.8471 129.902 24.9139 131.516 25.9038 132.184H25.9038Z" fill="#3F3D56"/>
<path d="M57.3277 110.304C61.2012 119.043 65.9603 127.36 71.5301 135.126C77.2304 143.079 83.3274 150.74 89.7982 158.079C96.2709 165.544 102.937 172.837 109.457 180.261C115.902 187.6 122.222 195.068 127.993 202.956C133.72 210.633 138.694 218.845 142.846 227.479C143.348 228.549 143.834 229.627 144.303 230.712C144.778 231.811 146.383 230.862 145.911 229.771C142.037 221.033 137.278 212.715 131.708 204.949C126.008 196.996 119.911 189.335 113.44 181.996C106.968 174.531 100.301 167.238 93.7814 159.815C87.336 152.475 81.0164 145.007 75.2452 137.119C69.5183 129.442 64.5445 121.23 60.3928 112.596C59.8904 111.526 59.4048 110.448 58.9359 109.363C58.4606 108.265 56.8555 109.213 57.3277 110.304Z" fill="#3F3D56"/>
<path d="M285 121.423C277.897 128.208 270.374 134.54 262.476 140.38C254.281 146.555 245.863 152.426 237.488 158.35C229.125 164.266 220.792 170.233 212.763 176.597C205.015 182.614 197.739 189.217 190.999 196.347C184.709 203.137 179.071 210.614 174.845 218.873C174.337 219.867 173.85 220.87 173.384 221.884C172.885 222.966 174.49 223.915 174.992 222.825C178.924 214.523 184.044 206.84 190.19 200.016C196.689 192.801 203.773 186.136 211.37 180.091C219.263 173.677 227.506 167.71 235.796 161.825C244.178 155.874 252.626 150.012 260.881 143.884C268.857 138.078 276.5 131.828 283.775 125.164C284.631 124.365 285.478 123.558 286.317 122.741C287.178 121.903 285.86 120.586 285 121.423Z" fill="#3F3D56"/>
<path d="M265.803 104.259C261.93 112.998 257.171 121.315 251.601 129.081C245.897 137.032 239.792 144.687 233.312 152.017C226.833 159.476 220.165 166.769 213.65 174.197C207.209 181.541 200.909 189.024 195.138 196.911C189.411 204.588 184.437 212.801 180.285 221.434C179.783 222.504 179.297 223.582 178.829 224.668C178.357 225.757 179.961 226.708 180.437 225.609C184.31 216.87 189.069 208.552 194.639 200.786C200.343 192.836 206.448 185.181 212.928 177.851C219.407 170.392 226.075 163.099 232.59 155.671C239.031 148.327 245.331 140.844 251.102 132.957C256.829 125.28 261.803 117.067 265.955 108.434C266.457 107.364 266.943 106.286 267.412 105.2C267.883 104.11 266.279 103.16 265.803 104.259V104.259Z" fill="#3F3D56"/>
<path d="M128.308 340.996L129.482 345.072L145.749 342.48L144.016 336.462L128.308 340.996Z" fill="#FFB6B6"/>
<path d="M124.018 342.077L127.628 354.615L127.786 354.569C129.079 354.196 130.171 353.324 130.821 352.145C131.472 350.966 131.628 349.577 131.256 348.283L131.256 348.283L132.332 345.492L129.366 341.72L129.051 340.625L124.018 342.077Z" fill="#2F2E41"/>
<path d="M198.153 361.021L202.288 360.091L200.672 343.68L194.568 345.054L198.153 361.021Z" fill="#FFB6B6"/>
<path d="M197.771 365.671L210.487 362.81L210.451 362.649C210.156 361.335 209.352 360.192 208.215 359.471C207.078 358.751 205.702 358.512 204.389 358.807L204.389 358.807L201.67 357.565L197.733 360.305L196.623 360.554L197.771 365.671Z" fill="#2F2E41"/>
<path d="M185.496 273.128L204.222 350.049L195.062 350.861L184.913 325.118L169.246 294.82L170.662 329.402L141.514 346.468L134.665 337.074L157.966 324.527L147.787 278.76L150.497 273.128L185.496 273.128Z" fill="#2F2E41"/>
<path d="M147.979 279.864C144.943 275.61 150.559 268.605 151.248 267.123C150.43 266.857 149.73 266.316 149.266 265.591C148.802 264.867 148.603 264.004 148.704 263.149L149.001 260.623L149.31 258.145L147.093 255.926L147.087 255.871L145.811 244.697L143.957 237.275C143.258 234.469 143.317 231.528 144.129 228.753C144.941 225.978 146.476 223.469 148.576 221.484L152.864 220.802L158.074 215.776H166.476L169.357 218.532C174.735 219.476 175.659 219.168 180.279 224.718L178.18 241.972L177.656 244.346L177.657 247.565L178.989 249.046C179.468 249.58 179.817 250.218 180.006 250.91C180.196 251.603 180.221 252.33 180.081 253.033L179.906 253.91C181.279 254.499 182.589 264.968 182.902 266.43L183.37 268.614C183.77 269.143 186.41 272.668 186.41 273.631C186.41 273.776 186.304 273.916 186.075 274.071C184.275 275.291 168.523 278.52 164.121 276.757C159.432 274.88 147.979 279.864 147.979 279.864Z" fill="#E6E6E6"/>
<path d="M131.142 228.668L134.837 233.192C136.227 234.894 137.94 236.304 139.877 237.342C141.814 238.379 143.936 239.023 146.123 239.236C147.477 239.363 148.841 239.108 150.058 238.5C151.276 237.892 152.3 236.955 153.013 235.795C153.97 234.217 154.293 232.333 153.916 230.525C153.539 228.718 152.49 227.121 150.982 226.058C146.405 222.837 143.908 217.848 140.31 219.466L139.536 217.562L129.392 209.356L121.077 216.499L131.142 228.668Z" fill="#E6E6E6"/>
<path d="M202.657 213.699L194.613 206.253L188.339 210.252L187.495 212.125C183.959 210.375 177.111 219.093 172.418 222.141C170.872 223.147 169.765 224.704 169.321 226.497C168.877 228.289 169.129 230.183 170.027 231.796C170.698 232.982 171.686 233.956 172.88 234.609C174.074 235.261 175.427 235.567 176.786 235.49C178.979 235.358 181.124 234.794 183.098 233.829C185.072 232.865 186.836 231.519 188.288 229.869L192.148 225.487L202.657 213.699Z" fill="#E6E6E6"/>
<path d="M161.708 213.349C166.862 213.349 171.039 209.166 171.039 204.007C171.039 198.848 166.862 194.665 161.708 194.665C156.555 194.665 152.377 198.848 152.377 204.007C152.377 209.166 156.555 213.349 161.708 213.349Z" fill="#FFB6B6"/>
<path d="M154.936 210.591C154.855 210.52 154.778 210.444 154.698 210.37C154.695 210.378 154.695 210.385 154.692 210.393L154.936 210.591Z" fill="#2F2E41"/>
<path d="M170.468 200.503C170.418 200.472 170.374 200.441 170.325 200.416C169.711 199.933 168.951 199.676 168.17 199.689C167.425 199.782 166.811 200.317 166.097 200.528C164.563 200.975 163.018 199.882 161.428 199.77H161.391C160.885 199.738 160.377 199.806 159.897 199.971C159.417 200.135 158.974 200.393 158.594 200.729C158.213 201.065 157.903 201.472 157.679 201.928C157.456 202.384 157.325 202.88 157.293 203.387C157.262 203.903 157.331 204.419 157.269 204.928C157.252 205.187 157.171 205.437 157.035 205.657C156.899 205.877 156.71 206.06 156.486 206.19C155.785 206.507 154.841 206.035 154.245 206.526C153.717 206.967 153.91 207.825 154.227 208.44C154.596 208.959 154.778 209.588 154.742 210.224C154.73 210.274 154.716 210.324 154.698 210.373C153.261 209.033 152.121 207.407 151.351 205.599C150.581 203.791 150.199 201.841 150.228 199.875C150.204 199.009 150.382 198.149 150.75 197.364C150.935 196.973 151.213 196.634 151.561 196.377C151.909 196.12 152.315 195.953 152.743 195.891C153.475 195.829 154.233 196.159 154.928 195.922C155.785 195.637 156.145 194.648 156.592 193.853C157.143 192.904 157.944 192.126 158.908 191.603C159.872 191.08 160.961 190.833 162.055 190.888C162.843 190.965 163.621 191.122 164.377 191.354L165.855 191.758C166.418 191.891 166.966 192.085 167.488 192.336C168.25 192.775 168.893 193.396 169.356 194.145C169.75 194.747 170.061 195.399 170.281 196.084C169.463 196.127 168.642 196.097 167.829 195.997C168.76 196.575 169.698 197.153 170.629 197.731C170.739 198.657 170.685 199.596 170.468 200.503Z" fill="#2F2E41"/>
<path d="M317.63 61.4468C334.579 61.4468 348.319 47.6915 348.319 30.7234C348.319 13.7553 334.579 0 317.63 0C300.681 0 286.941 13.7553 286.941 30.7234C286.941 47.6915 300.681 61.4468 317.63 61.4468Z" fill="#FF6584"/>
<path d="M386.32 16.1766C384.544 10.2223 379.528 6.33778 373.469 5.48628C373.407 5.48007 373.338 5.49247 373.276 5.48628C373.191 5.45901 373.104 5.43824 373.015 5.42413C364.432 4.37879 355.747 6.27138 348.374 10.7941C346.688 11.8496 344.923 12.7762 343.097 13.5661C337.243 16.0373 330.979 17.3947 324.627 17.5688C324.578 17.5688 324.528 17.575 324.478 17.575C321.368 17.782 318.396 18.9438 315.969 20.9024C313.541 22.8609 311.776 25.5209 310.913 28.5201C310.822 28.8868 310.849 29.2731 310.992 29.623C311.135 29.9728 311.386 30.2679 311.708 30.4654C312.634 31.2518 313.731 31.8115 314.911 32.1C317.463 32.6408 320.021 33.1359 322.585 33.5855C327.595 34.4619 332.63 35.1704 337.69 35.7111C341.042 36.0716 344.401 36.3534 347.766 36.5564C354.707 36.9915 361.679 37.0971 368.632 36.8796C372.072 36.7739 375.387 36.6621 378.541 35.1393C380.834 34.0067 382.792 32.2951 384.222 30.1733C385.57 28.1349 386.457 25.8257 386.82 23.4077C387.182 20.9897 387.012 18.5215 386.32 16.1766Z" fill="#F2F2F2"/>
<path d="M266.089 245.054C264.81 240.766 261.197 237.963 256.826 237.347C256.776 237.341 256.733 237.353 256.683 237.347C256.622 237.329 256.56 237.315 256.497 237.304C250.307 236.547 244.044 237.912 238.729 241.176C233.607 244.377 227.64 245.825 221.606 246.061C221.571 246.06 221.535 246.062 221.5 246.067C219.258 246.217 217.117 247.054 215.367 248.466C213.618 249.877 212.345 251.793 211.722 253.954C211.655 254.219 211.675 254.498 211.777 254.751C211.88 255.003 212.061 255.217 212.293 255.359C212.96 255.927 213.751 256.33 214.603 256.534C216.44 256.925 218.291 257.28 220.141 257.609C223.748 258.237 227.386 258.746 231.03 259.138C238.437 259.935 245.891 260.218 253.337 259.983C255.814 259.909 258.204 259.828 260.476 258.728C262.132 257.912 263.546 256.678 264.58 255.148C265.552 253.677 266.19 252.012 266.45 250.268C266.711 248.525 266.588 246.745 266.089 245.054Z" fill="#F2F2F2"/>
<path d="M69.9042 194.089C68.6253 189.8 65.012 186.997 60.6413 186.382C60.5917 186.376 60.5482 186.388 60.4985 186.382C60.4374 186.364 60.3752 186.349 60.3123 186.338C54.1226 185.581 47.8593 186.946 42.5439 190.211C37.422 193.411 31.4558 194.86 25.4212 195.096C25.386 195.095 25.3507 195.097 25.3157 195.102C23.0739 195.252 20.9325 196.089 19.1829 197.5C17.4333 198.912 16.1605 200.828 15.5375 202.989C15.4707 203.254 15.4901 203.533 15.5929 203.785C15.6956 204.038 15.8764 204.251 16.1087 204.394C16.7753 204.962 17.5667 205.365 18.4182 205.569C20.2559 205.96 22.106 206.314 23.9561 206.644C27.5631 207.272 31.2013 207.781 34.8455 208.173C42.2527 208.97 49.7061 209.253 57.1522 209.018C59.6294 208.943 62.0196 208.863 64.2919 207.763C65.9473 206.947 67.3617 205.713 68.3956 204.183C69.3669 202.712 70.0053 201.047 70.2659 199.303C70.5265 197.559 70.403 195.78 69.9042 194.089Z" fill="#F2F2F2"/>
<path d="M121.389 459.933C123.487 462.239 125.523 464.595 127.498 467C98.1435 461.743 70.069 450.898 44.7958 435.053C44.2681 434.724 43.7466 434.395 43.2251 434.059C28.8844 424.915 15.5747 414.243 3.52881 402.231C5.63965 400.248 6.94341 399.067 6.94341 399.067C36.4021 367.394 39.705 356.244 69.1637 324.571C78.9605 364.311 120.153 391.919 141.758 426.669C135.458 431.07 128.567 434.554 121.289 437.017C121.24 437.073 121.19 437.136 121.14 437.192C118.398 440.357 116.909 444.419 116.955 448.61C117.001 452.8 118.578 456.828 121.389 459.933Z" fill="#F2F2F2"/>
<path d="M375.299 347.971C357.657 380.353 332.681 408.147 302.375 429.124C301.73 429.572 301.084 430.019 300.432 430.46C278.966 445.01 255.229 455.88 230.197 462.624C228.995 461.698 227.645 460.981 226.205 460.505V460.493C227.819 457.472 229.433 454.451 231.047 451.431C225.472 457.124 215.75 458.1 209.156 453.637C210.241 451.186 211.788 448.968 213.713 447.105C212.099 447.844 209.591 446.775 208.896 444.911C208.02 442.58 209.014 440.001 210.057 437.738C221.561 412.828 259.252 372.497 259.842 371.869C259.438 372.118 242.228 382.938 232.245 382.137C231.736 379.079 218.494 375.343 217.016 373.789C223.032 360.246 250.933 335.05 250.933 335.05C280.391 303.377 283.694 292.226 313.153 260.553C321.534 294.551 352.886 319.667 375.299 347.971Z" fill="#F2F2F2"/>
<g opacity="0.2">
<path opacity="0.2" d="M0 123.094C0.183283 122.851 0.375369 122.617 0.562179 122.378L0.572334 122.282L0 123.094Z" fill="black"/>
<path opacity="0.2" d="M318.715 125.657C317.685 128.108 315.888 130.159 313.594 131.499C311.3 132.84 308.633 133.398 305.994 133.09C305.309 133.008 304.632 132.869 303.97 132.674C296.713 130.511 289.457 128.522 282.204 126.707C272.717 124.321 263.231 122.222 253.745 120.411C245.817 118.895 237.888 117.579 229.96 116.465C220.468 115.128 210.979 114.08 201.495 113.32C193.567 112.679 185.637 112.242 177.705 112.008C168.218 111.716 158.734 111.716 149.252 112.008C141.324 112.244 133.393 112.682 125.461 113.32C115.975 114.078 106.488 115.126 97.0019 116.465C89.0739 117.583 81.1437 118.899 73.2115 120.411C63.7251 122.22 54.2387 124.319 44.7523 126.707C37.4947 128.528 30.2413 130.517 22.992 132.674C22.33 132.869 21.653 133.008 20.9681 133.09C19.2501 133.292 17.5091 133.127 15.8594 132.606C14.2098 132.085 12.689 131.221 11.397 130.069C10.1051 128.918 9.07123 127.506 8.36354 125.926C7.65584 124.346 7.29032 122.634 7.29102 120.902V115.159C21.2909 102.486 41.0956 96.6129 60.1925 94.6116C82.9027 92.2312 105.979 94.2635 128.565 90.8887C146.979 88.1353 165.275 81.7895 183.764 83.9959C199.875 85.9102 214.557 94.1765 230.445 97.4831C250.373 101.629 271.414 97.8187 291.162 102.747C298.904 104.674 306.491 108.061 312.023 113.811C315.228 117.122 317.532 121.201 318.715 125.657Z" fill="black"/>
</g>
<path d="M162.737 255.267C169.325 255.267 174.665 249.921 174.665 243.326C174.665 236.731 169.325 231.385 162.737 231.385C156.15 231.385 150.81 236.731 150.81 243.326C150.81 249.921 156.15 255.267 162.737 255.267Z" fill="#019043"/>
<path d="M161.11 249.541C160.904 249.541 160.701 249.493 160.517 249.401C160.333 249.308 160.173 249.175 160.049 249.01L156.795 244.666C156.69 244.526 156.613 244.367 156.57 244.198C156.526 244.029 156.516 243.853 156.541 243.68C156.565 243.507 156.624 243.341 156.713 243.19C156.801 243.04 156.919 242.909 157.059 242.804C157.198 242.699 157.357 242.623 157.526 242.58C157.695 242.536 157.871 242.527 158.044 242.552C158.216 242.577 158.383 242.636 158.533 242.725C158.682 242.814 158.813 242.932 158.918 243.072L161.047 245.914L166.515 237.703C166.71 237.41 167.013 237.206 167.358 237.137C167.704 237.068 168.062 237.139 168.355 237.334C168.647 237.53 168.851 237.834 168.92 238.179C168.989 238.524 168.918 238.883 168.723 239.176L162.214 248.949C162.097 249.126 161.938 249.272 161.753 249.375C161.567 249.478 161.359 249.535 161.147 249.541L161.11 249.541Z" fill="white"/>
<path d="M309.397 313.029C308.832 322.321 308.269 331.615 307.708 340.911C306.715 357.331 305.721 373.754 304.728 390.179C303.946 403.163 303.161 416.145 302.375 429.124C301.729 429.572 301.084 430.019 300.432 430.46C300.81 424.264 301.185 418.067 301.555 411.87C302.549 395.443 303.542 379.021 304.535 362.602C305.535 346.076 306.534 329.551 307.534 313.029C307.602 311.829 309.465 311.829 309.397 313.029Z" fill="white"/>
<path d="M248.278 358.806L281.101 331.101L290.31 323.327C291.228 322.553 289.904 321.239 288.993 322.009L256.17 349.714L246.961 357.488C246.043 358.262 247.367 359.575 248.278 358.806Z" fill="white"/>
<path d="M252.469 410.917L276.403 389.775C277.303 388.98 275.982 387.665 275.086 388.457L251.152 409.599C250.251 410.394 251.573 411.709 252.469 410.917Z" fill="white"/>
<path d="M22.1382 401.594L46.0722 380.452C46.9727 379.657 45.6513 378.342 44.7551 379.134L20.8211 400.276C19.9206 401.071 21.242 402.386 22.1382 401.594Z" fill="white"/>
<path d="M330.647 340.634C333.789 340.5 336.913 341.178 339.717 342.601C342.522 344.025 344.914 346.147 346.663 348.764C347.317 349.763 348.931 348.83 348.271 347.823C346.356 344.927 343.728 342.574 340.642 340.988C337.556 339.402 334.114 338.638 330.647 338.769C329.454 338.825 329.447 340.69 330.647 340.634Z" fill="white"/>
<path d="M69.8263 375.609C85.7526 383.198 98.5077 396.149 105.862 412.198C106.361 413.288 107.967 412.341 107.47 411.257C101.622 398.614 92.4786 387.783 81.0012 379.903C77.7498 377.669 74.3276 375.695 70.7664 373.999C69.6896 373.486 68.7435 375.093 69.8263 375.609H69.8263Z" fill="white"/>
<path d="M68.6298 362.645C67.3508 369.762 65.7905 376.82 63.9486 383.821C60.6941 396.184 56.5739 408.303 51.6188 420.087C49.4955 425.146 47.2212 430.135 44.7958 435.053C44.2681 434.724 43.7466 434.395 43.2251 434.059C48.7746 422.768 53.5335 411.105 57.4671 399.154C61.4524 387.056 64.5809 374.693 66.8293 362.154C67.0404 360.974 68.8408 361.477 68.6298 362.645Z" fill="white"/>
<path d="M86.0817 278.035C91.0755 278.035 95.1238 273.983 95.1238 268.983C95.1238 263.984 91.0755 259.931 86.0817 259.931C81.0878 259.931 77.0396 263.984 77.0396 268.983C77.0396 273.983 81.0878 278.035 86.0817 278.035Z" fill="#E6E6E6"/>
<path d="M84.848 273.694C84.6919 273.694 84.5379 273.658 84.3982 273.588C84.2586 273.518 84.1371 273.417 84.0435 273.292L81.5766 269.999C81.4166 269.785 81.3479 269.517 81.3856 269.252C81.4233 268.988 81.5644 268.749 81.7778 268.589C81.9912 268.429 82.2595 268.36 82.5235 268.398C82.7876 268.436 83.0259 268.577 83.1859 268.791L84.7998 270.945L88.9449 264.72C89.0178 264.609 89.1119 264.514 89.2217 264.44C89.3316 264.366 89.4549 264.314 89.5848 264.288C89.7147 264.262 89.8484 264.261 89.9784 264.287C90.1084 264.312 90.2321 264.363 90.3423 264.437C90.4526 264.511 90.5472 264.605 90.6208 264.715C90.6944 264.826 90.7455 264.95 90.7711 265.08C90.7968 265.21 90.7966 265.344 90.7704 265.474C90.7442 265.604 90.6926 265.727 90.6186 265.837L85.685 273.246C85.5957 273.38 85.4757 273.491 85.3349 273.569C85.1942 273.647 85.0368 273.69 84.876 273.694L84.848 273.694Z" fill="white"/>
<path d="M103.495 278.035C108.489 278.035 112.537 273.983 112.537 268.983C112.537 263.984 108.489 259.931 103.495 259.931C98.5014 259.931 94.4531 263.984 94.4531 268.983C94.4531 273.983 98.5014 278.035 103.495 278.035Z" fill="#E6E6E6"/>
<path d="M102.262 273.694C102.105 273.694 101.951 273.658 101.812 273.588C101.672 273.518 101.551 273.417 101.457 273.292L98.9902 269.999C98.8302 269.785 98.7614 269.517 98.7992 269.252C98.8369 268.988 98.978 268.749 99.1914 268.589C99.4048 268.429 99.6731 268.36 99.9371 268.398C100.201 268.436 100.439 268.577 100.6 268.791L102.213 270.945L106.358 264.72C106.431 264.609 106.525 264.514 106.635 264.44C106.745 264.366 106.869 264.314 106.998 264.288C107.128 264.262 107.262 264.261 107.392 264.287C107.522 264.312 107.646 264.363 107.756 264.437C107.866 264.511 107.961 264.605 108.034 264.715C108.108 264.826 108.159 264.95 108.185 265.08C108.21 265.21 108.21 265.344 108.184 265.474C108.158 265.604 108.106 265.727 108.032 265.837L103.099 273.246C103.009 273.38 102.889 273.491 102.749 273.569C102.608 273.647 102.45 273.69 102.29 273.694L102.262 273.694Z" fill="white"/>
<path d="M94.5533 263.429C99.5472 263.429 103.595 259.377 103.595 254.377C103.595 249.378 99.5472 245.325 94.5533 245.325C89.5595 245.325 85.5112 249.378 85.5112 254.377C85.5112 259.377 89.5595 263.429 94.5533 263.429Z" fill="#E6E6E6"/>
<path d="M93.3197 259.089C93.1636 259.089 93.0096 259.052 92.8699 258.982C92.7302 258.912 92.6088 258.811 92.5151 258.686L90.0483 255.393C89.8883 255.179 89.8196 254.911 89.8573 254.646C89.895 254.382 90.0361 254.143 90.2495 253.983C90.4629 253.823 90.7312 253.754 90.9952 253.792C91.2593 253.83 91.4976 253.971 91.6576 254.185L93.2715 256.339L97.4165 250.114C97.5651 249.893 97.795 249.741 98.0559 249.689C98.3168 249.637 98.5874 249.691 98.8087 249.839C99.03 249.987 99.1838 250.216 99.2366 250.477C99.2894 250.738 99.2368 251.009 99.0903 251.231L94.1567 258.64C94.0674 258.774 93.9474 258.885 93.8066 258.963C93.6659 259.041 93.5085 259.084 93.3477 259.088L93.3197 259.089Z" fill="white"/>
<path d="M120.7 254.997L119.364 255.131L112.775 272.563H77.0071L70.4182 255.131L69.083 254.997C68.6568 254.954 68.2263 255.001 67.8194 255.135C67.4125 255.27 67.0382 255.487 66.7206 255.775C66.403 256.063 66.1491 256.414 65.9754 256.806C65.8017 257.198 65.7119 257.622 65.7119 258.051V297.566C65.7119 299.109 66.0154 300.637 66.6051 302.062C67.1948 303.487 68.0592 304.782 69.1488 305.873C70.2385 306.964 71.532 307.829 72.9557 308.42C74.3794 309.01 75.9053 309.314 77.4463 309.314H112.336C113.877 309.314 115.403 309.01 116.827 308.42C118.25 307.829 119.544 306.964 120.634 305.873C121.723 304.782 122.588 303.487 123.177 302.062C123.767 300.637 124.071 299.109 124.071 297.566V258.051C124.071 257.622 123.981 257.198 123.807 256.806C123.633 256.414 123.38 256.063 123.062 255.775C122.744 255.487 122.37 255.27 121.963 255.135C121.556 255.001 121.126 254.954 120.7 254.997Z" fill="#F2F2F2"/>
<path d="M171.116 215.537C170.675 214.237 168.973 213.992 167.601 213.996C164.544 214.005 161.491 214.135 158.441 214.386L158.746 214.033C157.936 213.69 157.044 213.59 156.178 213.744C155.337 213.983 154.645 214.95 155.025 215.739C155.311 216.331 156.109 216.707 156.051 217.362C155.954 218.471 153.811 218.102 153.477 219.164C153.432 219.375 153.452 219.595 153.536 219.793C153.62 219.992 153.764 220.16 153.947 220.274C154.318 220.494 154.735 220.626 155.165 220.66C159.702 221.319 164.333 220.722 168.554 218.932C169.292 218.663 169.965 218.242 170.53 217.697C170.809 217.42 171.01 217.075 171.113 216.696C171.216 216.317 171.217 215.917 171.116 215.537Z" fill="#E6E6E6"/>
</g>
<defs>
<clipPath id="clip0_34_1246">
<rect width="387" height="467" fill="white"/>
</clipPath>
</defs>
</svg>
