<svg width="485" height="390" viewBox="0 0 485 390" fill="none" xmlns="http://www.w3.org/2000/svg">
<g clip-path="url(#clip0_34_1216)">
<path d="M337.724 379.6L328.746 379.599L324.476 344.974H337.726L337.724 379.6Z" fill="#FFB6B6"/>
<path d="M337.484 376.668L327.899 372.769L327.625 372.656L322.333 376.668C319.344 376.668 316.479 377.855 314.366 379.968C312.253 382.081 311.066 384.946 311.065 387.934V388.3H340.011V376.668H337.484Z" fill="#2F2E41"/>
<path d="M418.841 367.929L410.806 371.933L391.537 342.848L403.396 336.939L418.841 367.929Z" fill="#FFB6B6"/>
<path d="M419.584 364.282L417.529 365.303L417.318 365.408L407.015 366.203L406.705 366.225L403.756 372.171C402.432 372.831 401.251 373.745 400.28 374.862C399.309 375.978 398.568 377.275 398.099 378.678C397.63 380.081 397.442 381.563 397.545 383.039C397.649 384.515 398.043 385.956 398.703 387.28L398.865 387.603L424.771 374.697L419.584 364.282Z" fill="#2F2E41"/>
<path d="M331.635 193.492L381.138 195.224L381.483 194.723C381.483 194.723 385.705 204.575 385.705 213.019C385.705 215.827 383.753 234.191 384.745 237.665C384.869 238.097 384.019 239.156 384.298 241.168C384.479 242.474 385.476 241.469 385.705 243.279C385.87 244.578 384.114 245.295 384.298 246.798C384.499 248.439 386.914 253.757 387.131 255.583C389.446 275.023 392.527 303.187 392.527 303.187C392.527 303.187 404.904 336.334 407.522 336.873C411.916 337.777 414.883 345.767 412.448 347.428C411.288 348.22 396.301 353.543 396.301 353.543C395.477 353.692 392.901 352.4 394.542 349.344C394.844 348.781 393.043 350.213 392.743 349.54C392.425 348.823 393.05 345.974 392.685 345.179C389.41 338.041 384.381 328.149 379.615 323.07C372.573 315.566 368.114 306.008 366.888 295.791L355.957 235.183L352.21 252.179L349.11 255.242L349.961 262.384L349.814 269.316L342.073 298.169C342.073 298.169 340.912 352.051 342.777 353.762C343.786 354.689 348.072 366.103 339.962 367.132L325.226 365.996C325.226 365.996 323.241 361.812 324.234 360.323C325.226 358.834 325.167 359.24 323.956 356.804C322.744 354.367 323.241 350.238 323.241 350.238C321.311 330.834 320.549 311.331 320.96 291.835C321.699 259.814 326.175 223.028 326.175 222.279C326.213 221.513 326.072 220.748 325.763 220.046V218.025L327.664 210.863L331.635 193.492Z" fill="#2F2E41"/>
<path d="M401.297 199.545C412.095 199.545 420.848 190.792 420.848 179.995C420.848 169.199 412.095 160.446 401.297 160.446C390.5 160.446 381.747 169.199 381.747 179.995C381.747 190.792 390.5 199.545 401.297 199.545Z" fill="#019043"/>
<path d="M398.631 190.17C398.293 190.17 397.96 190.091 397.658 189.94C397.356 189.789 397.094 189.57 396.891 189.3L391.557 182.189C391.386 181.96 391.261 181.7 391.191 181.424C391.12 181.147 391.104 180.859 391.144 180.576C391.185 180.294 391.281 180.022 391.426 179.776C391.572 179.53 391.764 179.316 391.992 179.144C392.221 178.973 392.481 178.848 392.758 178.777C393.034 178.707 393.322 178.691 393.605 178.731C393.888 178.772 394.16 178.867 394.405 179.013C394.651 179.158 394.866 179.351 395.037 179.579L398.526 184.231L407.489 170.789C407.647 170.551 407.85 170.347 408.088 170.188C408.325 170.028 408.592 169.918 408.872 169.861C409.152 169.805 409.44 169.805 409.721 169.86C410.001 169.916 410.268 170.026 410.506 170.184C410.743 170.343 410.947 170.547 411.106 170.784C411.265 171.021 411.376 171.288 411.432 171.568C411.488 171.848 411.488 172.137 411.432 172.417C411.377 172.697 411.266 172.964 411.108 173.202L400.44 189.201C400.247 189.491 399.988 189.73 399.683 189.898C399.379 190.066 399.039 190.159 398.691 190.169C398.671 190.169 398.651 190.17 398.631 190.17Z" fill="white"/>
<path d="M410.965 200.662C411.155 199.863 411.168 199.032 411.003 198.227C410.837 197.422 410.497 196.663 410.007 196.003C409.516 195.344 408.887 194.8 408.163 194.411C407.44 194.021 406.64 193.794 405.819 193.747L395.802 159.618L389.025 167.482L399.806 199.437C399.819 200.821 400.338 202.152 401.266 203.178C402.194 204.204 403.466 204.855 404.841 205.006C406.217 205.157 407.6 204.798 408.728 203.997C409.857 203.197 410.653 202.01 410.965 200.662Z" fill="#FFB8B8"/>
<path d="M403.897 184.012L402.595 179.241L404.087 176.391L403.975 176.061L403.524 174.78L401.188 172.908L402.025 170.522L399.07 162.127L398.345 160.67L381.377 126.604L377.31 118.434L376.367 116.956L373.432 112.353L369.421 106.069C368.783 105.065 367.952 104.197 366.975 103.517C365.999 102.837 364.897 102.358 363.734 102.107C363.358 102.025 362.977 101.966 362.594 101.931L362.32 101.91C361.635 101.873 360.948 101.913 360.272 102.03H360.258C359.067 102.237 357.931 102.687 356.922 103.353C356.128 103.867 355.42 104.504 354.825 105.239C353.455 106.938 352.743 109.074 352.819 111.256L352.946 114.69L353.072 117.814L359.026 128.581L359.413 129.285L359.42 129.306L377.739 162.451L383.263 172.443L384.101 173.963L387.817 176.426L386.824 178.903L387.113 182.76L390.273 185.145L394.854 189.797L395.037 190.177L396.445 189.466L396.578 189.396L396.895 189.304L401.251 187.988L403.897 187.193L403.982 187.165L404.707 186.982L403.897 184.012Z" fill="#E6E6E6"/>
<path d="M479.206 338.942C477.879 337.255 476.077 336.004 474.032 335.35C471.988 334.697 469.794 334.671 467.735 335.275L467.284 335.409L463.245 351.179C462.639 348.829 461.345 343.523 460.528 338.329L460.458 337.9L460.057 338.076C455.834 339.943 451.864 342.335 448.241 345.198C441.822 350.346 436.602 356.83 432.943 364.199C429.283 371.568 427.273 379.646 427.051 387.871L427.044 388.173L427.037 388.363L427.571 388.173L439.05 384.071C444.132 384.519 449.249 383.826 454.029 382.044C458.809 380.261 463.131 377.434 466.679 373.768C471.317 368.878 474.498 362.586 477.573 356.499C478.474 354.726 479.396 352.896 480.339 351.137C481.391 349.224 481.845 347.039 481.643 344.866C481.441 342.692 480.592 340.628 479.206 338.942Z" fill="#F2F2F2"/>
<path d="M184.654 77.155H183.247V22.9389H285.049V24.3463H184.654V77.155Z" fill="#3F3D56"/>
<path d="M300.661 39.0982C311.458 39.0982 320.211 30.3458 320.211 19.5491C320.211 8.75244 311.458 0 300.661 0C289.864 0 281.111 8.75244 281.111 19.5491C281.111 30.3458 289.864 39.0982 300.661 39.0982Z" fill="#019043"/>
<path d="M297.994 29.7235C297.656 29.7235 297.323 29.6449 297.021 29.4939C296.719 29.3429 296.457 29.1236 296.254 28.8535L290.921 21.7423C290.749 21.5139 290.625 21.2539 290.554 20.9773C290.483 20.7006 290.467 20.4128 290.508 20.1301C290.548 19.8474 290.644 19.5754 290.789 19.3297C290.935 19.084 291.127 18.8693 291.356 18.698C291.584 18.5267 291.844 18.402 292.121 18.3312C292.398 18.2603 292.685 18.2446 292.968 18.285C293.251 18.3254 293.523 18.4211 293.769 18.5666C294.014 18.7121 294.229 18.9046 294.4 19.133L297.89 23.785L306.852 10.3427C307.01 10.1048 307.214 9.90044 307.451 9.74129C307.688 9.58213 307.955 9.4713 308.235 9.41514C308.515 9.35897 308.804 9.35857 309.084 9.41396C309.364 9.46934 309.631 9.57944 309.869 9.73794C310.107 9.89644 310.311 10.1002 310.47 10.3377C310.629 10.5751 310.739 10.8416 310.795 11.1218C310.851 11.402 310.851 11.6905 310.796 11.9708C310.74 12.2511 310.63 12.5176 310.471 12.7552L299.804 28.7551C299.611 29.0445 299.351 29.2834 299.047 29.4517C298.742 29.6201 298.402 29.7131 298.054 29.7228C298.034 29.7232 298.014 29.7235 297.994 29.7235Z" fill="white"/>
<path d="M115.686 208.781H114.279V262.997H216.082V261.589H115.686V208.781Z" fill="#3F3D56"/>
<path d="M231.693 282.583C242.49 282.583 251.243 273.83 251.243 263.033C251.243 252.237 242.49 243.484 231.693 243.484C220.896 243.484 212.143 252.237 212.143 263.033C212.143 273.83 220.896 282.583 231.693 282.583Z" fill="#019043"/>
<path d="M229.026 273.208C228.689 273.208 228.356 273.129 228.054 272.978C227.752 272.827 227.489 272.608 227.287 272.338L221.953 265.227C221.782 264.998 221.657 264.738 221.586 264.462C221.515 264.185 221.5 263.897 221.54 263.614C221.58 263.332 221.676 263.06 221.822 262.814C221.967 262.568 222.16 262.354 222.388 262.182C222.616 262.011 222.876 261.886 223.153 261.816C223.43 261.745 223.718 261.729 224 261.769C224.283 261.81 224.555 261.905 224.801 262.051C225.046 262.196 225.261 262.389 225.432 262.617L228.922 267.269L237.884 253.827C238.042 253.589 238.246 253.385 238.483 253.226C238.721 253.066 238.987 252.956 239.267 252.899C239.547 252.843 239.836 252.843 240.116 252.898C240.397 252.954 240.663 253.064 240.901 253.222C241.139 253.381 241.343 253.585 241.502 253.822C241.661 254.059 241.771 254.326 241.827 254.606C241.883 254.886 241.883 255.175 241.828 255.455C241.772 255.735 241.662 256.002 241.503 256.24L230.836 272.239C230.643 272.529 230.383 272.768 230.079 272.936C229.775 273.104 229.434 273.197 229.087 273.207C229.066 273.207 229.046 273.208 229.026 273.208Z" fill="white"/>
<path d="M386.409 210.775C386.43 212.256 386.191 213.731 385.705 215.131L385.6 215.109C373.101 217.271 361.951 217.625 356.793 209.953C350.064 201.385 340.807 201.482 330.482 205.243L329.257 203.92L327.174 201.676L329.089 199.508L327.174 195.328L328.772 190.17L330.813 189.797L330.264 185.357L329.405 182.76L331.925 179.994L334.064 173.091L332.523 158.644C330.414 138.841 334.5 118.871 344.219 101.488L350.067 96.2385L352.495 94.057L355.754 87.9769L359.195 88.378L368.513 89.4547L368.829 90.2147L371.117 95.7318L383.165 108.673L382.623 114.134L382.384 116.541L382.208 118.272L381.377 126.604L377.992 160.642L377.739 162.451L375.015 182.021C379.442 186.3 383.355 194.54 385.234 202.07C385.445 202.907 384.847 203.759 385.002 204.575C385.22 205.729 386.17 206.827 386.275 207.903C386.374 208.857 386.418 209.816 386.409 210.775Z" fill="#E6E6E6"/>
<path d="M362.546 85.7976C371.484 85.7976 378.73 78.5524 378.73 69.6149C378.73 60.6774 371.484 53.4322 362.546 53.4322C353.608 53.4322 346.362 60.6774 346.362 69.6149C346.362 78.5524 353.608 85.7976 362.546 85.7976Z" fill="#FFB6B6"/>
<path d="M382.055 65.2001C381.097 62.2142 378.47 59.6878 375.351 59.3576C375.587 57.3745 375.275 55.3645 374.448 53.5465C373.621 51.7285 372.311 50.1723 370.661 49.0472C369.011 47.9221 367.083 47.2713 365.089 47.1657C363.094 47.06 361.109 47.5036 359.349 48.4481C358.975 47.9988 358.492 47.6536 357.946 47.446C357.399 47.2384 356.809 47.1754 356.231 47.263C355.075 47.4534 353.986 47.9305 353.063 48.6508C350.77 50.3276 348.975 52.5948 347.869 55.2109C346.762 57.827 346.386 60.6942 346.78 63.5072C346.772 62.0802 347.405 64.8409 349.217 65.0849C350.728 65.3888 352.166 65.9819 353.452 66.8315C354.737 67.681 356.171 68.2819 357.678 68.6028C359.199 68.8253 359.591 74.9221 358.505 78.8489C358.299 79.5931 358.194 80.5916 358.88 80.9462C359.725 81.383 360.579 80.2849 361.524 80.1778C361.948 80.1712 362.358 80.3293 362.667 80.619C362.977 80.9087 363.162 81.3073 363.184 81.7308C363.185 82.1556 363.084 82.5746 362.89 82.9527C362.696 83.3308 362.415 83.6572 362.07 83.9047C361.375 84.3925 360.606 84.765 359.793 85.0077L360.066 85.3951C360.304 85.8378 360.69 86.1838 361.155 86.3737C361.621 86.5635 362.139 86.5854 362.619 86.4357C363.701 87.741 374.853 84.1166 375.397 81.7341C377.733 79.6299 379.673 77.1243 381.125 74.3361C382.575 71.5169 382.908 68.2538 382.055 65.2001Z" fill="#2F2E41"/>
<path d="M395.143 114.486C394.918 116.372 393.151 117.779 391.293 118.173C390.349 118.355 389.38 118.372 388.429 118.222C387.501 118.085 386.583 117.88 385.684 117.61C384.572 117.294 383.472 116.937 382.384 116.541C379.275 115.43 376.277 114.028 373.432 112.353C371.281 111.098 369.221 109.691 367.267 108.145C366.254 107.343 365.271 106.506 364.318 105.633L365.508 106.196C364.445 104.767 363.383 103.339 362.32 101.91C361.292 100.531 360.267 99.1518 359.244 97.7726C359.181 97.6881 359.132 97.6318 359.111 97.6036V97.5966C358.639 96.9703 358.175 96.344 357.71 95.7177C356.31 93.8388 354.93 91.0802 356.542 89.3843C356.886 89.054 357.303 88.8098 357.759 88.6716C358.215 88.5334 358.698 88.5051 359.167 88.5891C359.672 88.6547 360.161 88.8121 360.61 89.0536C361.841 89.8507 362.885 90.9045 363.671 92.1429C364.769 90.5454 366.901 89.9543 368.83 90.2147C368.935 90.2217 369.034 90.2358 369.132 90.2499C371.138 90.5947 372.003 89.511 373.742 90.5736C374.551 91.0662 375.044 93.5995 375.853 94.0921C376.31 94.3736 378.006 94.7958 378.471 95.0844C379.386 95.6473 379.154 97.7514 380.076 98.3144C380.758 98.7296 382.588 97.6107 383.271 98.0259C383.988 98.4692 384.988 101.397 385.706 101.833C387.134 102.713 388.281 101.108 389.71 101.981C391.547 103.114 393.503 104.373 394.277 106.386C394.96 108.159 394.08 110.587 392.384 111.094C393.194 111.191 393.935 111.599 394.45 112.232C394.965 112.864 395.213 113.673 395.143 114.486Z" fill="#E6E6E6"/>
<path opacity="0.2" d="M382.384 116.541L382.208 118.272C380.213 118.08 378.251 117.637 376.366 116.956C373.886 116.123 371.735 114.524 370.223 112.389C369.266 110.953 368.266 109.525 367.267 108.145C365.606 105.837 363.959 103.684 362.594 101.932C360.926 99.8133 359.673 98.2792 359.244 97.7726C359.181 97.6881 359.132 97.6318 359.11 97.6037L359.089 97.5826L359.11 97.5966C367.472 108.179 375.371 114.282 382.623 114.134C382.623 114.134 383.474 116.935 382.384 116.541Z" fill="black"/>
<path d="M305.861 31.7938C305.655 32.5894 305.626 33.4204 305.776 34.2284C305.926 35.0364 306.251 35.8017 306.729 36.4704C307.207 37.1391 307.825 37.6949 308.541 38.0987C309.257 38.5025 310.053 38.7444 310.872 38.8074L320.227 73.1235L327.155 65.3922L316.994 33.2348C317.008 31.8512 316.515 30.5104 315.607 29.4663C314.699 28.4222 313.44 27.7474 312.067 27.5698C310.695 27.3922 309.305 27.7241 308.162 28.5026C307.018 29.2811 306.199 30.4521 305.861 31.7938Z" fill="#FFB8B8"/>
<path d="M360.786 119.545L360.722 116.421L354.825 105.239L354.607 104.831L354.593 104.81L350.067 96.2385L328.232 54.8419L325.887 53.9806L326.004 50.618L325.887 46.9434L323.069 45.0547L321.868 42.7775L320.165 43.263H320.158L320.109 43.2771L312.663 45.3671H312.656L311.108 46.2397L309.7 50.462L309.392 52.4609L309.7 56.0917L313.219 56.7954L312.053 60.5183L315.591 71.2285C320.017 89.9473 326.062 106.104 336.499 115.33L337.358 116.738L344.149 127.849C345.076 129.369 346.432 130.581 348.046 131.331C349.66 132.081 351.461 132.336 353.22 132.064H353.227C354.422 131.879 355.566 131.453 356.591 130.812C357.537 130.229 358.363 129.472 359.026 128.581C360.239 126.971 360.88 125.002 360.849 122.987L360.786 119.545Z" fill="#E6E6E6"/>
<path d="M484.162 389.784L292.917 390C292.695 390 292.482 389.912 292.325 389.755C292.167 389.597 292.079 389.384 292.079 389.162C292.079 388.94 292.167 388.727 292.325 388.57C292.482 388.412 292.695 388.324 292.917 388.324L484.162 388.108C484.384 388.108 484.597 388.196 484.754 388.353C484.912 388.51 485 388.724 485 388.946C485 389.168 484.912 389.381 484.754 389.538C484.597 389.695 484.384 389.784 484.162 389.784Z" fill="#CACACA"/>
<path d="M58.8537 108.166C58.842 97.5882 62.8837 87.4076 70.1478 79.7176L45.2185 45.4079C44.1923 43.9944 42.8735 42.8186 41.352 41.9606C39.8305 41.1026 38.1419 40.5825 36.4013 40.4358C34.6607 40.2891 32.9089 40.5192 31.2652 41.1105C29.6215 41.7017 28.1245 42.6402 26.8762 43.862C18.3365 52.1861 11.5568 62.1415 6.93991 73.1368C2.32298 84.1321 -0.0370786 95.943 -5.94391e-05 107.868C1.00944e-05 112.371 0.335759 116.868 1.00438 121.322C1.26668 123.082 1.90991 124.765 2.88923 126.251C3.86855 127.738 5.16037 128.993 6.67461 129.929C8.17175 130.855 9.85302 131.444 11.6011 131.654C13.3493 131.864 15.1222 131.691 16.7962 131.145L59.8416 117.159C59.1865 114.206 58.8553 111.191 58.8537 108.166Z" fill="#F2F2F2"/>
<path d="M61.143 121.761L16.3915 136.301C14.7352 136.836 13.2135 137.722 11.9292 138.896C10.645 140.071 9.62836 141.508 8.94815 143.11C8.26795 144.713 7.94009 146.442 7.9868 148.182C8.0335 149.922 8.45368 151.631 9.21887 153.195C15.5919 166.123 24.9864 177.326 36.6071 185.855C48.2278 194.383 61.7325 199.986 75.9778 202.19C77.7127 202.456 79.4848 202.344 81.1725 201.862C82.8601 201.379 84.4234 200.537 85.7551 199.394C87.085 198.254 88.1524 196.839 88.884 195.247C89.6155 193.655 89.9939 191.924 89.9931 190.172V148.377C83.3651 146.657 77.2641 143.328 72.2314 138.685C67.1987 134.043 63.3899 128.229 61.143 121.761Z" fill="#E6E6E6"/>
<path d="M195.723 147.875C194.967 146.081 193.834 144.471 192.4 143.154C190.967 141.837 189.266 140.844 187.415 140.243L138.607 124.385C135.758 131.085 131.198 136.919 125.385 141.303C119.571 145.686 112.708 148.465 105.482 149.361V200.211C105.483 202.163 105.906 204.092 106.722 205.865C107.538 207.638 108.728 209.214 110.21 210.484C111.691 211.755 113.43 212.69 115.307 213.226C117.184 213.762 119.155 213.886 121.084 213.589C136.942 211.136 151.975 204.899 164.911 195.405C177.847 185.911 188.305 173.441 195.4 159.049C196.253 157.319 196.723 155.425 196.779 153.497C196.834 151.569 196.474 149.652 195.723 147.875Z" fill="#3F3D56"/>
<path d="M183.596 31.2402C182.207 29.88 180.541 28.8352 178.711 28.177C176.881 27.5188 174.931 27.2626 172.993 27.4259C171.056 27.5892 169.176 28.1682 167.482 29.1233C165.788 30.0785 164.32 31.3874 163.178 32.961L129.81 78.8861C133.648 82.7339 136.692 87.3002 138.765 92.3241C140.839 97.3481 141.903 102.731 141.896 108.166C141.896 109.178 141.848 110.177 141.776 111.17L194.818 128.403C196.693 129.008 198.678 129.197 200.634 128.957C202.59 128.717 204.47 128.054 206.144 127.013C207.817 125.972 209.244 124.579 210.323 122.93C211.403 121.282 212.111 119.418 212.397 117.468C213.141 112.51 213.515 107.504 213.515 102.491C213.556 89.2158 210.929 76.0681 205.789 63.8283C200.65 51.5886 193.103 40.5065 183.596 31.2402Z" fill="#019043"/>
<path d="M100.375 66.6474C107.519 66.6393 114.542 68.4836 120.761 72.0001L141.127 43.9695C142.165 42.542 142.881 40.9062 143.226 39.175C143.57 37.4438 143.535 35.6585 143.123 33.9423C142.723 32.2588 141.963 30.682 140.895 29.3208C139.827 27.9596 138.476 26.8463 136.936 26.0579C124.362 19.6633 110.458 16.3203 96.3509 16.2998C82.2439 16.2792 68.3304 19.5817 55.7376 25.9396C54.1495 26.7409 52.7546 27.8778 51.6496 29.2716C50.5445 30.6654 49.7557 32.2828 49.3379 34.0117C48.9257 35.7159 48.8891 37.4894 49.2305 39.2092C49.5719 40.929 50.2832 42.554 51.3151 43.9716L74.4194 75.7702C81.7756 69.8548 90.9352 66.6354 100.375 66.6474Z" fill="#E6E6E6"/>
</g>
<defs>
<clipPath id="clip0_34_1216">
<rect width="485" height="390" fill="white"/>
</clipPath>
</defs>
</svg>
