<svg width="451" height="359" viewBox="0 0 451 359" fill="none" xmlns="http://www.w3.org/2000/svg">
<g clip-path="url(#clip0_33_1165)">
<path d="M105.404 122.707H102.205V157.906H105.404V122.707Z" fill="#F2F2F2"/>
<path d="M173.071 358.383H46.9976L47.1383 343.735L47.1511 342.462L48.2775 227.827H172.431L172.591 260.944L172.597 262.217L173.071 358.383Z" fill="#E6E6E6"/>
<path d="M325.338 109.095L345.738 74.5115C346.598 73.0438 346.846 71.2967 346.429 69.6475C346.012 67.9982 344.964 66.5789 343.51 65.6959C342.758 65.2391 341.92 64.9402 341.049 64.8176C340.178 64.6949 339.29 64.751 338.441 64.9825C337.592 65.214 336.799 65.6159 336.111 66.1638C335.422 66.7118 334.852 67.3942 334.436 68.1696L314.347 104.743L301.203 126.452C300.054 126.285 298.881 126.475 297.844 126.997C296.807 127.52 295.956 128.349 295.406 129.372C294.856 130.395 294.635 131.562 294.772 132.715C294.909 133.868 295.397 134.951 296.171 135.817C296.945 136.683 297.967 137.29 299.097 137.555C300.228 137.82 301.413 137.73 302.491 137.298C303.569 136.867 304.488 136.113 305.123 135.141C305.758 134.169 306.078 133.024 306.04 131.864L325.338 109.095Z" fill="#A0616A"/>
<path d="M344.759 83.4332C345.166 83.337 345.53 83.1099 345.796 82.7866C346.062 82.4632 346.214 82.0616 346.23 81.6434C346.258 81.1278 346.447 80.634 346.77 80.231C346.834 80.1538 346.902 80.0808 346.975 80.0126C347.424 79.612 347.77 79.1089 347.983 78.5461C348.196 77.9832 348.27 77.3772 348.199 76.7795C347.937 74.8159 348.646 72.5391 349.516 70.6588C350.467 68.6014 351.545 66.5645 351.976 64.3391C352.598 61.1288 351.653 57.3245 347.697 56.3723C346.007 55.9934 344.239 56.2083 342.69 56.9808C339.43 58.5529 337.438 61.6805 335.562 64.6908C335.562 64.6908 331.078 69.3564 327.952 71.6239C328.768 71.9404 328.668 73.2416 327.991 73.7965C327.313 74.3514 326.373 74.4046 325.508 74.5432C324.419 74.7178 323.18 75.2164 323.247 76.5725C323.272 76.8964 323.363 77.2116 323.516 77.4984C323.669 77.7852 323.879 78.0373 324.134 78.2389C328.867 82.1508 334.357 85.0415 340.261 86.7296C341.572 87.1038 343.043 87.4026 344.248 86.7655C345.454 86.1283 345.923 84.1431 344.759 83.4332Z" fill="#019043"/>
<path d="M375.869 143.453L334.272 142.813L332.992 133.213L336.831 111.454H369.47L375.869 143.453Z" fill="#A0616A"/>
<path d="M320.026 344.935H312.962L309.601 317.689H320.026V344.935Z" fill="#A0616A"/>
<path d="M323.754 357.174H318.689L317.785 352.391L315.469 357.174H302.033C301.389 357.174 300.762 356.968 300.244 356.586C299.725 356.205 299.342 355.667 299.15 355.052C298.958 354.438 298.968 353.778 299.178 353.169C299.388 352.56 299.787 352.034 300.317 351.668L311.046 344.258V339.423L322.332 340.097L323.754 357.174Z" fill="#2F2E41"/>
<path d="M415.56 322.003L409.766 326.044L391.424 305.617L399.976 299.654L415.56 322.003Z" fill="#A0616A"/>
<path d="M425.618 329.91L421.463 332.808L417.986 329.402L418.822 334.65L407.801 342.334C407.273 342.703 406.641 342.893 405.997 342.876C405.353 342.86 404.731 342.638 404.222 342.244C403.713 341.849 403.344 341.302 403.168 340.682C402.992 340.063 403.019 339.403 403.244 338.8L407.807 326.585L405.041 322.619L414.684 316.716L425.618 329.91Z" fill="#2F2E41"/>
<path d="M450.242 358.803L0.758073 359C0.556747 358.999 0.364065 358.918 0.222117 358.775C0.0801682 358.632 0.000488281 358.439 0.000488281 358.238C0.000488281 358.037 0.0801682 357.843 0.222117 357.701C0.364065 357.558 0.556747 357.477 0.758073 357.476L450.242 357.279C450.443 357.28 450.636 357.361 450.778 357.504C450.92 357.647 451 357.84 451 358.041C451 358.243 450.92 358.436 450.778 358.579C450.636 358.722 450.443 358.802 450.242 358.803Z" fill="#CACACA"/>
<path d="M178.187 214.639H40.2754V229.85H178.187V214.639Z" fill="#E6E6E6"/>
<path d="M131.081 196.313L130.614 194.675H130.719C131.008 194.674 131.286 194.558 131.49 194.354C131.694 194.149 131.809 193.871 131.809 193.582C131.809 193.293 131.694 193.016 131.49 192.811C131.286 192.606 131.008 192.491 130.719 192.49C125.781 191.317 120.638 191.317 115.7 192.49C115.411 192.49 115.135 192.604 114.93 192.807C114.725 193.01 114.609 193.287 114.608 193.575C114.606 193.864 114.719 194.141 114.921 194.347C115.123 194.553 115.398 194.67 115.687 194.673L115.243 196.313C111.797 201.104 113.483 209.063 115.243 217.067H131.081C133.072 208.343 134.58 200.057 131.081 196.313Z" fill="#E6E6E6"/>
<path d="M123.21 209.148C125.623 209.148 127.579 207.192 127.579 204.779C127.579 202.366 125.623 200.409 123.21 200.409C120.797 200.409 118.84 202.366 118.84 204.779C118.84 207.192 120.797 209.148 123.21 209.148Z" fill="white"/>
<path d="M143.031 172.934L142.564 171.295H142.668C142.958 171.295 143.236 171.18 143.441 170.975C143.646 170.771 143.761 170.493 143.761 170.203C143.761 169.913 143.646 169.636 143.441 169.431C143.236 169.226 142.958 169.111 142.668 169.111C137.731 167.938 132.587 167.938 127.649 169.111C127.361 169.111 127.084 169.225 126.879 169.428C126.674 169.631 126.559 169.907 126.557 170.196C126.555 170.484 126.668 170.762 126.87 170.968C127.072 171.173 127.348 171.291 127.636 171.294L127.192 172.934C123.746 177.725 125.432 185.684 127.192 193.688H143.031C145.022 184.964 146.529 176.678 143.031 172.934Z" fill="#E6E6E6"/>
<path d="M135.159 185.769C137.572 185.769 139.528 183.813 139.528 181.4C139.528 178.986 137.572 177.03 135.159 177.03C132.746 177.03 130.79 178.986 130.79 181.4C130.79 183.813 132.746 185.769 135.159 185.769Z" fill="white"/>
<path d="M119.991 172.934L119.524 171.295H119.629C119.919 171.295 120.197 171.18 120.402 170.975C120.607 170.771 120.722 170.493 120.722 170.203C120.722 169.913 120.607 169.636 120.402 169.431C120.197 169.226 119.919 169.111 119.629 169.111C114.692 167.938 109.548 167.938 104.61 169.111C104.322 169.111 104.045 169.225 103.84 169.428C103.635 169.631 103.52 169.907 103.518 170.196C103.516 170.484 103.629 170.762 103.831 170.968C104.033 171.173 104.309 171.291 104.597 171.294L104.153 172.934C100.707 177.725 102.393 185.684 104.153 193.688H119.991C121.983 184.964 123.49 176.678 119.991 172.934Z" fill="#E6E6E6"/>
<path d="M112.12 185.769C114.533 185.769 116.489 183.813 116.489 181.4C116.489 178.986 114.533 177.03 112.12 177.03C109.707 177.03 107.75 178.986 107.75 181.4C107.75 183.813 109.707 185.769 112.12 185.769Z" fill="white"/>
<path d="M109.752 150.535L109.285 148.896H109.39C109.68 148.896 109.958 148.781 110.162 148.576C110.367 148.371 110.482 148.094 110.482 147.804C110.482 147.514 110.367 147.236 110.162 147.031C109.958 146.827 109.68 146.712 109.39 146.712C104.452 145.539 99.3086 145.539 94.3708 146.712C94.0823 146.711 93.8055 146.825 93.6008 147.029C93.3962 147.232 93.2803 147.508 93.2786 147.797C93.2769 148.085 93.3894 148.363 93.5917 148.568C93.7939 148.774 94.0694 148.892 94.3579 148.895L93.9137 150.535C90.4676 155.326 92.1535 163.284 93.9137 171.289H109.752C111.743 162.564 113.251 154.278 109.752 150.535Z" fill="#E6E6E6"/>
<path d="M101.88 163.37C104.294 163.37 106.25 161.413 106.25 159C106.25 156.587 104.294 154.631 101.88 154.631C99.4674 154.631 97.5112 156.587 97.5112 159C97.5112 161.413 99.4674 163.37 101.88 163.37Z" fill="white"/>
<path d="M132.791 150.535L132.324 148.896H132.429C132.718 148.896 132.996 148.781 133.201 148.576C133.406 148.371 133.521 148.094 133.521 147.804C133.521 147.514 133.406 147.236 133.201 147.031C132.996 146.827 132.718 146.712 132.429 146.712C127.491 145.539 122.347 145.539 117.409 146.712C117.121 146.711 116.844 146.825 116.639 147.029C116.435 147.232 116.319 147.508 116.317 147.797C116.315 148.085 116.428 148.363 116.63 148.568C116.832 148.774 117.108 148.892 117.396 148.895L116.952 150.535C113.506 155.326 115.192 163.284 116.952 171.289H132.791C134.782 162.564 136.29 154.278 132.791 150.535Z" fill="#E6E6E6"/>
<path d="M124.919 163.37C127.332 163.37 129.288 161.413 129.288 159C129.288 156.587 127.332 154.631 124.919 154.631C122.506 154.631 120.55 156.587 120.55 159C120.55 161.413 122.506 163.37 124.919 163.37Z" fill="white"/>
<path d="M96.3132 172.934L95.8462 171.295H95.9511C96.2408 171.295 96.5187 171.18 96.7235 170.975C96.9284 170.771 97.0434 170.493 97.0434 170.203C97.0434 169.913 96.9284 169.636 96.7235 169.431C96.5187 169.226 96.2408 169.111 95.9511 169.111C91.0134 167.938 85.8696 167.938 80.9319 169.111C80.6434 169.111 80.3665 169.225 80.1619 169.428C79.9572 169.631 79.8413 169.907 79.8396 170.196C79.8379 170.484 79.9505 170.762 80.1527 170.968C80.3549 171.173 80.6304 171.291 80.9189 171.294L80.4748 172.934C77.0287 177.725 78.7146 185.684 80.4748 193.688H96.3133C98.3043 184.964 99.812 176.678 96.3132 172.934Z" fill="#E6E6E6"/>
<path d="M88.4415 185.769C90.8546 185.769 92.8107 183.813 92.8107 181.4C92.8107 178.986 90.8546 177.03 88.4415 177.03C86.0284 177.03 84.0723 178.986 84.0723 181.4C84.0723 183.813 86.0284 185.769 88.4415 185.769Z" fill="white"/>
<path d="M306.862 109.576L306.395 107.937H306.499C306.789 107.937 307.067 107.822 307.272 107.618C307.477 107.413 307.592 107.135 307.592 106.845C307.592 106.555 307.477 106.278 307.272 106.073C307.067 105.868 306.789 105.753 306.499 105.753C301.562 104.58 296.418 104.58 291.48 105.753C291.192 105.753 290.915 105.867 290.71 106.07C290.506 106.273 290.39 106.55 290.388 106.838C290.386 107.127 290.499 107.404 290.701 107.61C290.903 107.816 291.179 107.933 291.467 107.936L291.023 109.576C287.577 114.367 289.263 122.326 291.023 130.33H306.862C308.853 121.606 310.36 113.32 306.862 109.576Z" fill="#CCCCCC"/>
<path d="M298.99 122.411C301.403 122.411 303.359 120.455 303.359 118.042C303.359 115.628 301.403 113.672 298.99 113.672C296.577 113.672 294.621 115.628 294.621 118.042C294.621 120.455 296.577 122.411 298.99 122.411Z" fill="white"/>
<path d="M83.8044 196.313L83.3374 194.675H83.4423C83.7316 194.674 84.0087 194.558 84.213 194.354C84.4173 194.149 84.532 193.871 84.532 193.582C84.532 193.293 84.4173 193.016 84.213 192.811C84.0087 192.606 83.7316 192.491 83.4423 192.49C78.5046 191.317 73.3608 191.317 68.4231 192.49C68.1346 192.49 67.8577 192.604 67.653 192.807C67.4484 193.01 67.3325 193.287 67.3308 193.575C67.3291 193.864 67.4417 194.141 67.6439 194.347C67.8461 194.553 68.1216 194.67 68.4101 194.673L67.966 196.313C64.5199 201.104 66.2058 209.063 67.966 217.067H83.8045C85.7955 208.343 87.3031 200.057 83.8044 196.313Z" fill="#E6E6E6"/>
<path d="M75.9327 209.148C78.3458 209.148 80.3019 207.192 80.3019 204.779C80.3019 202.366 78.3458 200.409 75.9327 200.409C73.5197 200.409 71.5635 202.366 71.5635 204.779C71.5635 207.192 73.5197 209.148 75.9327 209.148Z" fill="white"/>
<path d="M107.483 196.313L107.016 194.675H107.121C107.41 194.674 107.687 194.558 107.892 194.354C108.096 194.149 108.211 193.871 108.211 193.582C108.211 193.293 108.096 193.016 107.892 192.811C107.687 192.606 107.41 192.491 107.121 192.49C102.183 191.317 97.0395 191.317 92.1018 192.49C91.8133 192.49 91.5364 192.604 91.3318 192.807C91.1271 193.01 91.0112 193.287 91.0095 193.575C91.0078 193.864 91.1204 194.141 91.3226 194.347C91.5249 194.553 91.8003 194.67 92.0888 194.673L91.6447 196.313C88.1986 201.104 89.8845 209.063 91.6447 217.067H107.483C109.474 208.343 110.982 200.057 107.483 196.313Z" fill="#E6E6E6"/>
<path d="M99.6114 209.148C102.024 209.148 103.981 207.192 103.981 204.779C103.981 202.366 102.024 200.409 99.6114 200.409C97.1984 200.409 95.2422 202.366 95.2422 204.779C95.2422 207.192 97.1984 209.148 99.6114 209.148Z" fill="white"/>
<path d="M156.018 196.313L155.551 194.675H155.656C155.945 194.674 156.223 194.558 156.427 194.354C156.631 194.149 156.746 193.871 156.746 193.582C156.746 193.293 156.631 193.016 156.427 192.811C156.223 192.606 155.945 192.491 155.656 192.49C150.718 191.317 145.575 191.317 140.637 192.49C140.348 192.49 140.072 192.604 139.867 192.807C139.662 193.01 139.546 193.287 139.545 193.575C139.543 193.864 139.656 194.141 139.858 194.347C140.06 194.553 140.335 194.67 140.624 194.673L140.18 196.313C136.734 201.104 138.42 209.063 140.18 217.067H156.018C158.009 208.343 159.517 200.057 156.018 196.313Z" fill="#E6E6E6"/>
<path d="M148.147 209.148C150.56 209.148 152.516 207.192 152.516 204.779C152.516 202.366 150.56 200.409 148.147 200.409C145.734 200.409 143.777 202.366 143.777 204.779C143.777 207.192 145.734 209.148 148.147 209.148Z" fill="white"/>
<path d="M375.073 134.901L331.633 131.974C331.633 131.974 321.567 155.226 321.729 158.299C321.89 161.372 326.043 160.446 321.727 165.069C317.41 169.692 317.41 163.292 317.41 169.692C317.41 176.091 299.958 318.167 307.638 319.447C321.077 321.367 320.437 318.807 320.437 318.807L341.526 252.733C341.526 252.733 379.602 308.4 391.473 305.367C403.344 302.335 401.072 298.327 401.072 298.327L375.637 246.697C375.637 246.697 371.845 246.69 372.38 242.43C372.914 238.169 369.678 238.89 369.678 238.89C369.678 238.89 364.818 237.375 366.626 234.892C368.434 232.41 363.634 230.973 363.634 230.973L377.643 177.351C377.643 177.351 387.619 154.189 375.073 134.901Z" fill="#2F2E41"/>
<path d="M371.242 46.2057L356.29 46.9631L351.299 55.3723C351.299 55.3723 337.076 56.4154 337.076 67.935C337.076 79.4547 327.368 74.4417 331.902 89.1078C336.436 103.774 337.469 106.601 333.433 108.707C329.396 110.814 323.7 110.36 328.788 113.787C333.876 117.213 335.796 118.493 334.516 119.773C333.236 121.053 358.24 110.983 372.617 117.298C372.617 117.298 376.638 114.254 375.736 111.574C374.834 108.894 374.343 109.93 375.868 107.492C377.394 105.054 393.586 62.6488 393.586 62.6488C393.586 62.6488 390.299 56.5372 383.206 56.7963C376.114 57.0554 371.242 46.2057 371.242 46.2057Z" fill="#019043"/>
<path d="M423.701 188.623L397.264 202.97L376.966 165.565C375.063 162.059 374.631 157.941 375.765 154.117C376.898 150.292 379.505 147.075 383.01 145.173C386.516 143.27 390.634 142.838 394.458 143.972C398.282 145.105 401.499 147.712 403.402 151.218L423.701 188.623ZM397.779 201.235L421.965 188.109L402.277 151.828C401.415 150.24 400.249 148.836 398.845 147.699C397.441 146.561 395.827 145.711 394.094 145.197C392.362 144.683 390.545 144.515 388.748 144.704C386.95 144.892 385.208 145.433 383.62 146.295C382.031 147.157 380.628 148.323 379.491 149.728C378.353 151.132 377.503 152.746 376.99 154.479C376.477 156.212 376.31 158.029 376.498 159.826C376.687 161.623 377.228 163.366 378.091 164.954L397.779 201.235Z" fill="#3F3D56"/>
<path d="M446.284 215.323L407.342 236.457C406.404 236.969 405.328 237.168 404.269 237.025C403.21 236.883 402.224 236.406 401.455 235.664L375.158 210.421C374.586 209.873 374.153 209.197 373.891 208.449C373.63 207.701 373.549 206.902 373.655 206.117C373.761 205.332 374.05 204.583 374.5 203.931C374.949 203.279 375.547 202.742 376.243 202.364L434.649 170.667C435.346 170.289 436.121 170.081 436.913 170.06C437.705 170.038 438.491 170.203 439.206 170.543C439.922 170.882 440.548 171.385 441.033 172.012C441.517 172.638 441.847 173.371 441.996 174.149L448.829 209.955C449.031 211.004 448.894 212.09 448.436 213.056C447.979 214.021 447.225 214.816 446.284 215.323Z" fill="#019043"/>
<path d="M405.599 186.797L401.662 188.934L405.325 195.683L409.262 193.547L405.599 186.797Z" fill="#3F3D56"/>
<path d="M395.414 113.559L394.271 73.4229C394.218 71.7226 393.498 70.1116 392.267 68.9373C391.036 67.7631 389.393 67.1199 387.692 67.1465C386.812 67.1602 385.944 67.3531 385.141 67.7132C384.338 68.0733 383.617 68.5932 383.022 69.2411C382.426 69.8891 381.969 70.6515 381.678 71.482C381.387 72.3124 381.267 73.1935 381.328 74.0715L383.793 115.726L384.225 141.101C383.163 141.571 382.271 142.356 381.671 143.351C381.072 144.345 380.792 145.5 380.872 146.659C380.951 147.817 381.385 148.923 382.115 149.827C382.845 150.73 383.835 151.387 384.951 151.707C386.067 152.028 387.255 151.998 388.353 151.62C389.451 151.243 390.406 150.536 391.089 149.597C391.772 148.657 392.149 147.53 392.168 146.369C392.188 145.208 391.85 144.069 391.2 143.106L395.414 113.559Z" fill="#A0616A"/>
<path d="M398.192 81.4964C398.485 81.1982 398.673 80.8118 398.726 80.3967C398.779 79.9815 398.694 79.5605 398.484 79.1983C398.234 78.7465 398.131 78.2279 398.19 77.7148C398.202 77.6157 398.221 77.5176 398.247 77.421C398.414 76.8427 398.439 76.2327 398.319 75.6427C398.2 75.0527 397.94 74.5003 397.562 74.0322C396.294 72.5098 395.683 70.2049 395.418 68.1503C395.128 65.902 394.955 63.6043 394.136 61.4907C392.954 58.4419 390.128 55.7248 386.272 57.0252C384.641 57.6037 383.258 58.727 382.358 60.2057C380.435 63.2722 380.414 66.9801 380.429 70.5274L379.737 69.1257C379.82 72.9999 379.119 76.8509 377.678 80.4479C378.537 80.2811 379.145 81.4359 378.867 82.2662C378.589 83.0966 377.822 83.6423 377.164 84.2198C376.334 84.9479 375.551 86.0293 376.329 87.1418C376.523 87.4027 376.768 87.6207 377.05 87.7822C377.332 87.9436 377.645 88.045 377.968 88.08C384.057 88.8717 390.243 88.3955 396.139 86.6814C397.449 86.2999 398.852 85.7702 399.534 84.5889C400.215 83.4076 399.555 81.4774 398.192 81.4964Z" fill="#019043"/>
<path d="M385.589 25.9794C384.732 29.1537 385.717 34.1519 386.088 37.115C386.485 40.2829 380.994 43.118 377.852 43.2972C377.929 42.2486 377.635 41.2063 377.02 40.3533C377.013 41.3677 376.804 42.3706 376.406 43.3036H350.186C346.884 37.0894 344.075 28.5969 347.108 19.8164C347.262 18.0529 347.933 16.3741 349.037 14.9908C350.142 13.6074 351.63 12.5811 353.316 12.0406L367.612 7.46478C373.251 7.46478 380.169 8.26475 383.285 12.463C384.665 14.3959 385.589 16.616 385.988 18.9569C386.387 21.2978 386.25 23.6987 385.589 25.9794Z" fill="#2F2E41"/>
<path d="M361.706 42.6636C369.835 42.6636 376.425 36.0734 376.425 27.9441C376.425 19.8147 369.835 13.2245 361.706 13.2245C353.577 13.2245 346.987 19.8147 346.987 27.9441C346.987 36.0734 353.577 42.6636 361.706 42.6636Z" fill="#A0616A"/>
<path d="M380.265 24.1042V27.3041H367.53C367.659 26.6864 367.659 26.0486 367.53 25.4307C367.401 24.8129 367.146 24.2284 366.781 23.7138C366.77 24.9662 366.459 26.1976 365.872 27.3041C358.508 29.4817 352.327 29.44 347.262 27.3041C346.89 27.3041 346.521 27.2308 346.177 27.0883C345.833 26.9458 345.521 26.7369 345.257 26.4736C344.994 26.2103 344.785 25.8977 344.643 25.5536C344.5 25.2096 344.427 24.8409 344.427 24.4685C344.427 14.6577 352.16 6.3909 361.968 6.18871C364.353 6.13821 366.723 6.5643 368.941 7.44198C371.159 8.31966 373.179 9.63127 374.883 11.2999C376.587 12.9685 377.941 14.9606 378.865 17.1594C379.789 19.3581 380.265 21.7192 380.265 24.1042V24.1042Z" fill="#2F2E41"/>
<path d="M377.755 2.42094C376.238 1.71092 374.529 1.41003 373.332 0L373.784 2.38863C371.323 1.07199 368.461 0.714461 365.752 1.38515C364.955 1.54465 364.22 1.92611 363.631 2.48553C363.305 2.8301 363.06 3.24357 362.914 3.69543C362.769 4.14728 362.727 4.62603 362.791 5.09636C362.861 5.50335 363.016 5.89115 363.245 6.23499C363.474 6.57883 363.772 6.87116 364.12 7.09328C364.746 7.44826 365.434 7.68225 366.146 7.78303C369.108 8.38519 372.071 8.98735 375.033 9.58949C376.14 9.9149 377.312 9.95231 378.437 9.69816C379.053 9.48772 379.593 9.10214 379.993 8.58874C380.392 8.07535 380.633 7.45647 380.686 6.8081C380.855 4.76863 379.273 3.13092 377.755 2.42094Z" fill="#2F2E41"/>
<path d="M137.682 114.342L67.5239 136.982C66.8985 137.183 66.219 137.128 65.6343 136.828C65.0496 136.529 64.6076 136.01 64.4051 135.385L55.5311 107.885C55.3301 107.259 55.3853 106.58 55.6847 105.995C55.9841 105.41 56.5032 104.968 57.1281 104.766L127.286 82.1257C127.912 81.9247 128.591 81.98 129.176 82.2794C129.76 82.5788 130.202 83.0978 130.405 83.7227L139.279 111.223C139.48 111.849 139.425 112.528 139.125 113.113C138.826 113.698 138.307 114.14 137.682 114.342Z" fill="#F2F2F2"/>
<path d="M120.834 118.118L78.175 131.884C74.9949 132.907 71.5392 132.626 68.566 131.103C65.5929 129.581 63.345 126.941 62.3156 123.763L60.6291 118.537C59.6069 115.357 59.8878 111.901 61.4103 108.928C62.9327 105.954 65.5724 103.706 68.7501 102.677L116.636 87.2243C119.816 86.2021 123.271 86.4831 126.245 88.0056C129.218 89.5281 131.466 92.1679 132.495 95.3457C133.963 99.912 133.559 104.874 131.373 109.143C129.187 113.412 125.397 116.64 120.834 118.118Z" fill="white"/>
<path d="M102.945 100.335L74.7468 109.434C74.667 109.46 74.5828 109.47 74.4992 109.463C74.4155 109.456 74.334 109.433 74.2594 109.395C74.1847 109.357 74.1182 109.304 74.0639 109.24C74.0095 109.176 73.9683 109.102 73.9425 109.022C73.9167 108.942 73.9069 108.858 73.9137 108.775C73.9204 108.691 73.9436 108.609 73.9819 108.535C74.0201 108.46 74.0727 108.394 74.1366 108.339C74.2005 108.285 74.2745 108.244 74.3544 108.218L102.553 99.1183C102.714 99.0668 102.889 99.0812 103.039 99.1585C103.19 99.2358 103.303 99.3697 103.355 99.5307C103.407 99.6917 103.393 99.8667 103.316 100.017C103.239 100.168 103.106 100.282 102.945 100.335Z" fill="#E6E6E6"/>
<path d="M119.313 102.216L76.8407 115.922C76.7608 115.948 76.6766 115.958 76.5928 115.951C76.5091 115.945 76.4275 115.922 76.3527 115.883C76.2779 115.845 76.2113 115.793 76.1568 115.729C76.1024 115.665 76.0611 115.591 76.0353 115.511C76.0095 115.431 75.9997 115.346 76.0065 115.263C76.0133 115.179 76.0365 115.097 76.0749 115.023C76.1132 114.948 76.166 114.882 76.23 114.827C76.2941 114.773 76.3683 114.732 76.4483 114.706L118.921 101C119.082 100.948 119.258 100.962 119.408 101.039C119.559 101.117 119.673 101.251 119.725 101.412C119.777 101.573 119.763 101.749 119.686 101.899C119.609 102.05 119.475 102.164 119.313 102.216Z" fill="#E6E6E6"/>
<path d="M121.407 108.704L78.9343 122.41C78.8545 122.436 78.7703 122.446 78.6867 122.439C78.603 122.432 78.5215 122.409 78.4469 122.371C78.3722 122.333 78.3057 122.28 78.2514 122.216C78.197 122.152 78.1558 122.078 78.13 121.998C78.1042 121.919 78.0944 121.834 78.1012 121.751C78.1079 121.667 78.1311 121.586 78.1694 121.511C78.2076 121.436 78.2602 121.37 78.3241 121.316C78.388 121.261 78.462 121.22 78.5419 121.194L121.015 107.488C121.176 107.437 121.351 107.451 121.501 107.528C121.652 107.605 121.766 107.739 121.818 107.9C121.87 108.062 121.856 108.237 121.779 108.387C121.702 108.538 121.568 108.652 121.407 108.704Z" fill="#E6E6E6"/>
<path d="M121.407 108.704L78.9343 122.41C78.8545 122.436 78.7703 122.446 78.6867 122.439C78.603 122.432 78.5215 122.409 78.4469 122.371C78.3722 122.333 78.3057 122.28 78.2514 122.216C78.197 122.152 78.1558 122.078 78.13 121.998C78.1042 121.919 78.0944 121.834 78.1012 121.751C78.1079 121.667 78.1311 121.586 78.1694 121.511C78.2076 121.436 78.2602 121.37 78.3241 121.316C78.388 121.261 78.462 121.22 78.5419 121.194L121.015 107.488C121.176 107.437 121.351 107.451 121.501 107.528C121.652 107.605 121.766 107.739 121.818 107.9C121.87 108.062 121.856 108.237 121.779 108.387C121.702 108.538 121.568 108.652 121.407 108.704Z" fill="#E6E6E6"/>
<path d="M124.89 93.7062C128.973 93.7062 132.283 90.3964 132.283 86.3137C132.283 82.2309 128.973 78.9211 124.89 78.9211C120.808 78.9211 117.498 82.2309 117.498 86.3137C117.498 90.3964 120.808 93.7062 124.89 93.7062Z" fill="#019043"/>
<path d="M124.631 89.2791C124.531 89.2791 124.434 89.256 124.345 89.2116C124.256 89.1672 124.179 89.1028 124.119 89.0234L122.552 86.9335C122.501 86.8663 122.465 86.7899 122.444 86.7085C122.423 86.6271 122.418 86.5424 122.43 86.4591C122.441 86.3759 122.47 86.2958 122.512 86.2235C122.555 86.1511 122.612 86.0879 122.679 86.0375C122.746 85.9871 122.823 85.9504 122.904 85.9296C122.986 85.9088 123.07 85.9042 123.154 85.9162C123.237 85.9282 123.317 85.9565 123.389 85.9995C123.461 86.0424 123.524 86.0992 123.575 86.1666L124.6 87.5338L127.234 83.5832C127.328 83.4421 127.474 83.3442 127.64 83.311C127.806 83.2778 127.979 83.3119 128.12 83.4059C128.261 83.4999 128.359 83.6461 128.392 83.8124C128.425 83.9786 128.391 84.1512 128.297 84.2922L125.162 88.9945C125.106 89.0796 125.03 89.1498 124.94 89.1992C124.851 89.2487 124.751 89.2761 124.648 89.2789L124.631 89.2791Z" fill="white"/>
</g>
<defs>
<clipPath id="clip0_33_1165">
<rect width="451" height="359" fill="white"/>
</clipPath>
</defs>
</svg>
