<svg width="45" height="45" viewBox="0 0 45 45" fill="none" xmlns="http://www.w3.org/2000/svg">
<path d="M39.2754 15.5719C39.2565 14.1518 38.9906 12.7458 38.4898 11.4169C38.0554 10.2959 37.392 9.27785 36.542 8.42779C35.6919 7.57772 34.6739 6.91433 33.5529 6.47998C32.241 5.98753 30.8551 5.72125 29.4541 5.69248C27.6504 5.61186 27.0785 5.58936 22.4998 5.58936C17.921 5.58936 17.3341 5.58936 15.5435 5.69248C14.1432 5.72146 12.7579 5.98773 11.4466 6.47998C10.3255 6.91402 9.30731 7.57731 8.4572 8.42742C7.6071 9.27752 6.94381 10.2957 6.50977 11.4169C6.01632 12.7277 5.75062 14.1133 5.72414 15.5137C5.64352 17.3194 5.61914 17.8912 5.61914 22.47C5.61914 27.0487 5.61914 27.6337 5.72414 29.4262C5.75227 30.8287 6.01664 32.2125 6.50977 33.5269C6.94454 34.6477 7.60832 35.6654 8.45871 36.5152C9.3091 37.3649 10.3274 38.0279 11.4485 38.4619C12.7562 38.9741 14.1417 39.2594 15.5454 39.3056C17.351 39.3862 17.9229 39.4106 22.5016 39.4106C27.0804 39.4106 27.6673 39.4106 29.4579 39.3056C30.8588 39.278 32.2448 39.0124 33.5566 38.52C34.6773 38.0851 35.6951 37.4216 36.5451 36.5716C37.3951 35.7216 38.0587 34.7038 38.4935 33.5831C38.9866 32.2706 39.251 30.8869 39.2791 29.4825C39.3598 27.6787 39.3841 27.1069 39.3841 22.5262C39.3804 17.9475 39.3804 17.3662 39.2754 15.5719ZM22.4885 31.1287C17.6998 31.1287 13.8204 27.2494 13.8204 22.4606C13.8204 17.6719 17.6998 13.7925 22.4885 13.7925C24.7874 13.7925 26.9922 14.7057 28.6178 16.3313C30.2434 17.9569 31.1566 20.1617 31.1566 22.4606C31.1566 24.7595 30.2434 26.9643 28.6178 28.5899C26.9922 30.2155 24.7874 31.1287 22.4885 31.1287ZM31.5016 15.4931C31.2361 15.4934 30.9732 15.4412 30.7278 15.3398C30.4825 15.2383 30.2596 15.0894 30.0719 14.9016C29.8841 14.7139 29.7352 14.491 29.6337 14.2456C29.5323 14.0003 29.4801 13.7374 29.4804 13.4719C29.4804 13.2065 29.5326 12.9438 29.6342 12.6987C29.7357 12.4536 29.8845 12.2309 30.0721 12.0433C30.2597 11.8557 30.4824 11.7069 30.7276 11.6053C30.9727 11.5038 31.2354 11.4515 31.5007 11.4515C31.766 11.4515 32.0287 11.5038 32.2738 11.6053C32.519 11.7069 32.7417 11.8557 32.9293 12.0433C33.1169 12.2309 33.2657 12.4536 33.3672 12.6987C33.4688 12.9438 33.521 13.2065 33.521 13.4719C33.521 14.5894 32.6173 15.4931 31.5016 15.4931Z" fill="#1F253D"/>
<path d="M22.489 28.0912C25.5987 28.0912 28.1196 25.5703 28.1196 22.4606C28.1196 19.3509 25.5987 16.83 22.489 16.83C19.3793 16.83 16.8584 19.3509 16.8584 22.4606C16.8584 25.5703 19.3793 28.0912 22.489 28.0912Z" fill="#1F253D"/>
</svg>
