<svg width="45" height="45" viewBox="0 0 45 45" fill="none" xmlns="http://www.w3.org/2000/svg">
<path d="M9.34273 13.4944C11.6085 13.4944 13.4452 11.6577 13.4452 9.39193C13.4452 7.12618 11.6085 5.28943 9.34273 5.28943C7.07699 5.28943 5.24023 7.12618 5.24023 9.39193C5.24023 11.6577 7.07699 13.4944 9.34273 13.4944Z" fill="#1F253D"/>
<path d="M17.319 16.6031V39.3638H24.3859V28.1081C24.3859 25.1382 24.9446 22.2619 28.6271 22.2619C32.259 22.2619 32.304 25.6575 32.304 28.2956V39.3657H39.3746V26.8838C39.3746 20.7525 38.0546 16.0406 30.8884 16.0406C27.4477 16.0406 25.1415 17.9288 24.1984 19.7156H24.1027V16.6031H17.319ZM5.80273 16.6031H12.8809V39.3638H5.80273V16.6031Z" fill="#1F253D"/>
</svg>
