<svg width="85" height="89" viewBox="0 0 85 89" fill="none" xmlns="http://www.w3.org/2000/svg">
<path d="M7.08308 44.407H14.1664C14.158 40.5166 14.8848 36.6628 16.3051 33.0665C17.7255 29.4703 19.8114 26.2025 22.4433 23.4506C25.0209 20.7484 28.0792 18.5987 31.4462 17.1226C38.3861 14.11 46.1788 14.0556 53.1566 16.9709C53.2249 19.3669 54.1847 21.6406 55.8322 23.3088C57.4796 24.977 59.6848 25.908 61.9789 25.9041C66.8877 25.9041 70.8331 21.7816 70.8331 16.6526C70.8331 11.5236 66.8877 7.40112 61.9789 7.40112C59.5387 7.40112 57.3323 8.42249 55.735 10.0841C47.1252 6.48338 37.2368 6.53889 28.6943 10.3024C24.4838 12.1516 20.6583 14.8402 17.4318 18.218C14.1977 21.5873 11.6232 25.5833 9.85266 29.9821C8.01525 34.5484 7.07347 39.4536 7.08308 44.407ZM68.6125 55.9603C67.1923 59.4832 65.1523 62.651 62.5562 65.3635C59.9602 68.076 56.9285 70.2076 53.5533 71.6915C46.6134 74.704 38.8207 74.7585 31.8429 71.8432C31.7746 69.4472 30.8148 67.1735 29.1673 65.5053C27.5199 63.8371 25.3147 62.906 23.0206 62.91C18.1118 62.91 14.1664 67.0325 14.1664 72.1615C14.1664 77.2905 18.1118 81.413 23.0206 81.413C25.4608 81.413 27.6672 80.3916 29.2645 78.73C33.4703 80.5047 37.964 81.4156 42.4998 81.413C49.4646 81.427 56.2782 79.2914 62.0856 75.2741C67.8931 71.2568 72.4357 65.5368 75.1433 58.8319C76.9831 54.2663 77.9262 49.3609 77.9164 44.407H70.8331C70.842 48.3748 70.0868 52.3038 68.6125 55.9603Z" fill="#0FB575"/>
<path d="M42.4998 27.6138C33.6386 27.6138 26.4277 35.1482 26.4277 44.4071C26.4277 53.6659 33.6386 61.2003 42.4998 61.2003C51.3611 61.2003 58.5719 53.6659 58.5719 44.4071C58.5719 35.1482 51.3611 27.6138 42.4998 27.6138ZM42.4998 53.7992C37.545 53.7992 33.5111 49.5842 33.5111 44.4071C33.5111 39.2299 37.545 35.015 42.4998 35.015C47.4546 35.015 51.4886 39.2299 51.4886 44.4071C51.4886 49.5842 47.4546 53.7992 42.4998 53.7992Z" fill="#0FB575"/>
</svg>
