<svg width="82" height="82" viewBox="0 0 82 82" fill="none" xmlns="http://www.w3.org/2000/svg">
<path d="M62.4461 27.3333C63.6317 29.3697 65.8115 30.75 68.333 30.75C70.1453 30.75 71.8834 30.0301 73.1649 28.7486C74.4464 27.4671 75.1663 25.729 75.1663 23.9167C75.1663 22.1044 74.4464 20.3663 73.1649 19.0848C71.8834 17.8033 70.1453 17.0833 68.333 17.0833C65.8115 17.0833 63.6317 18.4637 62.4461 20.5H54.6663V13.6667C54.6663 12.7605 54.3064 11.8915 53.6656 11.2507C53.0249 10.61 52.1558 10.25 51.2497 10.25H30.7497C29.8435 10.25 28.9745 10.61 28.3337 11.2507C27.693 11.8915 27.333 12.7605 27.333 13.6667V20.5H19.5533C18.3677 18.4637 16.1878 17.0833 13.6663 17.0833C11.854 17.0833 10.1159 17.8033 8.83444 19.0848C7.55295 20.3663 6.83301 22.1044 6.83301 23.9167C6.83301 25.729 7.55295 27.4671 8.83444 28.7486C10.1159 30.0301 11.854 30.75 13.6663 30.75C16.1878 30.75 18.3677 29.3697 19.5533 27.3333H27.333V28.5941C17.5374 33.62 14.7528 42.8245 13.9773 47.8333H10.2497C9.34352 47.8333 8.47448 48.1933 7.83373 48.834C7.19298 49.4748 6.83301 50.3438 6.83301 51.25V64.9167C6.83301 65.8228 7.19298 66.6919 7.83373 67.3326C8.47448 67.9734 9.34352 68.3333 10.2497 68.3333H23.9163C24.8225 68.3333 25.6915 67.9734 26.3323 67.3326C26.973 66.6919 27.333 65.8228 27.333 64.9167V51.25C27.333 50.3438 26.973 49.4748 26.3323 48.834C25.6915 48.1933 24.8225 47.8333 23.9163 47.8333H20.9199C21.593 44.5567 23.3731 39.6128 28.0437 36.1552C28.3496 36.5903 28.7544 36.9466 29.2248 37.1949C29.6952 37.4432 30.2178 37.5763 30.7497 37.5833H51.2497C51.782 37.577 52.3052 37.4439 52.7759 37.1949C53.2465 36.9459 53.6509 36.5883 53.9557 36.1517C58.6468 39.6128 60.4303 44.5499 61.0931 47.8333H58.083C57.1768 47.8333 56.3078 48.1933 55.6671 48.834C55.0263 49.4748 54.6663 50.3438 54.6663 51.25V64.9167C54.6663 65.8228 55.0263 66.6919 55.6671 67.3326C56.3078 67.9734 57.1768 68.3333 58.083 68.3333H71.7497C72.6558 68.3333 73.5249 67.9734 74.1656 67.3326C74.8064 66.6919 75.1663 65.8228 75.1663 64.9167V51.25C75.1663 50.3438 74.8064 49.4748 74.1656 48.834C73.5249 48.1933 72.6558 47.8333 71.7497 47.8333H68.0187C67.2431 42.8245 64.4585 33.6166 54.6663 28.5907V27.3333H62.4461ZM20.4997 61.5H13.6663V54.6667H20.4997V61.5ZM68.333 61.5H61.4997V54.6667H68.333V61.5ZM47.833 30.75H34.1663V17.0833H47.833V30.75Z" fill="#0FB575"/>
</svg>
