<svg width="85" height="85" viewBox="0 0 85 85" fill="none" xmlns="http://www.w3.org/2000/svg">
<path d="M42.4997 7.08331C22.9709 7.08331 7.08301 22.9712 7.08301 42.5C7.08301 62.0287 22.9709 77.9166 42.4997 77.9166C62.0284 77.9166 77.9163 62.0287 77.9163 42.5C77.9163 22.9712 62.0284 7.08331 42.4997 7.08331ZM42.4997 70.8333C26.8774 70.8333 14.1663 58.1223 14.1663 42.5C14.1663 26.8777 26.8774 14.1666 42.4997 14.1666C58.122 14.1666 70.833 26.8777 70.833 42.5C70.833 58.1223 58.122 70.8333 42.4997 70.8333Z" fill="#0FB575"/>
<path d="M35.4127 48.1206L27.2704 39.9925L22.2695 45.0075L35.4197 58.1294L59.1702 34.3789L54.1622 29.371L35.4127 48.1206Z" fill="#0FB575"/>
</svg>
