<svg width="72" height="78" viewBox="0 0 72 78" fill="none" xmlns="http://www.w3.org/2000/svg">
<path d="M27 71.2163H30V64.7723H27.033C26.109 64.753 18 64.2149 18 51.8843C18 45.4628 16.005 41.4256 13.494 38.9962C16.005 36.5668 18 32.5297 18 26.1082C18 13.7776 26.109 13.2395 27 13.2201H30V6.77612H26.994C21.807 6.78901 12 10.8487 12 26.1082C12 35.1298 6.96601 35.742 5.95801 35.7742L6.00001 42.2182C6.24601 42.2182 12 42.3278 12 51.8843C12 67.1437 21.807 71.2035 27 71.2163ZM66 35.7742C65.754 35.7742 60 35.6647 60 26.1082C60 10.8487 50.193 6.78901 45 6.77612H42V13.2201H44.967C45.891 13.2395 54 13.7776 54 26.1082C54 32.5297 55.995 36.5668 58.506 38.9962C55.995 41.4256 54 45.4628 54 51.8843C54 64.2149 45.891 64.753 45 64.7723H42V71.2163H45.006C50.193 71.2035 60 67.1437 60 51.8843C60 42.8626 65.034 42.2505 66.042 42.2182L66 35.7742Z" fill="#0FB575"/>
</svg>
