<svg width="54" height="63" viewBox="0 0 54 63" fill="none" xmlns="http://www.w3.org/2000/svg">
<path d="M16.5938 44.0501L19.4063 39.9499L10.3523 31.5L19.4063 23.0501L16.5938 18.9499L5.34383 29.4499C5.08023 29.6958 4.86743 30.0077 4.72119 30.3626C4.57495 30.7175 4.49902 31.1062 4.49902 31.5C4.49902 31.8938 4.57495 32.2825 4.72119 32.6374C4.86743 32.9922 5.08023 33.3042 5.34383 33.5501L16.5938 44.0501ZM37.4063 18.9499L34.5938 23.0501L43.6478 31.5L34.5938 39.9499L37.4063 44.0501L48.6563 33.5501C48.9199 33.3042 49.1327 32.9922 49.279 32.6374C49.4252 32.2825 49.5011 31.8938 49.5011 31.5C49.5011 31.1062 49.4252 30.7175 49.279 30.3626C49.1327 30.0077 48.9199 29.6958 48.6563 29.4499L37.4063 18.9499ZM33.6961 8.44198L24.6961 55.692L20.3018 54.5527L29.3018 7.30273L33.6961 8.44198Z" fill="#E5E5E5"/>
</svg>
