<svg width="443" height="286" viewBox="0 0 443 286" fill="none" xmlns="http://www.w3.org/2000/svg">
<g clip-path="url(#clip0_28_248)">
<path d="M424.014 73.5405H68.2195C64.9147 73.5444 61.7463 74.8581 59.4094 77.1933C57.0725 79.5285 55.7579 82.6946 55.7539 85.9971V273.543C55.7513 276.717 56.9664 279.77 59.1491 282.075C59.3689 282.311 59.5996 282.536 59.8359 282.744C62.1228 284.842 65.1153 286.004 68.2195 286H424.014C427.319 285.996 430.487 284.682 432.824 282.347C435.161 280.012 436.476 276.846 436.48 273.543C445.173 211.33 445.173 148.211 436.48 85.997C436.476 82.6945 435.161 79.5285 432.824 77.1933C430.487 74.8581 427.319 73.5444 424.014 73.5405Z" fill="#F2F2F2"/>
<path d="M407.533 53.7768H51.7381C48.4332 53.7807 45.2648 55.0944 42.928 57.4296C40.5911 59.7648 39.2764 62.9309 39.2725 66.2334V253.78C39.2698 256.953 40.485 260.006 42.6677 262.311C42.8874 262.547 43.1182 262.772 43.3544 262.981C45.6414 265.078 48.6338 266.24 51.7381 266.236H407.533C410.838 266.232 414.006 264.919 416.343 262.584C418.68 260.248 419.994 257.082 419.998 253.78V66.2334C419.994 62.9309 418.68 59.7648 416.343 57.4296C414.006 55.0944 410.838 53.7807 407.533 53.7768Z" fill="white"/>
<path d="M261.247 178.76C260.991 178.772 260.739 178.705 260.523 178.568C260.307 178.431 260.138 178.232 260.039 177.996C259.941 177.76 259.917 177.5 259.971 177.25C260.026 177.001 260.155 176.774 260.343 176.601L260.429 176.261C260.417 176.234 260.406 176.207 260.395 176.18C260.137 175.573 259.706 175.055 259.156 174.692C258.605 174.328 257.959 174.136 257.299 174.138C256.639 174.141 255.995 174.338 255.447 174.705C254.899 175.073 254.471 175.594 254.219 176.203C253.209 178.634 251.923 181.069 251.606 183.639C251.466 184.775 251.525 185.927 251.78 187.043C249.407 181.872 248.175 176.251 248.168 170.562C248.167 169.135 248.246 167.708 248.405 166.289C248.537 165.126 248.719 163.971 248.952 162.825C250.223 156.604 252.953 150.774 256.918 145.812C258.837 144.766 260.388 143.157 261.364 141.202C261.718 140.5 261.967 139.75 262.106 138.976C261.889 139.004 261.29 135.71 261.453 135.508C261.151 135.05 260.611 134.823 260.282 134.377C258.643 132.157 256.386 132.544 255.208 135.561C252.69 136.831 252.666 138.936 254.21 140.961C255.193 142.25 255.328 143.993 256.19 145.372C256.102 145.486 256.009 145.596 255.921 145.709C254.299 147.793 252.886 150.03 251.701 152.39C251.989 149.747 251.645 147.073 250.698 144.589C249.737 142.273 247.937 140.323 246.352 138.322C245.932 137.784 245.363 137.383 244.715 137.169C244.068 136.954 243.371 136.936 242.714 137.118C242.056 137.299 241.467 137.671 241.021 138.186C240.575 138.702 240.292 139.338 240.207 140.015C240.204 140.044 240.201 140.074 240.198 140.103C240.433 140.236 240.664 140.377 240.889 140.526C241.173 140.715 241.392 140.985 241.519 141.301C241.646 141.617 241.675 141.964 241.601 142.297C241.527 142.629 241.355 142.931 241.106 143.164C240.857 143.397 240.544 143.549 240.207 143.601L240.173 143.606C240.257 144.454 240.405 145.295 240.616 146.12C238.583 153.98 242.973 156.842 249.243 156.971C249.381 157.042 249.516 157.113 249.654 157.18C248.464 160.551 247.717 164.063 247.433 167.626C247.272 169.728 247.282 171.84 247.461 173.941L247.451 173.867C246.996 171.531 245.749 169.423 243.92 167.899C241.203 165.669 237.364 164.847 234.433 163.055C234.122 162.855 233.759 162.748 233.389 162.747C233.019 162.746 232.656 162.851 232.344 163.05C232.031 163.248 231.782 163.531 231.625 163.867C231.469 164.202 231.412 164.575 231.46 164.942L231.472 165.02C231.909 165.198 232.335 165.403 232.746 165.633C232.982 165.766 233.212 165.907 233.438 166.056C233.721 166.245 233.94 166.515 234.067 166.831C234.194 167.147 234.223 167.494 234.149 167.827C234.075 168.159 233.903 168.462 233.654 168.694C233.406 168.927 233.092 169.079 232.756 169.131L232.721 169.137C232.696 169.14 232.675 169.144 232.65 169.147C233.397 170.929 234.445 172.568 235.748 173.994C237.02 180.855 242.481 181.506 248.324 179.508H248.327C248.968 182.292 249.897 185.001 251.099 187.593H260.999C261.034 187.483 261.066 187.369 261.098 187.259C260.182 187.317 259.262 187.262 258.359 187.096C259.093 186.196 259.828 185.288 260.562 184.387C260.579 184.371 260.594 184.353 260.608 184.334C260.981 183.873 261.357 183.416 261.73 182.955L261.73 182.954C261.75 181.541 261.587 180.132 261.247 178.76L261.247 178.76Z" fill="#F2F2F2"/>
<path d="M419.998 195.965V215.899C419.994 219.202 418.68 222.368 416.343 224.703C414.006 227.038 410.838 228.352 407.533 228.356H51.7381C48.6338 228.36 45.6414 227.198 43.3544 225.1C43.1182 224.892 42.8874 224.667 42.6677 224.431C40.485 222.126 39.2698 219.073 39.2725 215.899V195.965C147.585 178.091 280.789 184.142 419.998 195.965Z" fill="#3F3D56"/>
<path d="M419.998 217.925V237.859C419.994 241.161 418.68 244.328 416.343 246.663C414.006 248.998 410.838 250.312 407.533 250.316H51.7381C48.6338 250.32 45.6414 249.158 43.3544 247.06C43.1182 246.851 42.8874 246.626 42.6677 246.39C40.485 244.086 39.2698 241.032 39.2725 237.859V217.925C138.97 204.594 274.64 208.886 419.998 217.925Z" fill="white"/>
<path d="M419.998 233.846V253.78C419.994 257.082 418.68 260.248 416.343 262.583C414.006 264.919 410.838 266.232 407.533 266.236H51.7381C48.6338 266.24 45.6414 265.078 43.3544 262.981C43.1182 262.772 42.8874 262.547 42.6677 262.311C40.485 260.006 39.2698 256.953 39.2725 253.78V233.846C147.145 222.651 278.571 225.308 419.998 233.846Z" fill="#3F3D56"/>
<path d="M390.353 176.015C390.098 176.027 389.845 175.96 389.629 175.823C389.413 175.686 389.244 175.487 389.146 175.251C389.047 175.015 389.023 174.755 389.078 174.506C389.132 174.256 389.262 174.029 389.45 173.856L389.535 173.516C389.524 173.489 389.512 173.462 389.501 173.435C389.244 172.828 388.813 172.31 388.262 171.947C387.711 171.584 387.065 171.391 386.405 171.394C385.746 171.396 385.101 171.593 384.553 171.96C384.005 172.328 383.578 172.849 383.325 173.458C382.315 175.889 381.029 178.324 380.712 180.894C380.573 182.03 380.632 183.182 380.886 184.298C378.514 179.127 377.282 173.506 377.274 167.817C377.273 166.39 377.353 164.963 377.512 163.544C377.643 162.381 377.825 161.227 378.058 160.08C379.33 153.859 382.06 148.029 386.024 143.067C387.943 142.021 389.495 140.412 390.471 138.457C390.824 137.755 391.074 137.005 391.212 136.231C390.996 136.259 390.396 132.965 390.559 132.763C390.258 132.305 389.718 132.078 389.388 131.632C387.75 129.412 385.492 129.799 384.314 132.816C381.797 134.086 381.772 136.191 383.317 138.216C384.3 139.505 384.435 141.248 385.297 142.627C385.208 142.741 385.116 142.851 385.027 142.964C383.406 145.048 381.992 147.285 380.807 149.645C381.095 147.002 380.752 144.328 379.804 141.844C378.844 139.528 377.043 137.579 375.458 135.577C375.039 135.039 374.469 134.638 373.822 134.424C373.174 134.209 372.478 134.191 371.82 134.373C371.162 134.554 370.573 134.926 370.127 135.441C369.681 135.957 369.398 136.593 369.314 137.27C369.31 137.299 369.307 137.329 369.304 137.358C369.54 137.491 369.77 137.632 369.996 137.781C370.279 137.97 370.499 138.24 370.625 138.556C370.752 138.872 370.781 139.219 370.707 139.552C370.634 139.884 370.461 140.186 370.212 140.419C369.964 140.652 369.651 140.804 369.314 140.856L369.279 140.862C369.363 141.71 369.512 142.55 369.723 143.376C367.689 151.235 372.08 154.097 378.349 154.226C378.487 154.297 378.622 154.368 378.761 154.435C377.57 157.806 376.824 161.318 376.539 164.881C376.379 166.984 376.388 169.095 376.568 171.196L376.557 171.122C376.103 168.786 374.856 166.678 373.026 165.154C370.309 162.924 366.471 162.103 363.54 160.31C363.228 160.11 362.866 160.003 362.496 160.002C362.125 160.001 361.763 160.106 361.45 160.305C361.138 160.503 360.888 160.786 360.732 161.122C360.575 161.457 360.518 161.83 360.567 162.197L360.579 162.275C361.016 162.453 361.441 162.658 361.853 162.888C362.088 163.021 362.318 163.162 362.544 163.311C362.827 163.5 363.047 163.77 363.174 164.086C363.301 164.402 363.329 164.749 363.256 165.082C363.182 165.414 363.009 165.717 362.761 165.949C362.512 166.182 362.199 166.335 361.862 166.386L361.828 166.392C361.803 166.395 361.781 166.399 361.757 166.402C362.503 168.184 363.551 169.823 364.854 171.25C366.126 178.11 371.588 178.761 377.43 176.763H377.434C378.075 179.547 379.003 182.256 380.205 184.848H390.105C390.141 184.738 390.172 184.624 390.204 184.515C389.288 184.572 388.368 184.517 387.465 184.352C388.2 183.451 388.934 182.543 389.669 181.642C389.685 181.626 389.7 181.608 389.715 181.589C390.087 181.128 390.463 180.671 390.836 180.21L390.836 180.209C390.856 178.796 390.694 177.387 390.353 176.015L390.353 176.015Z" fill="#F2F2F2"/>
<path d="M384.032 198.724C384.032 198.904 384.03 199.083 384.027 199.259H347.816C346.988 199.26 346.168 199.091 345.408 198.762C344.648 198.433 343.964 197.951 343.397 197.347C343.411 197.096 343.432 196.847 343.459 196.598C344.524 186.373 357.841 170.961 363.691 178.398C369.54 185.835 384.032 187.499 384.032 198.724Z" fill="#3F3D56"/>
<path d="M403.303 198.887C403.305 199.012 403.301 199.136 403.3 199.259H378.061C377.483 199.26 376.912 199.142 376.382 198.912C375.852 198.683 375.375 198.348 374.98 197.926C374.99 197.751 375.005 197.578 375.023 197.405C375.766 190.278 387.023 177.702 389.125 184.719C394.482 202.603 403.194 191.856 403.303 198.887Z" fill="#3F3D56"/>
<path d="M407.533 53.7768H51.7381C48.4332 53.7807 45.2648 55.0944 42.928 57.4296C40.5911 59.7648 39.2764 62.9309 39.2725 66.2334V253.78C39.2698 256.953 40.485 260.006 42.6677 262.311C42.8874 262.547 43.1182 262.772 43.3544 262.981C45.6414 265.078 48.6338 266.24 51.7381 266.236H407.533C410.838 266.232 414.006 264.919 416.343 262.583C418.68 260.248 419.994 257.082 419.998 253.78C437.09 205.559 431.08 138.017 419.998 66.2333C419.994 62.9309 418.68 59.7648 416.343 57.4296C414.006 55.0944 410.838 53.7808 407.533 53.7768ZM418.9 193.484C418.9 212.488 411.345 230.714 397.897 244.151C384.45 257.589 366.211 265.138 347.194 265.138H51.7381C49.0655 265.143 46.4781 264.199 44.4367 262.476C43.8332 261.965 43.2829 261.395 42.794 260.774C41.2203 258.782 40.3665 256.317 40.3712 253.78V66.2334C40.3712 63.2209 41.5688 60.3318 43.7005 58.2016C45.8322 56.0715 48.7234 54.8748 51.7381 54.8748H313.034C371.502 54.8748 418.9 102.238 418.9 160.664V193.484Z" fill="#3F3D56"/>
<path d="M119.571 240.403C119.574 240.597 119.568 240.791 119.565 240.983H80.3213C79.4236 240.983 78.5353 240.8 77.7115 240.443C76.8876 240.087 76.1459 239.565 75.5322 238.91C75.5467 238.638 75.5699 238.368 75.5989 238.099C76.7534 227.017 88.1858 224.9 97.5256 218.373C108.036 211.028 119.38 227.394 119.571 240.403Z" fill="#3F3D56"/>
<path d="M128.274 235.651C128.19 235.757 128.272 235.922 128.27 236.055H100.916C100.29 236.056 99.6713 235.928 99.0971 235.679C98.5229 235.431 98.0059 235.067 97.5781 234.61C97.5882 234.421 97.6044 234.233 97.6246 234.045C98.4293 226.321 104.967 220.525 112.908 220.296C127.711 219.869 135.323 226.695 128.274 235.651Z" fill="#3F3D56"/>
<path d="M132.207 192.092C132.207 192.286 132.204 192.48 132.201 192.672H92.9571C92.0593 192.672 91.171 192.489 90.3472 192.132C89.5234 191.776 88.7817 191.254 88.168 190.599C88.1825 190.326 88.2057 190.057 88.2347 189.787C89.3892 178.706 101.853 175.151 110.161 170.062C118.47 164.973 132.207 179.926 132.207 192.092Z" fill="#3F3D56"/>
<path d="M140.909 187.34C140.896 187.474 140.894 187.609 140.905 187.744H113.552C112.926 187.744 112.307 187.616 111.733 187.368C111.159 187.119 110.642 186.756 110.214 186.299C110.224 186.109 110.24 185.921 110.26 185.733C111.065 178.01 118.031 174.565 125.543 171.985C137.951 167.723 143.08 176.501 140.909 187.34Z" fill="#3F3D56"/>
<path d="M159.588 195.012C159.595 195.147 159.594 195.282 159.584 195.417H132.231C131.605 195.417 130.986 195.289 130.412 195.041C129.837 194.792 129.32 194.428 128.893 193.972C128.903 193.782 128.919 193.594 128.939 193.406C129.744 185.682 138.678 185.342 144.222 179.657C149.359 174.391 158.467 184.77 159.588 195.012Z" fill="#3F3D56"/>
<path d="M320.01 131.733H309.022V266.236H320.01V131.733Z" fill="#3F3D56"/>
<path d="M392.574 71.4762C392.167 63.5378 389.464 55.5665 384.151 49.6538C381.833 47.0736 372.032 41.0237 368.906 39.503C370.093 30.1756 376.476 24.7955 371.807 16.8187C365.879 6.70078 353.512 0.766196 341.903 2.47356C337.749 3.10586 333.782 4.63452 330.278 6.95332C326.268 3.45076 320.779 1.29871 315.434 0.480717C298.595 -2.09954 280.592 5.88828 271.219 20.1017C269.802 22.2501 269.706 25.4651 270.445 29.2977C273.291 44.0693 265.135 58.4665 251.104 63.9185C250.835 64.0177 250.59 64.1744 250.386 64.3778C242.288 72.7499 239.629 85.9586 243.865 96.8122C244.867 99.3815 245.165 103.848 247.913 103.969C265.655 104.75 267.015 114.427 256.953 128.816C254.847 131.829 257.908 136.084 259.814 139.288C264.198 146.661 273.049 150.449 281.619 150.954C290.151 151.459 298.579 149.202 306.825 146.957L317.813 146.518C327.268 148.148 337.157 147.89 346.117 144.509C355.781 140.858 364.209 133.249 367.406 123.433C368.499 120.078 387.316 124.284 387.036 120.754C391.716 118.366 377.564 107.364 381.108 103.477C389.004 94.739 393.125 83.2369 392.574 71.4762Z" fill="#019043"/>
<path opacity="0.1" d="M350.508 128.795C347.979 136.56 342.17 142.935 335.072 147.071C338.659 146.632 342.182 145.772 345.568 144.508C353.801 141.398 361.124 135.408 365.093 127.635C359.516 127.64 351.223 126.601 350.508 128.795Z" fill="black"/>
<path opacity="0.1" d="M381.108 103.477C389.004 94.739 393.126 83.2369 392.574 71.4762C392.167 63.5378 389.464 55.5665 384.151 49.6538C381.833 47.0736 372.032 41.0237 368.906 39.503C370.093 30.1756 376.477 24.7955 371.807 16.8187C365.879 6.70076 353.512 0.766177 341.903 2.47354C337.749 3.10584 333.782 4.6345 330.278 6.9533C326.268 3.45074 320.78 1.2987 315.434 0.480699C305.716 -1.00838 295.614 1.02815 287.003 5.74388C291.015 5.20793 295.083 5.24128 299.085 5.84295C304.431 6.66095 309.919 8.813 313.93 12.3156C317.435 10.0208 327.594 4.1627 325.555 7.83579C316.841 23.5356 327.14 31.2408 355.458 22.1809C359.967 20.7383 353.938 28.3026 346.82 37.2812C340.241 45.5809 347.522 57.5662 357.933 55.5928C363.018 54.6289 367.021 54.1463 367.803 55.0161C373.115 60.9287 392.334 70.2547 376.225 76.8385C360.116 83.4223 372.604 100.242 364.759 108.839C362.27 111.57 368.508 117.809 370.82 122.109C376.523 121.668 387.248 123.426 387.036 120.754C391.717 118.366 377.564 107.364 381.108 103.477Z" fill="black"/>
<path d="M264.515 165.664H309.254C309.399 165.664 309.539 165.606 309.642 165.503C309.745 165.4 309.803 165.26 309.803 165.115C309.803 164.969 309.745 164.829 309.642 164.727C309.539 164.624 309.399 164.566 309.254 164.566H264.515C264.37 164.566 264.23 164.624 264.127 164.727C264.024 164.829 263.966 164.969 263.966 165.115C263.966 165.26 264.024 165.4 264.127 165.503C264.23 165.606 264.37 165.664 264.515 165.664Z" fill="#3F3D56"/>
<path d="M325.086 209.323C316.016 197.267 310.773 183.785 310.601 168.414C310.309 167.585 310.357 166.675 310.736 165.882C311.114 165.09 311.792 164.48 312.62 164.186L343.539 153.254C344.368 152.962 345.279 153.01 346.072 153.389C346.865 153.767 347.476 154.444 347.77 155.272L362.255 196.182C362.547 197.01 362.499 197.92 362.12 198.713C361.742 199.506 361.064 200.116 360.236 200.41L329.318 211.341C328.489 211.634 327.578 211.585 326.784 211.207C325.991 210.828 325.38 210.151 325.086 209.323Z" fill="#E6E6E6"/>
<path d="M323.082 196.128C317.627 190.616 315.291 180.785 313.77 169.828C313.496 169.052 313.541 168.2 313.896 167.457C314.25 166.715 314.885 166.144 315.661 165.868L342.233 156.473C343.009 156.2 343.862 156.245 344.605 156.599C345.348 156.954 345.92 157.588 346.195 158.363L359.085 194.767C359.359 195.543 359.314 196.396 358.959 197.138C358.604 197.88 357.97 198.452 357.194 198.727L340.733 204.547C337.275 205.765 333.475 205.563 330.166 203.985C326.857 202.407 324.309 199.581 323.082 196.128Z" fill="white"/>
<path d="M346.552 177.974L325.853 185.357C325.69 185.416 325.517 185.441 325.344 185.433C325.171 185.424 325.001 185.382 324.844 185.308C324.688 185.234 324.547 185.129 324.431 185.001C324.315 184.873 324.225 184.723 324.167 184.56C324.108 184.397 324.083 184.224 324.091 184.051C324.1 183.878 324.143 183.708 324.217 183.552C324.291 183.395 324.396 183.255 324.524 183.139C324.653 183.023 324.803 182.933 324.966 182.875L345.665 175.492C345.994 175.375 346.357 175.394 346.672 175.543C346.988 175.693 347.231 175.962 347.349 176.291C347.466 176.62 347.448 176.982 347.299 177.297C347.149 177.613 346.881 177.857 346.552 177.974Z" fill="#019043"/>
<path d="M327.976 176.927L323.422 178.551C323.259 178.61 323.086 178.635 322.913 178.627C322.74 178.618 322.571 178.575 322.414 178.501C322.258 178.427 322.117 178.323 322.001 178.195C321.885 178.066 321.795 177.916 321.737 177.753C321.679 177.59 321.653 177.418 321.662 177.245C321.67 177.072 321.713 176.903 321.787 176.746C321.861 176.59 321.966 176.45 322.094 176.333C322.222 176.217 322.372 176.128 322.536 176.069L327.089 174.445C327.252 174.387 327.425 174.361 327.598 174.37C327.772 174.378 327.941 174.421 328.098 174.495C328.254 174.569 328.395 174.673 328.511 174.801C328.628 174.93 328.717 175.08 328.776 175.243C328.834 175.406 328.859 175.579 328.851 175.752C328.842 175.925 328.799 176.094 328.725 176.251C328.651 176.407 328.546 176.547 328.418 176.663C328.289 176.78 328.139 176.869 327.976 176.927Z" fill="#019043"/>
<path d="M350.449 188.886L329.751 196.269C329.587 196.327 329.414 196.353 329.241 196.344C329.068 196.336 328.899 196.293 328.742 196.219C328.585 196.145 328.445 196.041 328.328 195.913C328.212 195.784 328.122 195.634 328.064 195.471C328.006 195.308 327.98 195.135 327.989 194.962C327.998 194.789 328.04 194.62 328.115 194.463C328.189 194.307 328.293 194.167 328.422 194.051C328.55 193.935 328.701 193.845 328.864 193.787L349.562 186.404C349.892 186.286 350.254 186.304 350.57 186.454C350.886 186.604 351.13 186.873 351.248 187.202C351.365 187.531 351.347 187.893 351.197 188.209C351.048 188.525 350.778 188.768 350.449 188.886Z" fill="#019043"/>
<path d="M348.5 183.43L327.801 190.813C327.638 190.871 327.465 190.897 327.292 190.889C327.119 190.88 326.949 190.838 326.793 190.764C326.636 190.689 326.496 190.585 326.379 190.457C326.263 190.329 326.173 190.179 326.115 190.016C326.057 189.852 326.031 189.679 326.04 189.507C326.048 189.334 326.091 189.164 326.165 189.008C326.24 188.851 326.344 188.711 326.473 188.595C326.601 188.479 326.751 188.389 326.915 188.331L347.613 180.948C347.943 180.831 348.305 180.849 348.621 180.999C348.936 181.149 349.18 181.418 349.297 181.747C349.415 182.075 349.397 182.438 349.247 182.753C349.098 183.069 348.829 183.312 348.5 183.43Z" fill="#019043"/>
<path d="M312.358 172.801C315.392 172.801 317.852 170.343 317.852 167.311C317.852 164.279 315.392 161.821 312.358 161.821C309.324 161.821 306.864 164.279 306.864 167.311C306.864 170.343 309.324 172.801 312.358 172.801Z" fill="#019043"/>
<path d="M272.299 27.3179H227.561C227.415 27.3179 227.276 27.2601 227.173 27.1572C227.07 27.0542 227.012 26.9146 227.012 26.769C227.012 26.6234 227.07 26.4837 227.173 26.3808C227.276 26.2778 227.415 26.22 227.561 26.22H272.3C272.445 26.22 272.585 26.2778 272.688 26.3808C272.791 26.4837 272.849 26.6234 272.849 26.769C272.849 26.9146 272.791 27.0542 272.688 27.1572C272.585 27.2601 272.445 27.3179 272.3 27.3179H272.299Z" fill="#3F3D56"/>
<path d="M169.707 46.7914C173.593 32.2159 180.965 19.7681 192.955 10.1387C193.427 9.39741 194.173 8.87321 195.031 8.68113C195.888 8.48904 196.787 8.64476 197.53 9.11412L225.231 26.6589C225.973 27.13 226.498 27.8758 226.69 28.7329C226.882 29.5899 226.726 30.4882 226.256 31.2306L203.008 67.8833C202.537 68.6246 201.791 69.1488 200.933 69.3409C200.075 69.533 199.176 69.3773 198.433 68.9079L170.732 51.3631C169.991 50.8921 169.466 50.1462 169.274 49.2891C169.081 48.4321 169.237 47.5338 169.707 46.7914Z" fill="#E6E6E6"/>
<path d="M178.854 37.0666C179.822 29.3746 186.116 21.4669 193.8 13.5029C194.241 12.8086 194.94 12.3177 195.743 12.1378C196.547 11.9579 197.389 12.1037 198.084 12.5433L221.891 27.6216C222.586 28.0628 223.077 28.7613 223.257 29.564C223.437 30.3666 223.291 31.2079 222.851 31.9032L202.164 64.5191C201.722 65.2134 201.023 65.7043 200.22 65.8842C199.417 66.0641 198.575 65.9182 197.879 65.4786L183.131 56.1379C180.037 54.1729 177.848 51.0614 177.046 47.4861C176.244 43.9108 176.894 40.1636 178.854 37.0666Z" fill="white"/>
<path d="M207.637 44.2961L189.042 32.5905C188.895 32.4983 188.768 32.3782 188.668 32.2369C188.568 32.0957 188.496 31.936 188.458 31.7672C188.419 31.5984 188.414 31.4236 188.444 31.2529C188.473 31.0822 188.535 30.919 188.628 30.7725C188.72 30.626 188.84 30.4991 188.982 30.3991C189.123 30.2991 189.283 30.2279 189.452 30.1896C189.621 30.1514 189.796 30.1468 189.967 30.1761C190.138 30.2055 190.301 30.2682 190.447 30.3606L209.043 42.0663C209.339 42.2526 209.549 42.5487 209.626 42.8895C209.704 43.2303 209.642 43.5879 209.456 43.8836C209.269 44.1793 208.973 44.3889 208.632 44.4662C208.291 44.5436 207.933 44.4824 207.637 44.2961Z" fill="#019043"/>
<path d="M196.988 29.0514L192.897 26.4761C192.601 26.2897 192.392 25.9936 192.315 25.653C192.238 25.3124 192.299 24.9551 192.485 24.6596C192.671 24.3641 192.968 24.1546 193.308 24.0771C193.649 23.9996 194.007 24.0604 194.303 24.2463L198.394 26.8215C198.69 27.0078 198.899 27.3039 198.977 27.6447C199.054 27.9855 198.993 28.3431 198.806 28.6388C198.62 28.9345 198.324 29.1441 197.983 29.2214C197.642 29.2988 197.284 29.2376 196.988 29.0514Z" fill="#019043"/>
<path d="M201.458 54.0992L182.863 42.3935C182.567 42.207 182.358 41.911 182.281 41.5703C182.203 41.2297 182.265 40.8724 182.451 40.5769C182.637 40.2814 182.933 40.0719 183.274 39.9944C183.615 39.9169 183.973 39.9778 184.268 40.1636L202.864 51.8693C203.011 51.9615 203.138 52.0816 203.238 52.2228C203.338 52.3641 203.41 52.5237 203.448 52.6926C203.487 52.8614 203.491 53.0362 203.462 53.2068C203.433 53.3775 203.37 53.5408 203.278 53.6873C203.186 53.8338 203.065 53.9607 202.924 54.0607C202.782 54.1607 202.623 54.2319 202.454 54.2701C202.285 54.3084 202.11 54.313 201.939 54.2836C201.768 54.2543 201.605 54.1916 201.458 54.0992Z" fill="#019043"/>
<path d="M204.547 49.1977L185.952 37.492C185.656 37.3057 185.446 37.0096 185.369 36.6688C185.291 36.328 185.352 35.9704 185.539 35.6747C185.725 35.379 186.022 35.1694 186.363 35.092C186.704 35.0147 187.062 35.0758 187.357 35.2621L205.953 46.9678C206.1 47.0599 206.227 47.1801 206.327 47.3213C206.427 47.4626 206.499 47.6222 206.537 47.791C206.576 47.9599 206.58 48.1346 206.551 48.3053C206.522 48.476 206.459 48.6393 206.367 48.7858C206.275 48.9323 206.154 49.0592 206.013 49.1592C205.871 49.2592 205.712 49.3304 205.543 49.3686C205.374 49.4069 205.199 49.4114 205.028 49.3821C204.857 49.3528 204.694 49.2901 204.547 49.1977Z" fill="#019043"/>
<path d="M224.457 34.4548C227.491 34.4548 229.951 31.9969 229.951 28.9649C229.951 25.9329 227.491 23.475 224.457 23.475C221.423 23.475 218.963 25.9329 218.963 28.9649C218.963 31.9969 221.423 34.4548 224.457 34.4548Z" fill="#019043"/>
<path d="M175.87 97.9833H117.703C117.37 97.9833 117.051 97.8512 116.816 97.6162C116.58 97.3811 116.448 97.0623 116.448 96.7298C116.448 96.3974 116.58 96.0786 116.816 95.8435C117.051 95.6084 117.37 95.4764 117.703 95.4764H175.87C176.203 95.4764 176.522 95.6084 176.757 95.8435C176.992 96.0786 177.124 96.3974 177.124 96.7298C177.124 97.0623 176.992 97.3811 176.757 97.6162C176.522 97.8512 176.203 97.9833 175.87 97.9833Z" fill="#019043"/>
<path d="M205.316 109.443H117.703C117.538 109.443 117.375 109.411 117.222 109.348C117.07 109.286 116.931 109.193 116.815 109.077C116.698 108.96 116.605 108.822 116.542 108.67C116.479 108.518 116.446 108.354 116.446 108.19C116.446 108.025 116.479 107.862 116.542 107.709C116.605 107.557 116.698 107.419 116.815 107.302C116.931 107.186 117.07 107.094 117.222 107.031C117.375 106.968 117.538 106.936 117.703 106.936H205.316C205.648 106.937 205.967 107.069 206.201 107.304C206.436 107.539 206.568 107.858 206.568 108.19C206.568 108.522 206.436 108.84 206.201 109.075C205.967 109.31 205.648 109.442 205.316 109.443Z" fill="#F2F2F2"/>
<path d="M205.317 118.394H117.701C117.368 118.394 117.048 118.526 116.813 118.761C116.578 118.997 116.445 119.316 116.445 119.648C116.445 119.981 116.578 120.3 116.813 120.535C117.048 120.771 117.368 120.903 117.701 120.903H205.317C205.65 120.903 205.969 120.771 206.205 120.535C206.44 120.3 206.572 119.981 206.572 119.648C206.572 119.316 206.44 118.997 206.205 118.761C205.969 118.526 205.65 118.394 205.317 118.394Z" fill="#F2F2F2"/>
<path d="M205.316 132.362H117.703C117.538 132.363 117.375 132.331 117.222 132.268C117.07 132.205 116.931 132.113 116.815 131.996C116.698 131.88 116.605 131.741 116.542 131.589C116.479 131.437 116.446 131.274 116.446 131.109C116.446 130.944 116.479 130.781 116.542 130.629C116.605 130.476 116.698 130.338 116.815 130.222C116.931 130.105 117.07 130.013 117.222 129.95C117.375 129.887 117.538 129.855 117.703 129.855H205.316C205.648 129.856 205.967 129.989 206.201 130.224C206.436 130.459 206.568 130.777 206.568 131.109C206.568 131.441 206.436 131.759 206.201 131.994C205.967 132.229 205.648 132.362 205.316 132.362Z" fill="#F2F2F2"/>
<path d="M47.2723 158.492L49.912 136.787L42.7276 136.271L41.1162 159.031C40.8429 159.601 40.7256 160.234 40.7761 160.865C40.8266 161.495 41.043 162.101 41.4036 162.621C41.7641 163.141 42.2558 163.556 42.8289 163.825C43.402 164.094 44.0359 164.206 44.6666 164.151C45.2972 164.096 45.902 163.875 46.4196 163.511C46.9372 163.147 47.3492 162.652 47.6138 162.078C47.8784 161.503 47.9861 160.869 47.9262 160.239C47.8662 159.609 47.6406 159.006 47.2723 158.492L47.2723 158.492Z" fill="#A0616A"/>
<path d="M56.4973 106.306C55.1613 106.124 53.8028 106.394 52.6382 107.073C51.4737 107.753 50.5702 108.802 50.0717 110.054C47.052 117.639 41.2269 132.523 41.5432 133.681C41.9691 135.241 42.3949 135.382 41.2598 135.95C40.1246 136.517 38.5635 135.525 40.1246 136.517C41.6857 137.51 39.6991 137.793 40.4087 138.502C41.1184 139.211 52.8966 140.769 52.8966 140.769C52.8966 140.769 50.2956 132.866 51.1696 131.713C52.0436 130.56 54.8819 131.977 53.4626 130.559C52.0433 129.142 50.7218 128.75 52.3757 128.095C54.0297 127.44 55.4786 126.715 55.4786 126.715L61.1338 114.89C61.544 114.033 61.7457 113.09 61.7223 112.139C61.6989 111.189 61.4512 110.257 60.9993 109.421C60.5473 108.584 59.904 107.866 59.1216 107.325C58.3393 106.783 57.4401 106.435 56.4973 106.306Z" fill="#E6E6E6"/>
<path d="M66.8224 253.874L70.745 253.874L72.6107 238.755H66.8213L66.8224 253.874Z" fill="#A0616A"/>
<path d="M66.6838 257.963L78.7466 257.963V257.811C78.7465 256.566 78.2518 255.373 77.3713 254.493C76.4908 253.613 75.2966 253.119 74.0514 253.119H74.0511L71.8477 251.448L67.7366 253.119L66.6836 253.119L66.6838 257.963Z" fill="#2F2E41"/>
<path d="M3.79004 227.754L5.39535 231.331L19.9651 226.845L17.5956 221.567L3.79004 227.754Z" fill="#A0616A"/>
<path d="M0 229.301L4.93607 240.3L5.07525 240.237C6.21142 239.728 7.09864 238.789 7.54178 237.626C7.98492 236.463 7.94769 235.172 7.43826 234.037L7.43813 234.036L8.06187 231.344L4.85423 228.279L4.42336 227.319L0 229.301Z" fill="#2F2E41"/>
<path d="M63.0125 97.0994C67.1442 97.0994 70.4937 93.7523 70.4937 89.6236C70.4937 85.4948 67.1442 82.1477 63.0125 82.1477C58.8807 82.1477 55.5312 85.4948 55.5312 89.6236C55.5312 93.7523 58.8807 97.0994 63.0125 97.0994Z" fill="#A0616A"/>
<path d="M76.3089 158.895L48.0383 157.998C48.0383 157.998 42.0563 169.565 45.7204 176.786C49.3846 184.006 46.4837 204.462 46.4837 204.462L9.89551 223.018L13.0367 230.193C13.0367 230.193 21.114 229.744 22.4602 228.399C23.7068 227.306 25.2906 226.673 26.9476 226.605C27.8451 226.605 54.3207 214.947 54.3207 214.947L61.1993 195.033L68.1786 222.234L64.7562 246.406L72.926 246.621C72.926 246.621 75.7439 245.206 74.9045 243.08C74.0652 240.955 73.6311 240.03 75.6431 238.25C77.6551 236.471 81.5516 209.523 81.5516 209.523L76.9302 178.429C76.9302 178.429 74.1776 177.655 76.5032 175.556C78.8288 173.457 76.4523 170.953 76.4523 170.953C76.4523 170.953 78.4192 168.173 76.4265 168.619C74.4337 169.065 76.3089 157.998 76.3089 157.998" fill="#2F2E41"/>
<path d="M69.9899 102.045L59.5515 101.399L57.7263 104.418C57.7263 104.418 53.6169 104.188 54.5144 105.533C55.4119 106.879 54.8903 105.777 53.5805 106.776C52.2707 107.776 50.5021 107.953 51.3864 108.761C51.5153 108.879 51.4633 109.227 51.2802 109.737C47.6683 119.524 46.7795 130.106 48.7084 140.358C49.3219 143.479 49.713 145.756 49.5783 145.891C49.1295 146.339 46.8858 145.891 48.2321 147.236C49.5783 148.581 51.822 147.236 49.1295 149.926C46.4371 152.617 40.7837 164.011 47.3346 164.724C53.8855 165.438 78.2976 163.827 77.8488 162.034L74.7077 149.478L72.1495 113.351L69.5864 106.451L69.9899 102.045Z" fill="#E6E6E6"/>
<path d="M70.5356 165.414L66.1746 143.988L59.1953 145.767L64.8655 167.869C64.7868 168.497 64.8756 169.134 65.1229 169.717C65.3702 170.299 65.7673 170.805 66.2738 171.185C66.7803 171.564 67.3782 171.803 68.0069 171.877C68.6356 171.951 69.2727 171.858 69.8535 171.606C70.4343 171.354 70.9382 170.954 71.3141 170.445C71.69 169.936 71.9245 169.337 71.9937 168.708C72.063 168.079 71.9646 167.443 71.7085 166.865C71.4524 166.286 71.0478 165.786 70.5356 165.414H70.5356Z" fill="#A0616A"/>
<path d="M62.7817 112.99C61.4566 113.239 60.2531 113.924 59.3631 114.936C58.4731 115.949 57.9477 117.229 57.8708 118.575C57.4052 126.725 56.5864 142.685 57.2529 143.684C58.1504 145.029 58.5991 145.029 57.7016 145.926C56.8042 146.823 55.0092 146.375 56.8042 146.823C58.5991 147.271 56.8042 148.168 57.7016 148.617C58.5991 149.065 70.2663 146.823 70.2663 146.823C70.2663 146.823 65.2988 140.146 65.7632 138.776C66.2276 137.406 69.3688 137.855 67.5739 136.958C65.7789 136.061 64.4012 136.107 65.7632 134.963C67.1251 133.819 68.2707 132.674 68.2707 132.674L69.8957 119.669C70.0136 118.726 69.9067 117.768 69.5839 116.874C69.2611 115.979 68.7314 115.174 68.038 114.522C67.3446 113.871 66.507 113.393 65.5936 113.127C64.6802 112.861 63.7167 112.814 62.7817 112.99Z" fill="#E6E6E6"/>
<path d="M65.2676 96.827C64.3254 97.5445 63.3045 98.1526 62.2248 98.6396C61.1345 99.1268 59.9106 99.228 58.7551 98.9265C58.1811 98.7459 57.6559 98.4371 57.2191 98.0235C56.7824 97.6098 56.4456 97.1023 56.2344 96.5392C55.8222 95.4133 52.3787 94.098 53.0284 93.0901C53.3552 92.6892 53.6258 92.2456 53.8326 91.7715C53.9267 91.5309 53.9239 91.2632 53.8247 91.0246C53.7255 90.7861 53.5376 90.5952 53.3006 90.492C53.0934 90.462 52.8822 90.5025 52.7007 90.6069C52.5193 90.7113 52.3783 90.8735 52.3002 91.0677C52.1542 91.4604 52.1009 91.8815 52.1442 92.2982C51.812 92.0201 51.5789 91.642 51.4798 91.2205C51.3807 90.799 51.4209 90.3567 51.5944 89.9599L50.4307 89.376C51.4351 88.985 55.2577 87.4012 54.4081 86.7382C53.6894 86.1773 51.3759 84.3553 51.6342 83.6989C51.936 83.0592 52.3593 82.4842 52.8806 82.0059C53.8837 80.9593 54.9776 79.8609 56.3978 79.5675C57.6115 79.3168 58.8545 79.7003 60.0466 80.0388C61.2387 80.3773 62.5285 80.6719 63.6959 80.256C64.8632 79.8402 65.7491 78.4242 65.1648 77.3321C65.6117 77.328 66.0503 77.4523 66.4286 77.6901C66.8069 77.9279 67.1088 78.2693 67.2986 78.6736L67.4986 76.8344C68.3908 77.0687 69.2155 77.5093 69.906 78.1207C70.5427 78.783 70.8136 79.8939 70.2585 80.6259C69.6434 81.437 68.2677 81.5293 67.9034 82.4798C67.5838 83.3137 68.2763 84.1568 68.8545 84.8376C69.4328 85.5184 69.938 86.5752 69.3313 87.2308C68.8292 87.7734 67.9477 87.6006 67.232 87.7863C66.1524 88.0665 65.4885 89.2033 65.3471 90.3089C65.2936 91.423 65.377 92.5393 65.5955 93.633C65.8122 94.7365 65.638 95.8809 65.1028 96.8702" fill="#2F2E41"/>
<path d="M70.0385 92.2062C69.2735 92.2062 68.4258 91.9098 68.4258 91.1453V86.2905C68.4258 85.526 69.2735 85.6183 70.0385 85.6183C71.9451 84.3411 73.5611 86.2033 73.6252 88.7179C73.6032 91.4308 72.1104 93.165 70.0385 92.2062Z" fill="#3F3D56"/>
<path d="M68.9735 84.9063H66.5314C65.7148 84.9063 62.5081 84.8501 62.3468 85.6182C58.0373 84.8555 56.3439 84.8351 53.8416 86.2516C53.544 86.2516 53.2587 86.3697 53.0483 86.58C52.8379 86.7902 52.7197 87.0753 52.7197 87.3726C52.7197 87.67 52.8379 87.9551 53.0483 88.1653C53.2587 88.3756 53.544 88.4937 53.8416 88.4937L61.7974 88.3632L64.8357 90.8349C64.8357 91.0574 64.8795 91.2777 64.9647 91.4833C65.05 91.6889 65.1749 91.8757 65.3323 92.0331C65.4898 92.1904 65.6767 92.3153 65.8825 92.4004C66.0882 92.4856 66.3087 92.5294 66.5314 92.5294H68.9735C69.1962 92.5294 69.4167 92.4856 69.6225 92.4004C69.8282 92.3153 70.0151 92.1904 70.1726 92.0331C70.3301 91.8757 70.455 91.6889 70.5402 91.4833C70.6254 91.2777 70.6693 91.0574 70.6693 90.8349C69.887 89.3246 69.7574 87.8969 70.6693 86.6009C70.6693 86.3783 70.6254 86.158 70.5402 85.9524C70.455 85.7468 70.3301 85.56 70.1726 85.4026C70.0151 85.2453 69.8282 85.1205 69.6225 85.0353C69.4167 84.9502 69.1962 84.9063 68.9735 84.9063Z" fill="#019043"/>
</g>
<defs>
<clipPath id="clip0_28_248">
<rect width="443" height="286" fill="white"/>
</clipPath>
</defs>
</svg>
