<svg width="390" height="270" viewBox="0 0 390 270" fill="none" xmlns="http://www.w3.org/2000/svg">
<path d="M146.975 52.7145C144.004 41.907 167.961 32.6394 174.252 41.3427C175.126 40.1053 178.359 39.3537 179.843 39.7333C181.326 40.1129 182.573 41.0618 183.79 41.9803C185.464 43.2633 187.198 44.5918 188.225 46.4364C189.26 48.2735 189.419 50.7787 188.027 52.3729C186.924 53.6406 183.669 54.4605 182.01 54.7945C180.854 55.0298 179.881 55.2196 179.044 55.3562C178.298 54.2707 177.918 52.927 178.055 51.6137C176.929 52.3577 176.169 53.633 176.047 54.9843C176.024 55.2651 185.395 89.6765 185.395 89.6765C184.429 90.2459 183.235 90.7773 181.858 91.2631C179.523 87.7483 177.606 83.6035 176.344 79.2688C176.054 81.9486 176.1 84.856 176.45 87.8091C176.633 89.3805 176.906 90.9595 177.256 92.5384C166.12 94.9373 149.371 94.1478 142.084 83.9451C142.082 83.9029 142.081 83.8607 142.08 83.8184C142.028 81.9093 139.418 81.4349 138.719 83.2129C138.543 83.6631 138.38 84.0527 138.235 84.3626C136.112 76.7865 138.858 68.0185 146.975 52.7145V52.7145Z" fill="#2F2E41"/>
<path d="M298.345 138.417C295.71 141.536 291.041 141.932 287.916 139.303C287.613 139.048 287.331 138.769 287.073 138.47L251.905 149.586L246.433 140.634L288.299 127.736C291.583 125.317 296.211 126.014 298.634 129.292C300.662 132.035 300.542 135.807 298.345 138.417H298.345Z" fill="#FFB6B6"/>
<path d="M173.8 110.639C173.8 110.639 189.374 93.1566 196.158 100.583C202.942 108.009 224.107 140.551 224.107 140.551L273.513 130.148L278.291 143.161L222.192 161.303C217.975 162.667 213.353 161.253 210.627 157.764L173.8 110.639V110.639Z" fill="#019043"/>
<path d="M207.624 270H130.379L130.309 269.398L130.263 268.997L129.6 263.38L128.66 255.38L128.298 252.306C128.273 252.15 128.248 252 128.228 251.845C127.911 249.843 127.731 247.832 127.665 245.826C127.57 243.068 127.695 240.314 127.992 237.596V237.581C128.153 236.111 128.359 234.657 128.615 233.218C128.937 231.367 129.324 229.546 129.771 227.766C130.283 225.7 130.866 223.688 131.505 221.748C132.238 219.476 133.042 217.299 133.872 215.243C133.962 215.022 134.053 214.801 134.138 214.586L134.143 214.581C138.515 203.943 143.48 196.676 143.48 196.676H199.755C199.755 196.676 202.358 208.076 203.649 217.49C203.855 218.979 204.026 220.413 204.152 221.748C204.378 224.21 204.443 226.327 204.247 227.766C204.127 228.659 203.906 229.291 203.564 229.582C200.468 232.22 204.011 237.817 204.011 237.817C204.011 237.817 206.665 241.864 204.353 244.141C203.896 244.592 203.634 245.174 203.509 245.826C203.308 246.904 203.484 248.158 203.76 249.267C204.036 250.38 204.418 251.348 204.629 251.845C204.725 252.065 204.785 252.191 204.785 252.191L205.177 255.285L205.559 258.264L206.207 263.38L206.403 264.283L207.413 268.997L207.499 269.398L207.624 270H207.624Z" fill="#2F2E41"/>
<path d="M168.606 86.7212L144.988 88.8205L140.635 102.34L135.891 103.025C127.784 104.196 122.96 112.682 126.11 120.228L130.284 130.228C130.284 130.228 124.152 149.114 131.683 157.05L134.887 192.001L127.659 215.042L212.152 217.764L197.76 188.863L197.333 170.918C197.333 170.918 206.53 138.483 198.003 128.166L194.677 98.8217L177.344 96.227L168.606 86.7212H168.606Z" fill="#019043"/>
<path d="M184.597 69.3769C187.03 58.9006 180.494 48.4389 169.996 46.01C159.499 43.5811 149.016 50.1047 146.583 60.581C144.149 71.0573 150.686 81.5189 161.183 83.9479C171.68 86.3768 182.163 79.8531 184.597 69.3769Z" fill="#FFB6B6"/>
<path d="M136.325 54.2327C133.355 43.4253 157.311 34.1576 163.602 42.8609C164.477 41.6236 167.71 40.872 169.193 41.2516C170.676 41.6311 171.924 42.58 173.141 43.4986C174.814 44.7815 176.549 46.11 177.576 47.9547C178.61 49.7918 178.77 52.297 177.378 53.8911C176.275 55.1588 173.019 55.9787 171.361 56.3127C170.205 56.5481 169.231 56.7378 168.394 56.8745C167.649 55.7889 167.269 54.4453 167.406 53.132C166.28 53.8759 165.519 55.1512 165.397 56.5025C165.375 56.7834 174.746 91.1948 174.746 91.1948C173.78 91.7642 172.586 92.2956 171.209 92.7814C168.874 89.2666 166.957 85.1218 165.694 80.7871C165.405 83.4669 165.451 86.3743 165.801 89.3273C165.983 90.8987 166.257 92.4777 166.607 94.0567C155.471 96.4556 138.721 95.6661 131.434 85.4634C131.433 85.4212 131.432 85.3789 131.43 85.3367C131.378 83.4275 128.768 82.9531 128.07 84.7312C127.893 85.1814 127.73 85.571 127.585 85.8809C125.463 78.3047 128.209 69.5368 136.325 54.2327L136.325 54.2327Z" fill="#2F2E41"/>
<path d="M303.112 269.398H40.7859L0.0800781 269.9L285.554 252.891C295.077 252.323 303.112 259.878 303.112 269.398V269.398Z" fill="#3F3D56"/>
<path d="M367.357 268.997V270H0V0H1.00508V268.997H367.357Z" fill="#3F3D56"/>
<path d="M328.049 62.4505H261.185C259.643 62.4505 258.389 61.2029 258.389 59.6698C258.389 58.1366 259.643 56.8896 261.185 56.8896H328.049C329.591 56.8896 330.845 58.1366 330.845 59.6698C330.845 61.2029 329.591 62.4505 328.049 62.4505Z" fill="#019043"/>
<path d="M294.593 71.4181C294.343 70.8034 293.48 70.8035 293.23 71.4183C291.486 75.7074 289.004 80.5106 286.305 84.1814C285.873 84.7691 286.468 85.5544 287.155 85.3064L292.942 83.217V118.968H294.879V83.2169L300.669 85.3066C301.355 85.5546 301.951 84.7693 301.519 84.1816C298.819 80.5108 296.337 75.7074 294.593 71.4181Z" fill="#3F3D56"/>
<path d="M388.277 82.887H347.053C346.103 82.887 345.329 82.1178 345.329 81.1726C345.329 80.2273 346.103 79.4586 347.053 79.4586H388.277C389.227 79.4586 390 80.2273 390 81.1726C390 82.1178 389.227 82.887 388.277 82.887Z" fill="#F2F2F2"/>
<path d="M367.649 88.4158C367.495 88.0368 366.963 88.0368 366.809 88.4159C365.734 91.0602 364.204 94.0215 362.54 96.2846C362.273 96.647 362.64 97.1311 363.064 96.9782L366.632 95.6901V117.732H367.826V95.69L371.395 96.9784C371.819 97.1313 372.186 96.6471 371.92 96.2848C370.255 94.0216 368.725 91.0602 367.649 88.4158Z" fill="#F2F2F2"/>
<path d="M367.672 139C372.619 139 376.629 134.997 376.629 130.06C376.629 125.123 372.619 121.12 367.672 121.12C362.724 121.12 358.714 125.123 358.714 130.06C358.714 134.997 362.724 139 367.672 139Z" fill="#F2F2F2"/>
<path d="M256.108 32.2322H214.884C213.934 32.2322 213.16 31.4631 213.16 30.5178C213.16 29.5726 213.934 28.8038 214.884 28.8038H256.108C257.058 28.8038 257.831 29.5726 257.831 30.5178C257.831 31.4631 257.058 32.2322 256.108 32.2322Z" fill="#F2F2F2"/>
<path d="M235.481 37.761C235.327 37.382 234.795 37.3821 234.641 37.7611C233.566 40.4054 232.036 43.3668 230.372 45.6299C230.105 45.9922 230.473 46.4764 230.896 46.3235L234.464 45.0353V67.0769H235.658V45.0353L239.227 46.3236C239.651 46.4765 240.018 45.9924 239.752 45.63C238.087 43.3669 236.557 40.4054 235.481 37.761H235.481Z" fill="#F2F2F2"/>
<path d="M235.504 88.3449C240.451 88.3449 244.461 84.3425 244.461 79.4053C244.461 74.468 240.451 70.4656 235.504 70.4656C230.556 70.4656 226.546 74.468 226.546 79.4053C226.546 84.3425 230.556 88.3449 235.504 88.3449Z" fill="#F2F2F2"/>
<path d="M131.649 252.626C133.763 249.134 132.64 244.594 129.142 242.484C128.803 242.28 128.448 242.103 128.081 241.955L127.339 205.147L117.087 202.849L118.288 246.56C117.048 250.441 119.195 254.591 123.083 255.829C126.337 256.865 129.879 255.541 131.649 252.626Z" fill="#FFB6B6"/>
<path d="M138.782 107.403C138.782 107.403 126.218 104.394 122.198 112.92C118.178 121.446 117.836 158.548 117.836 158.548L115.665 233.789L131.601 233.088L144.31 140.504L138.782 107.403Z" fill="#019043"/>
<path d="M133.142 263.728C133.425 264.082 133.855 264.287 134.308 264.285H215.891C216.72 264.284 217.391 263.612 217.39 262.785C217.39 262.682 217.379 262.58 217.358 262.479L216.092 256.476C215.985 255.979 215.633 255.569 215.157 255.388C214.987 255.321 214.806 255.287 214.624 255.287H135.57C135.387 255.287 135.207 255.321 135.037 255.388C134.561 255.569 134.209 255.979 134.102 256.476L132.836 262.479C132.744 262.92 132.857 263.379 133.142 263.728Z" fill="#CCCCCC"/>
<path d="M101.909 129.338V223.255C101.911 225.747 103.935 227.766 106.432 227.768H245.887C248.384 227.766 250.408 225.747 250.41 223.255V129.338C250.404 126.848 248.382 124.832 245.887 124.829H106.432C103.937 124.832 101.915 126.848 101.909 129.338Z" fill="#E6E6E6"/>
<path d="M193.598 207.685C193.432 207.629 193.257 207.604 193.081 207.604H160.456C159.496 207.604 158.712 208.382 158.712 209.34V260.777H194.819V209.34C194.819 208.582 194.327 207.91 193.598 207.685ZM180.512 232.982C180.502 235.108 178.768 236.824 176.638 236.814C174.522 236.799 172.813 235.093 172.803 232.982V227.014C172.823 224.892 174.567 223.187 176.693 223.207C178.793 223.227 180.492 224.922 180.512 227.014V232.982Z" fill="#CCCCCC"/>
</svg>
