<svg width="309" height="265" viewBox="0 0 309 265" fill="none" xmlns="http://www.w3.org/2000/svg">
<path d="M241.385 42.7278H220.39V221.966C220.39 224.778 219.837 227.563 218.762 230.161C217.687 232.759 216.112 235.12 214.126 237.108C212.14 239.097 209.783 240.674 207.188 241.751C204.594 242.827 201.813 243.381 199.004 243.381H38.4883V243.585C38.4883 246.398 39.0414 249.182 40.1161 251.78C41.1909 254.379 42.7661 256.739 44.7519 258.728C46.7378 260.716 49.0953 262.294 51.6899 263.37C54.2845 264.446 57.0654 265 59.8737 265H241.385C244.193 265 246.974 264.446 249.569 263.37C252.163 262.294 254.521 260.716 256.507 258.728C258.493 256.739 260.068 254.379 261.143 251.78C262.217 249.182 262.77 246.398 262.77 243.585V64.1424C262.77 61.3302 262.217 58.5455 261.143 55.9474C260.068 53.3492 258.493 50.9885 256.507 49C254.521 47.0115 252.163 45.4341 249.569 44.3579C246.974 43.2817 244.193 42.7278 241.385 42.7278Z" fill="#F2F2F2"/>
<path d="M215.406 24.341H8.87653C3.97416 24.341 0 28.3206 0 33.2296V237.725C0 242.634 3.97416 246.613 8.87653 246.613H215.406C220.308 246.613 224.282 242.634 224.282 237.725V33.2296C224.282 28.3206 220.308 24.341 215.406 24.341Z" fill="#F2F2F2"/>
<path d="M21.386 28.7448C16.8806 28.7448 12.5598 30.537 9.37397 33.7271C6.18819 36.9172 4.39844 41.2439 4.39844 45.7554V225.199C4.39844 229.71 6.18819 234.037 9.37397 237.227C12.5597 240.417 16.8806 242.209 21.386 242.209H137.231C182.879 242.209 219.884 205.154 219.884 159.443V45.7554C219.884 41.2439 218.095 36.9172 214.909 33.7271C211.723 30.537 207.402 28.7448 202.897 28.7448H21.386Z" fill="white"/>
<path d="M229.19 149.17C228.262 149.427 227.289 149.48 226.339 149.324C225.389 149.168 224.484 148.807 223.687 148.266C222.89 147.726 222.22 147.018 221.722 146.193C221.225 145.367 220.913 144.443 220.807 143.485L189.089 133.893L189.581 124.455L227.171 136.124C228.795 136.066 230.384 136.606 231.636 137.643C232.889 138.68 233.718 140.141 233.967 141.749C234.216 143.357 233.867 145 232.987 146.368C232.106 147.736 230.755 148.733 229.19 149.17V149.17Z" fill="#FFB6B6"/>
<path d="M122.4 100.487C119.189 97.8033 123.891 84.5011 122.623 80.6455C122.547 80.4121 122.475 80.178 122.407 79.9432C122.263 79.4456 122.296 78.9137 122.498 78.4371L134.419 72.822C137.526 74.0929 140.388 75.8947 142.878 78.147L161.295 99.2097L179.591 115.756L187.619 119.34L214.221 131.222L213.946 132.018L213.943 132.02L211.019 140.524L211.019 140.529L216.869 144.612L197.718 141.723L185.052 136.492L172.857 131.455C154.85 120.604 125.224 114.979 122.4 100.487Z" fill="#019043"/>
<path d="M207.279 198.097C206.928 198.257 206.535 198.305 206.156 198.235C205.776 198.164 205.427 197.979 205.156 197.703C204.885 197.427 204.706 197.075 204.642 196.694C204.577 196.312 204.632 195.921 204.798 195.571C204.771 195.378 204.753 195.239 204.727 195.046C204.695 195.014 204.664 194.983 204.633 194.951C201.485 191.754 196.041 193.969 195.986 198.459C195.937 202.443 195.503 206.589 196.504 210.379C196.948 212.054 197.678 213.639 198.662 215.064C192.427 209.132 187.539 201.927 184.328 193.938C183.525 191.932 182.834 189.883 182.259 187.8C181.789 186.092 181.395 184.367 181.077 182.624C179.361 173.167 179.911 163.438 182.68 154.235C184.782 151.685 186.053 148.551 186.322 145.255C186.422 144.069 186.351 142.875 186.11 141.709C185.822 141.871 183.128 137.579 183.244 137.203C182.563 136.73 181.679 136.715 180.966 136.273C177.42 134.076 174.472 135.891 174.516 140.793C171.7 143.993 172.85 146.966 176.155 148.942C178.258 150.2 179.427 152.573 181.412 154.026C181.352 154.236 181.284 154.442 181.223 154.652C180.121 158.492 179.398 162.432 179.063 166.414C178.062 162.548 175.595 158.397 173.269 156.016C170.62 153.303 166.999 151.576 163.65 149.656C159.628 147.349 154.743 151.021 155.986 155.492C155.998 155.536 156.011 155.579 156.023 155.622C156.428 155.676 156.83 155.744 157.23 155.827C157.734 155.933 158.194 156.189 158.549 156.562C158.905 156.934 159.14 157.406 159.224 157.915C159.307 158.423 159.236 158.945 159.018 159.412C158.8 159.879 158.447 160.27 158.003 160.532L157.958 160.559C158.553 161.703 159.233 162.801 159.994 163.842C161.562 176.03 169.329 177.582 178.192 174.234C178.426 174.256 178.655 174.28 178.887 174.297C179.114 179.704 180.041 185.058 181.647 190.226C182.604 193.27 183.805 196.233 185.238 199.084L185.182 198.985C183.231 195.958 180.297 193.698 176.874 192.586C171.81 190.981 165.965 191.987 160.847 191.117C158.383 190.699 156.474 193.283 157.739 195.442C157.759 195.476 157.78 195.511 157.8 195.545C158.513 195.549 159.225 195.598 159.931 195.69C160.336 195.744 160.739 195.813 161.139 195.895C161.642 196.001 162.102 196.258 162.458 196.63C162.814 197.003 163.049 197.474 163.132 197.983C163.216 198.491 163.144 199.013 162.926 199.48C162.709 199.947 162.355 200.338 161.912 200.6L161.867 200.627C161.834 200.646 161.806 200.663 161.773 200.682C163.822 202.765 166.213 204.479 168.843 205.75C174.485 214.675 182.509 212.516 189.578 206.421L189.583 206.419C192.048 209.97 194.874 213.254 198.016 216.22L211.899 210.649C211.887 210.474 211.868 210.297 211.851 210.124C210.598 210.721 209.277 211.162 207.918 211.437C208.441 209.758 208.96 208.069 209.484 206.39C209.497 206.357 209.509 206.323 209.519 206.289C209.782 205.432 210.052 204.577 210.315 203.72L210.315 203.719C209.549 201.722 208.528 199.833 207.28 198.097L207.279 198.097Z" fill="#F2F2F2"/>
<path d="M130.974 210.331L130.815 210.132C130.357 207.18 130.974 210.331 130.974 210.331Z" fill="#2F2E41"/>
<path d="M139.106 242.167H94.631C91.1756 233.566 88.7772 227.414 88.7772 227.414C88.7772 227.414 88.1947 233.44 87.3636 242.167H47.1556C46.7794 218.45 46.2525 194.099 46.0791 186.365L123.256 188.086L130.932 197.834C130.958 197.997 130.984 198.177 131.017 198.379C131.328 200.36 135.506 221.621 139.106 242.167Z" fill="#2F2E41"/>
<path d="M138.432 75.3594L138.424 75.3456C138.179 74.8896 137.784 74.5322 137.307 74.3336C132.424 70.5397 127.077 68.8103 121.077 69.9931C120.094 67.0152 119.178 67.0152 119.178 67.0152L106.164 62.7111L104.292 51.2614L72.2267 50.1746L69.3126 64.4627C69.3126 64.4627 51.3896 67.6799 51.3896 70.0064C51.3896 72.3329 54.3768 72.3329 51.3896 72.3329C48.4025 72.3329 47.6026 69.674 45.017 72.3329C44.7955 72.5563 44.5617 72.7671 44.3167 72.9644C44.2868 72.991 44.2536 73.0142 44.2238 73.0408C41.3017 75.3423 39.0054 78.3434 37.5466 81.7675C36.0877 85.1916 35.5133 88.9284 35.8763 92.6333L41.3893 147.549L47.274 206.147L127.808 209.503L133.201 159.64L138.687 76.6757C138.736 76.2211 138.647 75.7624 138.432 75.3594Z" fill="#019043"/>
<path d="M6.2292 222.623C6.689 223.782 7.153 224.63 7.62115 225.05L163.81 225.383C164.278 224.963 164.742 224.114 165.202 222.956C170.664 209.194 160.359 194.271 145.57 194.243L25.8688 194.015C11.0998 193.987 0.773757 208.88 6.2292 222.623Z" fill="white"/>
<path d="M163.936 225.715L163.809 225.715L7.49416 225.382L7.4 225.298C6.91316 224.861 6.4294 224.027 5.92101 222.746C4.628 219.545 4.15109 216.071 4.53326 212.639C4.91543 209.207 6.14468 205.924 8.11016 203.086C10.0726 200.189 12.7134 197.818 15.802 196.179C18.8905 194.54 22.3329 193.683 25.8284 193.683H25.8696L145.571 193.911C149.079 193.917 152.532 194.784 155.629 196.435C158.725 198.086 161.371 200.47 163.336 203.381C165.299 206.227 166.525 209.517 166.904 212.955C167.284 216.393 166.805 219.872 165.51 223.079C165.002 224.359 164.518 225.193 164.031 225.63L163.936 225.715ZM18.0568 224.687L150.492 224.285C159.84 224.256 166.716 215.22 163.946 206.28C163.685 205.386 163.294 204.534 162.786 203.753C160.882 200.933 158.318 198.622 155.317 197.022C152.316 195.422 148.969 194.582 145.57 194.575L25.8683 194.348H25.8284C24.3084 194.399 22.8096 194.719 21.4018 195.295C13.6698 198.225 8.49947 205.59 8.06955 213.857C8.06408 213.962 8.05862 214.067 8.05319 214.173C7.98568 215.484 8.17679 216.796 8.61559 218.033C9.05439 219.271 9.73229 220.41 10.6106 221.385C11.4889 222.36 12.5504 223.152 13.7345 223.716C14.9186 224.281 16.202 224.606 17.5116 224.673C17.6932 224.683 17.8749 224.687 18.0568 224.687L18.0568 224.687Z" fill="#E6E6E6"/>
<path d="M194.185 105.178C192.475 97.9836 192.76 90.8978 195.689 83.9555C195.72 83.526 195.92 83.1263 196.244 82.8441C196.569 82.5619 196.993 82.4203 197.422 82.4503L213.427 83.5876C213.856 83.6185 214.255 83.8186 214.537 84.1439C214.819 84.4691 214.961 84.8931 214.931 85.3227L213.427 106.545C213.396 106.974 213.196 107.374 212.871 107.656C212.546 107.938 212.123 108.08 211.694 108.05L195.688 106.913C195.259 106.882 194.86 106.682 194.578 106.357C194.297 106.031 194.155 105.607 194.185 105.178Z" fill="#F2F2F2"/>
<path d="M195.867 98.8549C194.498 95.3098 195.374 90.434 196.834 85.2113C196.863 84.8091 197.05 84.4348 197.354 84.1705C197.659 83.9062 198.055 83.7736 198.457 83.8017L212.213 84.7791C212.614 84.808 212.988 84.9954 213.252 85.3C213.516 85.6047 213.648 86.0017 213.62 86.404L212.282 105.289C212.253 105.691 212.066 106.066 211.762 106.33C211.458 106.594 211.061 106.727 210.659 106.699L202.138 106.093C200.349 105.964 198.684 105.129 197.508 103.772C196.332 102.415 195.742 100.647 195.867 98.8549Z" fill="white"/>
<path d="M205.391 99.7802C204.971 99.7079 204.551 99.6356 204.131 99.5633C204.324 99.1058 204.436 98.6178 204.461 98.1215C204.66 95.4654 204.68 92.784 204.786 90.1225C204.783 90.0251 204.752 89.9307 204.697 89.8505C204.642 89.7703 204.565 89.7078 204.475 89.6706C204.385 89.6333 204.286 89.6229 204.191 89.6405C204.095 89.6581 204.006 89.7031 203.936 89.77C202.881 90.6452 201.825 91.5204 200.77 92.3955C200.276 92.8052 200.984 93.5071 201.474 93.1006C202.232 92.4724 202.989 91.8442 203.746 91.216C203.677 92.9599 203.607 94.7039 203.538 96.4478C203.504 97.2848 203.606 98.3012 203.264 99.088C203.217 99.1941 203.156 99.2934 203.082 99.3829C202.617 99.3029 202.152 99.2228 201.687 99.1428C201.352 99.0853 200.927 99.3649 201.074 99.7561C201.395 100.607 202.338 100.875 203.148 100.548C203.219 100.515 203.288 100.478 203.354 100.437L205.126 100.742C205.753 100.849 206.022 99.8888 205.391 99.7802Z" fill="#019043"/>
<path d="M287.12 176.634C285.409 169.44 285.694 162.354 288.623 155.412C288.654 154.983 288.854 154.583 289.179 154.301C289.504 154.019 289.927 153.877 290.356 153.907L306.362 155.044C306.791 155.075 307.19 155.275 307.472 155.601C307.754 155.926 307.895 156.35 307.865 156.779L306.361 178.002C306.33 178.431 306.131 178.831 305.806 179.113C305.481 179.395 305.057 179.537 304.629 179.507L288.623 178.37C288.194 178.339 287.795 178.138 287.513 177.813C287.231 177.488 287.09 177.064 287.12 176.634Z" fill="#F2F2F2"/>
<path d="M288.801 170.312C287.432 166.767 288.307 161.891 289.768 156.668C289.797 156.266 289.984 155.892 290.288 155.627C290.592 155.363 290.989 155.23 291.391 155.258L305.146 156.236C305.548 156.265 305.922 156.452 306.186 156.757C306.45 157.061 306.582 157.458 306.554 157.861L305.216 176.746C305.187 177.148 305 177.522 304.695 177.787C304.391 178.051 303.995 178.183 303.593 178.155L295.072 177.55C293.282 177.421 291.617 176.586 290.442 175.229C289.266 173.872 288.676 172.104 288.801 170.312Z" fill="white"/>
<path d="M297.781 166.711C297.964 166.625 298.137 166.52 298.297 166.398C298.723 166.045 299.039 165.577 299.205 165.049C299.37 164.521 299.38 163.956 299.231 163.422C298.586 161.048 295.749 161.034 293.791 161.319C293.159 161.412 293.428 162.372 294.056 162.281C295.376 162.088 297.447 161.933 298.156 163.376C298.318 163.715 298.376 164.095 298.322 164.466C298.268 164.838 298.105 165.186 297.853 165.465C297.553 165.767 297.157 165.955 296.733 165.998C296.322 165.819 295.876 165.736 295.429 165.755C294.968 165.776 294.71 166.448 295.178 166.684C295.591 166.89 296.047 166.997 296.509 166.998C296.892 167.183 297.211 167.477 297.428 167.844C297.644 168.21 297.748 168.633 297.726 169.058C297.682 169.348 297.581 169.627 297.43 169.878C297.278 170.129 297.079 170.348 296.843 170.522C296.607 170.696 296.339 170.822 296.055 170.892C295.77 170.962 295.475 170.976 295.185 170.932L295.173 170.93C294.547 170.804 294.279 171.765 294.908 171.891C295.751 172.051 296.623 171.868 297.332 171.383C298.041 170.898 298.528 170.152 298.687 169.307C298.696 169.261 298.703 169.215 298.71 169.169C298.75 168.716 298.687 168.26 298.526 167.834C298.365 167.408 298.11 167.025 297.781 166.711Z" fill="#019043"/>
<path d="M269.196 62.9683C267.485 55.7742 267.771 48.6883 270.7 41.7461C270.731 41.3166 270.93 40.9169 271.255 40.6347C271.58 40.3525 272.003 40.2109 272.432 40.2409L288.438 41.3782C288.867 41.4091 289.266 41.6092 289.548 41.9345C289.83 42.2597 289.971 42.6837 289.941 43.1132L288.437 64.3355C288.407 64.765 288.207 65.1647 287.882 65.4468C287.557 65.729 287.134 65.8706 286.705 65.8406L270.699 64.7034C270.27 64.6724 269.871 64.4724 269.589 64.1471C269.307 63.8218 269.166 63.3979 269.196 62.9683Z" fill="#F2F2F2"/>
<path d="M270.878 56.6455C269.509 53.1004 270.384 48.2247 271.845 43.002C271.874 42.5997 272.061 42.2254 272.365 41.9611C272.669 41.6969 273.066 41.5642 273.468 41.5923L287.223 42.5697C287.625 42.5987 287.999 42.786 288.263 43.0907C288.527 43.3953 288.659 43.7924 288.631 44.1947L287.293 63.0796C287.264 63.4818 287.077 63.8562 286.773 64.1204C286.468 64.3847 286.072 64.5173 285.67 64.4892L277.149 63.8838C275.359 63.7546 273.694 62.92 272.519 61.563C271.343 60.2061 270.753 58.4376 270.878 56.6455Z" fill="white"/>
<path d="M279.338 47.142C277.927 46.652 276.359 47.7687 276.199 49.2164C276.018 50.8574 277.781 52.1528 279.307 51.7069C279.921 51.5275 279.66 50.565 279.042 50.7454C277.924 51.0723 276.73 49.8629 277.373 48.7815C277.52 48.5205 277.742 48.3103 278.01 48.1788C278.278 48.0473 278.58 48.0008 278.876 48.0454C279.127 48.115 279.358 48.2425 279.551 48.4176C279.743 48.5928 279.892 48.8107 279.986 49.054C280.535 50.2925 279.882 51.5498 279.018 52.45C278.525 52.9634 277.946 53.3624 277.415 53.8304C277.157 54.0258 276.942 54.2733 276.785 54.5569C276.628 54.8405 276.532 55.1539 276.503 55.4769C276.518 55.8401 276.63 56.1925 276.83 56.4961C277.03 56.7997 277.308 57.0428 277.636 57.1993C278.485 57.6364 279.451 57.4974 280.354 57.3519C280.985 57.2503 280.717 56.2893 280.089 56.3905C279.299 56.5177 278.117 56.7106 277.616 55.8859C277.187 55.1796 278.07 54.5595 278.552 54.1838C279.761 53.2396 280.984 52.0203 281.165 50.4148C281.314 49.0997 280.647 47.5969 279.338 47.142Z" fill="#019043"/>
<path d="M36.4421 144.286L44.3282 147.842C40.6208 150.854 34.9751 154.905 29.4455 156.78L20.66 150.78C17.3874 138.144 19.3921 125.123 23.3252 114.112C25.5043 107.993 28.394 102.152 31.9348 96.7093C31.5721 93.0044 32.1467 89.2678 33.6055 85.8438C35.0643 82.4197 37.3605 79.4185 40.2823 77.1169C40.3154 77.0903 40.3453 77.067 40.3752 77.0404C43.2854 79.5693 45.6626 82.654 47.3678 86.114C49.0729 89.5741 50.0718 93.3399 50.3058 97.1912L50.4817 100.103L50.8336 105.839L51.7264 120.489L41.1386 136.974L36.4421 144.286Z" fill="#019043"/>
<path d="M59.1302 206.83C59.2223 206.946 59.3395 207.039 59.4729 207.103C59.6062 207.167 59.7523 207.2 59.9002 207.199H113.782C113.929 207.199 114.075 207.166 114.208 207.102C114.341 207.039 114.458 206.946 114.551 206.832C114.643 206.717 114.71 206.583 114.744 206.44C114.779 206.297 114.781 206.147 114.751 206.003L113.915 202.024C113.88 201.862 113.805 201.711 113.697 201.585C113.59 201.459 113.452 201.362 113.297 201.303C113.185 201.259 113.066 201.237 112.945 201.237H60.7333C60.6129 201.237 60.4935 201.259 60.3814 201.303C60.2266 201.362 60.089 201.459 59.9812 201.585C59.8734 201.711 59.7988 201.862 59.7641 202.024L58.9277 206.003C58.8979 206.147 58.9007 206.296 58.9357 206.439C58.9707 206.583 59.0371 206.716 59.1302 206.83Z" fill="#2F2E41"/>
<path d="M38.502 117.772V180.009C38.5026 180.802 38.8175 181.563 39.3776 182.123C39.9376 182.684 40.6971 183 41.4891 183H133.593C134.385 183 135.145 182.684 135.705 182.123C136.265 181.563 136.58 180.802 136.58 180.009V117.772C136.578 116.979 136.263 116.22 135.703 115.66C135.143 115.1 134.384 114.785 133.593 114.784H41.4891C40.6978 114.785 39.939 115.1 39.3792 115.66C38.8193 116.22 38.5038 116.979 38.502 117.772Z" fill="#3F3D56"/>
<path d="M76.0176 170.789V204.876H99.865V170.789C99.8655 170.544 99.7873 170.305 99.6422 170.108C99.497 169.911 99.2924 169.765 99.0585 169.693C98.9483 169.656 98.8328 169.638 98.7167 169.64H77.1693C76.8644 169.639 76.5718 169.76 76.3558 169.975C76.1398 170.191 76.0182 170.483 76.0176 170.788V170.789ZM85.3242 182.502C85.3306 181.83 85.6015 181.188 86.0783 180.715C86.555 180.242 87.1989 179.976 87.87 179.976C88.541 179.976 89.1849 180.242 89.6616 180.715C90.1384 181.188 90.4094 181.83 90.4157 182.502V186.457C90.4122 187.131 90.1425 187.776 89.6655 188.251C89.1884 188.726 88.5429 188.993 87.87 188.993C87.197 188.993 86.5515 188.726 86.0744 188.251C85.5974 187.776 85.3277 187.131 85.3242 186.457V182.502Z" fill="#2F2E41"/>
<path d="M89.9356 48.8986C101.397 48.8986 110.689 39.5945 110.689 28.1174C110.689 16.6403 101.397 7.33624 89.9356 7.33624C78.474 7.33624 69.1826 16.6403 69.1826 28.1174C69.1826 39.5945 78.474 48.8986 89.9356 48.8986Z" fill="#FFB6B6"/>
<path d="M114.783 24.482C112.546 25.1775 110.389 25.5876 108.934 23.7498C107.479 21.912 107.859 19.8107 105.695 18.9248C103.947 18.2072 101.929 18.5147 100.167 19.181C99.8527 19.2982 99.5456 19.43 99.2458 19.5617C99.0776 19.4153 98.9094 19.2762 98.7266 19.1444C97.351 18.1648 95.6526 17.7508 93.9813 17.9876C95.2029 18.5785 96.2082 19.539 96.8548 20.7332C96.2553 21.0334 95.6111 21.2578 95.0342 21.5899C87.1087 26.1527 78.2948 27.9903 79.0141 20.3745C81.4124 26.7004 79.5479 28.9555 76.0309 34.7324L75.892 35.0691C76.2429 33.5536 73.7754 33.4817 71.6439 34.0002C70.0695 34.3831 71.0883 38.0582 73.1062 40.5897C68.5948 33.7878 61.8379 23.4027 67.6809 18.1926C68.5426 17.4241 69.0834 16.34 69.2382 13.5653C69.3301 11.9201 72.1264 11.5079 73.6034 12.24C73.8171 9.76633 74.6805 7.39326 76.1059 5.36158C77.5313 3.3299 79.468 1.7119 81.7195 0.671727C86.2381 -1.34174 90.8336 1.75558 95.7435 2.35571C98.4676 2.68869 100.534 3.78735 100.642 7.2686C100.715 9.58688 104.203 10.4169 106.484 10.8269C107.932 11.0832 109.563 10.9295 110.718 11.8447C112.056 12.9063 112.071 14.7734 112.063 16.5672C110.754 16.5298 109.463 16.8841 108.356 17.5849C109.712 17.619 111.021 18.0802 112.1 18.9028C112.121 18.9156 112.14 18.9303 112.158 18.9467C112.553 21.9633 112.392 22.6003 114.783 24.482Z" fill="#2F2E41"/>
<path d="M129.751 125.811C137.86 123.287 146.541 126.016 154.695 123.687C156.57 123.173 158.343 122.34 159.935 121.222C161.293 120.191 162.569 119.055 163.749 117.823C166.202 115.394 168.866 112.843 172.551 112.872C177.403 112.909 181.129 116.518 184.364 119.705C184.821 120.156 185.526 119.451 185.068 119C182.096 116.072 178.885 112.982 174.654 112.108C172.756 111.686 170.775 111.851 168.973 112.58C167.409 113.292 165.981 114.27 164.751 115.471C163.449 116.667 162.247 117.97 160.927 119.147C159.548 120.403 157.96 121.407 156.235 122.113C152.497 123.603 148.397 123.783 144.421 123.739C139.43 123.685 134.321 123.345 129.486 124.849C128.876 125.039 129.136 126.002 129.751 125.811H129.751Z" fill="#3F3D56"/>
<path d="M186.142 112.986L188.634 117.386L189.841 119.515C190.055 119.894 190.275 120.269 190.484 120.651C190.612 120.885 190.892 121.308 190.625 121.53C190.39 121.645 190.126 121.686 189.867 121.648C189.428 121.649 188.988 121.639 188.549 121.635L186.076 121.61L180.967 121.558C180.838 121.563 180.716 121.617 180.626 121.71C180.536 121.803 180.486 121.927 180.486 122.057C180.486 122.186 180.536 122.31 180.626 122.403C180.716 122.496 180.838 122.551 180.967 122.555C183.933 122.585 186.901 122.648 189.867 122.645C190.385 122.695 190.902 122.553 191.323 122.247C191.528 122.042 191.665 121.777 191.712 121.49C191.759 121.203 191.715 120.909 191.587 120.648C191.294 120.009 190.958 119.391 190.58 118.799L189.494 116.883L187.001 112.482C186.932 112.373 186.824 112.295 186.698 112.264C186.573 112.234 186.44 112.253 186.329 112.318C186.217 112.383 186.135 112.49 186.101 112.614C186.066 112.739 186.08 112.872 186.142 112.986V112.986Z" fill="#3F3D56"/>
<path d="M219.09 123.768H196.178C196.053 123.768 195.929 123.744 195.812 123.697C195.696 123.649 195.591 123.579 195.502 123.49C195.413 123.402 195.342 123.297 195.294 123.181C195.245 123.065 195.22 122.941 195.22 122.815C195.219 122.689 195.244 122.565 195.291 122.449C195.339 122.332 195.409 122.227 195.498 122.138C195.586 122.049 195.691 121.978 195.807 121.93C195.923 121.881 196.047 121.856 196.173 121.856C196.175 121.856 196.176 121.856 196.178 121.856H219.09C219.216 121.856 219.34 121.88 219.456 121.927C219.572 121.975 219.678 122.045 219.767 122.134C219.856 122.222 219.926 122.327 219.975 122.443C220.023 122.559 220.048 122.683 220.049 122.809C220.049 122.935 220.025 123.059 219.977 123.175C219.929 123.292 219.859 123.397 219.771 123.486C219.682 123.575 219.577 123.646 219.461 123.694C219.345 123.743 219.221 123.768 219.096 123.768C219.094 123.768 219.092 123.768 219.09 123.768Z" fill="#E6E6E6"/>
<path d="M219.09 139.165H196.178C196.053 139.166 195.929 139.141 195.813 139.094C195.697 139.046 195.591 138.976 195.502 138.887C195.413 138.799 195.343 138.694 195.294 138.578C195.246 138.462 195.221 138.338 195.221 138.212C195.22 138.087 195.245 137.962 195.292 137.846C195.34 137.73 195.41 137.625 195.498 137.536C195.587 137.447 195.692 137.376 195.807 137.327C195.923 137.279 196.047 137.254 196.172 137.254C196.174 137.254 196.176 137.254 196.178 137.254H219.09C219.215 137.253 219.34 137.278 219.456 137.325C219.572 137.373 219.677 137.443 219.766 137.531C219.855 137.62 219.925 137.725 219.974 137.841C220.022 137.957 220.047 138.081 220.048 138.207C220.048 138.332 220.024 138.457 219.976 138.573C219.928 138.689 219.858 138.794 219.77 138.883C219.682 138.972 219.577 139.043 219.461 139.092C219.345 139.14 219.221 139.165 219.096 139.165C219.094 139.165 219.092 139.165 219.09 139.165Z" fill="#E6E6E6"/>
<path d="M241.582 131.467H196.178C196.053 131.467 195.929 131.443 195.812 131.395C195.696 131.348 195.591 131.278 195.502 131.189C195.413 131.101 195.342 130.995 195.294 130.88C195.245 130.764 195.22 130.639 195.22 130.514C195.219 130.388 195.244 130.264 195.291 130.147C195.339 130.031 195.409 129.926 195.498 129.836C195.586 129.747 195.691 129.677 195.807 129.628C195.923 129.58 196.047 129.555 196.173 129.555C196.175 129.555 196.176 129.555 196.178 129.555H241.582C241.707 129.554 241.832 129.579 241.948 129.626C242.064 129.674 242.169 129.744 242.258 129.832C242.347 129.921 242.418 130.026 242.467 130.142C242.515 130.258 242.54 130.382 242.54 130.508C242.541 130.634 242.516 130.758 242.469 130.874C242.421 130.99 242.351 131.096 242.262 131.185C242.174 131.274 242.069 131.345 241.953 131.393C241.837 131.441 241.713 131.466 241.588 131.467C241.586 131.467 241.584 131.467 241.582 131.467Z" fill="#E6E6E6"/>
<path d="M211.183 114.74C216.224 107.897 224.833 104.946 230.024 98.2331C231.231 96.7069 232.166 94.9837 232.788 93.1392C233.273 91.5026 233.628 89.8305 233.851 88.1383C234.39 84.7262 235.027 81.0912 238.013 78.9281C241.944 76.0796 247.081 76.7777 251.573 77.4271C251.701 77.4423 251.83 77.4069 251.933 77.3286C252.036 77.2502 252.104 77.1349 252.124 77.007C252.143 76.8791 252.112 76.7486 252.038 76.6431C251.963 76.5376 251.85 76.4653 251.723 76.4414C247.596 75.8447 243.181 75.26 239.255 77.065C237.477 77.8512 235.979 79.1588 234.958 80.8155C234.119 82.3162 233.547 83.9514 233.266 85.6483C232.925 87.3849 232.727 89.1472 232.36 90.8791C231.992 92.7086 231.306 94.4592 230.334 96.0513C228.204 99.4692 225.006 102.046 221.778 104.369C217.725 107.286 213.407 110.042 210.401 114.122C210.022 114.637 210.801 115.258 211.183 114.74L211.183 114.74Z" fill="#3F3D56"/>
<path d="M249.031 70.9584L253.643 73.0251L255.874 74.0251C256.271 74.2028 256.67 74.3748 257.064 74.5584C257.306 74.6712 257.782 74.8457 257.698 75.1832C257.64 75.4131 257.333 75.5982 257.157 75.728C256.804 75.9894 256.444 76.2423 256.087 76.4993L254.08 77.9454L249.933 80.9342C249.832 81.0143 249.766 81.1307 249.748 81.2589C249.731 81.387 249.764 81.5168 249.841 81.621C249.917 81.7252 250.031 81.7955 250.158 81.8173C250.286 81.839 250.416 81.8104 250.523 81.7375C252.93 80.0025 255.359 78.2927 257.747 76.5313C258.193 76.2643 258.526 75.8429 258.684 75.3468C258.728 75.0595 258.681 74.7655 258.55 74.5063C258.418 74.2471 258.209 74.0358 257.951 73.9024C257.337 73.561 256.701 73.2627 256.046 73.0096L254.038 72.1096L249.426 70.043C249.306 69.9957 249.172 69.9971 249.053 70.0468C248.934 70.0965 248.838 70.1907 248.787 70.3095C248.736 70.4283 248.733 70.5623 248.778 70.6834C248.824 70.8045 248.914 70.9031 249.031 70.9584L249.031 70.9584Z" fill="#3F3D56"/>
<path d="M290.45 76.2408H267.539C267.413 76.2414 267.289 76.2171 267.173 76.1695C267.057 76.1219 266.951 76.0518 266.862 75.9633C266.773 75.8748 266.702 75.7695 266.654 75.6536C266.606 75.5377 266.58 75.4134 266.58 75.2878C266.58 75.1621 266.604 75.0377 266.652 74.9215C266.699 74.8053 266.77 74.6996 266.858 74.6106C266.947 74.5215 267.052 74.4508 267.167 74.4025C267.283 74.3542 267.407 74.3292 267.533 74.3289C267.535 74.3289 267.537 74.3289 267.539 74.3289H290.45C290.576 74.3284 290.7 74.3526 290.816 74.4003C290.932 74.4479 291.038 74.518 291.127 74.6065C291.216 74.695 291.287 74.8002 291.335 74.9161C291.384 75.032 291.409 75.1564 291.409 75.282C291.409 75.4076 291.385 75.5321 291.337 75.6483C291.29 75.7645 291.22 75.8701 291.131 75.9592C291.043 76.0482 290.937 76.1189 290.822 76.1673C290.706 76.2156 290.582 76.2406 290.456 76.2408C290.454 76.2408 290.452 76.2408 290.45 76.2408Z" fill="#019043"/>
<path d="M228.775 144.922C233.816 151.765 242.424 154.715 247.616 161.428C248.823 162.954 249.758 164.678 250.38 166.522C250.864 168.159 251.22 169.831 251.443 171.523C251.982 174.935 252.619 178.57 255.604 180.733C259.536 183.582 264.673 182.884 269.165 182.234C269.293 182.219 269.422 182.254 269.525 182.333C269.628 182.411 269.696 182.526 269.716 182.654C269.735 182.782 269.704 182.913 269.629 183.018C269.555 183.124 269.442 183.196 269.315 183.22C265.188 183.817 260.773 184.401 256.847 182.596C255.069 181.81 253.57 180.503 252.55 178.846C251.711 177.345 251.138 175.71 250.858 174.013C250.516 172.276 250.319 170.514 249.951 168.782C249.583 166.953 248.898 165.202 247.925 163.61C245.795 160.192 242.598 157.615 239.37 155.292C235.316 152.376 230.998 149.619 227.993 145.539C227.614 145.025 228.393 144.403 228.775 144.922L228.775 144.922Z" fill="#3F3D56"/>
<path d="M266.622 188.703L271.233 186.636L273.465 185.636C273.861 185.459 274.261 185.287 274.655 185.103C274.897 184.99 275.372 184.816 275.288 184.478C275.231 184.248 274.923 184.063 274.748 183.933C274.394 183.672 274.034 183.419 273.678 183.162L271.671 181.716L267.524 178.727C267.423 178.647 267.356 178.531 267.339 178.403C267.322 178.274 267.355 178.145 267.431 178.04C267.508 177.936 267.622 177.866 267.749 177.844C267.876 177.822 268.007 177.851 268.114 177.924C270.521 179.659 272.949 181.369 275.338 183.13C275.784 183.397 276.117 183.818 276.274 184.315C276.319 184.602 276.272 184.896 276.141 185.155C276.009 185.414 275.799 185.626 275.542 185.759C274.928 186.1 274.291 186.399 273.636 186.652L271.628 187.552L267.017 189.618C266.897 189.666 266.763 189.664 266.644 189.614C266.524 189.565 266.429 189.471 266.378 189.352C266.327 189.233 266.323 189.099 266.369 188.978C266.414 188.857 266.505 188.758 266.622 188.703H266.622Z" fill="#3F3D56"/>
<path d="M308.042 186.251H285.13C284.877 186.252 284.634 186.152 284.454 185.974C284.275 185.795 284.173 185.553 284.172 185.299C284.171 185.046 284.27 184.803 284.448 184.623C284.626 184.442 284.868 184.341 285.121 184.339C285.124 184.339 285.127 184.339 285.13 184.339H308.042C308.295 184.338 308.538 184.438 308.717 184.617C308.897 184.795 308.998 185.038 308.999 185.291C309 185.544 308.901 185.788 308.723 185.968C308.545 186.148 308.303 186.25 308.05 186.251C308.047 186.251 308.044 186.251 308.042 186.251Z" fill="#019043"/>
<path d="M46.8546 149.092C46.4208 149.953 45.8055 150.709 45.0512 151.308C44.2969 151.907 43.4216 152.335 42.4859 152.562C41.5502 152.789 40.5764 152.81 39.6319 152.624C38.6874 152.437 37.7946 152.047 37.0154 151.48L13.1529 162.851L11.5537 156.154L35.8552 141.814C36.9046 140.571 38.3728 139.758 39.9815 139.527C41.5901 139.296 43.2275 139.664 44.5833 140.561C45.9391 141.458 46.9192 142.822 47.3378 144.394C47.7565 145.967 47.5845 147.638 46.8546 149.092L46.8546 149.092Z" fill="#FFB6B6"/>
<path d="M37.6586 114.553L20.8675 148.909L27.9636 145.688L32.9024 143.445L35.3784 152.864C35.3784 152.864 33.7388 154.459 31.1532 156.556C27.4458 159.567 21.8001 163.619 16.2705 165.493C11.9425 166.962 7.69077 167.098 4.49783 164.36C-1.56277 159.162 4.36176 138.519 10.0871 122.802C13.9207 112.276 17.6612 103.964 17.6612 103.964C17.6612 92.8632 39.1749 76.9012 43.1678 74.7176C45.448 73.4746 46.0785 75.2849 46.0785 75.2849L33.5662 93.6276L37.3068 108.816L38.3655 113.107L37.6586 114.553Z" fill="#019043"/>
</svg>
